<?xml version="1.0" standalone="no"?>
<!DOCTYPE svg PUBLIC "-//W3C//DTD SVG 1.1//EN" "http://www.w3.org/Graphics/SVG/1.1/DTD/svg11.dtd" >
<svg xmlns="http://www.w3.org/2000/svg">
<metadata></metadata>
<defs>
<font id="greycliff_cflight" horiz-adv-x="1167" >
<font-face units-per-em="2048" ascent="1638" descent="-410" />
<missing-glyph horiz-adv-x="532" />
<glyph unicode="&#xfb01;" horiz-adv-x="985" d="M63 928v45q0 13 8.5 22t22.5 9h119v247q0 127 62.5 191.5t203.5 64.5q72 0 127 -32q21 -12 21 -37v-49q0 -40 -37 -21q-2 1 -14.5 6.5t-15.5 7t-13.5 6t-16.5 6t-15.5 3.5t-18.5 3t-19 1q-80 0 -110.5 -37t-30.5 -115v-245h213q13 0 22 -9t9 -22v-45q0 -14 -9 -22.5 t-22 -8.5h-213v-866q0 -13 -9 -22t-22 -9h-61q-14 0 -22.5 9t-8.5 22v866h-119q-14 0 -22.5 8.5t-8.5 22.5zM737 1341q0 35 24.5 59.5t59.5 24.5q37 0 61.5 -24.5t24.5 -59.5q0 -37 -24.5 -61.5t-61.5 -24.5q-35 0 -59.5 24.5t-24.5 61.5zM762 31v942q0 13 9 22t22 9h61 q14 0 22.5 -9t8.5 -22v-942q0 -13 -8.5 -22t-22.5 -9h-61q-13 0 -22 9t-9 22z" />
<glyph unicode="&#xfb02;" horiz-adv-x="1009" d="M63 928v45q0 13 8.5 22t22.5 9h119v247q0 127 62.5 191.5t203.5 64.5q72 0 127 -32q21 -12 21 -37v-49q0 -40 -37 -21q-2 1 -14.5 6.5t-15.5 7t-13.5 6t-16.5 6t-15.5 3.5t-18.5 3t-19 1q-80 0 -110.5 -37t-30.5 -115v-245h213q13 0 22 -9t9 -22v-45q0 -14 -9 -22.5 t-22 -8.5h-213v-866q0 -13 -9 -22t-22 -9h-61q-14 0 -22.5 9t-8.5 22v866h-119q-14 0 -22.5 8.5t-8.5 22.5zM782 31v1433q0 14 9 22.5t22 8.5h61q14 0 22.5 -8.5t8.5 -22.5v-1433q0 -13 -8.5 -22t-22.5 -9h-61q-13 0 -22 9t-9 22z" />
<glyph horiz-adv-x="0" />
<glyph horiz-adv-x="682" />
<glyph unicode=" "  horiz-adv-x="532" />
<glyph unicode="&#x09;" horiz-adv-x="532" />
<glyph unicode="&#xa0;" horiz-adv-x="532" />
<glyph unicode="!" horiz-adv-x="432" d="M131 59q0 35 24.5 59.5t61.5 24.5q35 0 59.5 -24.5t24.5 -59.5q0 -37 -24.5 -61.5t-59.5 -24.5q-37 0 -61.5 24.5t-24.5 61.5zM137 1370q0 32 24 56t54 24q31 0 54.5 -24t23.5 -56l-41 -960q1 -14 -9 -22.5t-24 -8.5h-8q-14 0 -23.5 8.5t-9.5 22.5z" />
<glyph unicode="&#x22;" horiz-adv-x="466" d="M74 1403q0 14 8.5 22.5t21.5 8.5h58q28 0 31 -31l-11 -387q0 -14 -8.5 -22.5t-21.5 -8.5h-37q-13 0 -22 8.5t-9 22.5zM274 1403q0 13 9 22t22 9h57q28 0 31 -31l-10 -387q0 -14 -8.5 -22.5t-22.5 -8.5h-37q-13 0 -21.5 8.5t-8.5 22.5z" />
<glyph unicode="#" horiz-adv-x="1073" d="M113 485v52q0 13 8.5 21.5t21.5 8.5h146v463h-146q-13 0 -21.5 8.5t-8.5 22.5v51q0 14 8.5 22.5t21.5 8.5h146v260q0 14 8.5 22.5t21.5 8.5h60q13 0 22 -9t9 -22v-260h245v260q0 13 8.5 22t22.5 9h59q13 0 22 -9t9 -22v-260h146q14 0 26.5 -9t12.5 -22v-51 q0 -13 -12.5 -22t-26.5 -9h-146v-463h146q14 0 26.5 -8.5t12.5 -21.5v-52q0 -13 -12.5 -21.5t-26.5 -8.5h-146v-260q0 -13 -9 -22t-22 -9h-59q-14 0 -22.5 9t-8.5 22v260h-245v-260q0 -13 -9 -22t-22 -9h-60q-13 0 -21.5 8.5t-8.5 22.5v260h-146q-13 0 -21.5 8.5t-8.5 21.5z M410 567h245v463h-245v-463z" />
<glyph unicode="$" horiz-adv-x="1054" d="M82 188q-13 23 8 41l43 37q21 18 43 -4q145 -172 342 -172q151 0 243.5 81.5t92.5 199.5q0 59 -25.5 107t-69 81.5t-99.5 62t-118 53.5t-124 51t-118 60t-99.5 75t-69 101t-25.5 134q0 143 103 242.5t264 109.5v139q0 13 8.5 22t22.5 9h49q13 0 22 -9t9 -22v-143 q94 -14 179.5 -63t145.5 -124q18 -21 -4 -43l-35 -30q-22 -22 -43 -2q-71 76 -147 114.5t-170 38.5q-122 0 -202.5 -63.5t-80.5 -177.5q0 -57 26 -103.5t69.5 -79t100 -60t119 -53t125 -52t119 -62t100 -78.5t69.5 -106t26 -140q0 -144 -113 -254t-284 -129v-131 q0 -13 -8.5 -21.5t-22.5 -8.5h-49q-14 0 -22.5 8.5t-8.5 21.5v129q-124 10 -224.5 67t-166.5 146z" />
<glyph unicode="%" horiz-adv-x="1449" d="M82 1167q0 116 82 196.5t196 80.5q116 0 198.5 -80.5t82.5 -196.5t-82.5 -197t-198.5 -81q-114 0 -196 81t-82 197zM176 1167q0 -81 53 -132.5t131 -51.5q79 0 134 52t55 132q0 79 -55 131t-134 52q-77 0 -130.5 -52t-53.5 -131zM215 45l940 1401l80 -57l-940 -1401z M809 266q0 116 82.5 197.5t198.5 81.5q115 0 196.5 -81.5t81.5 -197.5t-81.5 -196t-196.5 -80q-116 0 -198.5 80t-82.5 196zM903 266q0 -79 54 -130.5t133 -51.5q78 0 132 52t54 130q0 80 -54 132.5t-132 52.5q-79 0 -133 -52t-54 -133z" />
<glyph unicode="&#x26;" horiz-adv-x="1292" d="M84 373q0 62 20 118.5t48.5 99t77 88t88.5 75t100 69.5q-83 98 -130.5 181.5t-47.5 160.5q0 115 83.5 200t221.5 85t227.5 -86t89.5 -199q0 -56 -20.5 -107t-62 -96t-83 -80t-102.5 -77l412 -459q52 56 96 111q19 26 43 2l37 -37q24 -20 4 -43q-65 -77 -103 -117 l158 -176q20 -24 -2 -43l-39 -39q-23 -23 -43 0l-158 174q-217 -196 -456 -196q-129 0 -231 43t-165 133t-63 215zM209 375q0 -86 47.5 -150t121.5 -94.5t161 -30.5q194 0 383 164l-422 469l-4 4q-67 -45 -110 -79.5t-88 -80.5t-67 -96.5t-22 -105.5zM360 1167 q0 -108 156 -276q109 73 166 136t57 140q0 71 -56.5 117.5t-137.5 46.5q-76 0 -130.5 -46.5t-54.5 -117.5z" />
<glyph unicode="'" horiz-adv-x="266" d="M74 1403q0 14 8.5 22.5t21.5 8.5h58q28 0 31 -31l-11 -387q0 -14 -8.5 -22.5t-21.5 -8.5h-37q-13 0 -22 8.5t-9 22.5z" />
<glyph unicode="(" horiz-adv-x="526" d="M102 655q0 238 49.5 457t147.5 393q12 21 37 21h61q17 0 23.5 -10t-0.5 -27q-90 -176 -138.5 -391.5t-48.5 -442.5q0 -243 48 -470.5t139 -413.5q7 -17 0.5 -27t-23.5 -10h-61q-26 0 -37 20q-197 346 -197 901z" />
<glyph unicode=")" horiz-adv-x="526" d="M105.5 -256q-6.5 10 0.5 27q91 186 139 413.5t48 470.5q0 227 -48.5 442.5t-138.5 391.5q-7 17 -0.5 27t23.5 10h61q25 0 37 -21q98 -174 147.5 -393t49.5 -457q0 -555 -197 -901q-11 -20 -37 -20h-61q-17 0 -23.5 10z" />
<glyph unicode="*" horiz-adv-x="876" d="M154 1186l16 61l213 -65l-12 -54zM244 915l135 179l43 -37l-123 -180zM403 1419h70l-4 -215h-61zM455 1057l43 37l135 -179l-55 -38zM494 1182l213 65l16 -61l-215 -58z" />
<glyph unicode="+" horiz-adv-x="821" d="M113 555v51q0 14 8.5 22.5t21.5 8.5h213v211q0 14 9 22.5t22 8.5h51q14 0 22.5 -8.5t8.5 -22.5v-211h209q14 0 22.5 -8.5t8.5 -22.5v-51q0 -13 -8.5 -22t-22.5 -9h-209v-211q0 -13 -8.5 -21.5t-22.5 -8.5h-51q-14 0 -22.5 8.5t-8.5 21.5v211h-213q-13 0 -21.5 8.5 t-8.5 22.5z" />
<glyph unicode="," horiz-adv-x="315" d="M72 59q0 35 24.5 59.5t61.5 24.5t61.5 -27.5t24.5 -76.5q0 -115 -86 -223q-3 -6 -11 -6h-22q-5 0 -7 4t1 8q39 76 39 151q-37 0 -61.5 24.5t-24.5 61.5z" />
<glyph unicode="-" horiz-adv-x="798" d="M92 557v49q0 14 9 22.5t22 8.5h553q14 0 22.5 -8.5t8.5 -22.5v-49q0 -13 -8.5 -22t-22.5 -9h-553q-13 0 -22 9t-9 22z" />
<glyph unicode="." horiz-adv-x="313" d="M72 59q0 35 24.5 59.5t61.5 24.5q35 0 59.5 -24.5t24.5 -59.5q0 -37 -24.5 -61.5t-59.5 -24.5q-37 0 -61.5 24.5t-24.5 61.5z" />
<glyph unicode="/" horiz-adv-x="833" d="M25 -231l671 1732q9 25 37 25h51q37 0 25 -35l-672 -1733q-9 -24 -37 -24h-51q-36 0 -24 35z" />
<glyph unicode="0" horiz-adv-x="1202" d="M74 711q0 349 140 544t386 195q247 0 386.5 -195t139.5 -544q0 -347 -140 -542.5t-386 -195.5q-245 0 -385.5 196t-140.5 542zM193 711q0 -298 110 -462.5t297 -164.5q189 0 299.5 164.5t110.5 462.5q0 300 -110.5 464t-299.5 164q-188 0 -297.5 -164t-109.5 -464z" />
<glyph unicode="1" horiz-adv-x="477" d="M74 1354v49q0 14 8.5 22.5t21.5 8.5h238q14 0 22.5 -9t8.5 -22v-1372q0 -13 -8.5 -22t-22.5 -9h-61q-13 0 -22 9t-9 22v1292h-146q-13 0 -21.5 8.5t-8.5 22.5z" />
<glyph unicode="2" horiz-adv-x="1026" d="M84 31v80l377 385q76 78 115 119t88.5 96.5t72.5 89.5t46.5 76.5t31.5 79t8 77.5q0 136 -81.5 220.5t-237.5 84.5q-48 0 -93 -10.5t-74 -22.5t-64 -36.5t-48 -35.5t-41 -36q-24 -21 -45 0l-33 29q-21 21 -2 43q71 82 178 131t220 49q139 0 240.5 -57t150.5 -150.5 t49 -210.5q0 -86 -42.5 -175t-115 -177.5t-202.5 -220.5l-342 -348h671q13 0 22 -8.5t9 -22.5v-49q0 -13 -9 -22t-22 -9h-796q-13 0 -22 9t-9 22z" />
<glyph unicode="3" horiz-adv-x="1026" d="M80 152q-19 22 2 43l33 28q23 23 45 0q26 -28 50.5 -47.5t64.5 -43t96 -36t123 -12.5q145 0 245.5 89t100.5 233q0 97 -55 167.5t-142 104.5t-197 37q-30 0 -30 30v46q0 32 30 32q152 4 243 81t91 188q0 108 -87 178.5t-201 70.5q-52 0 -98 -12.5t-83 -36.5t-60 -44 t-50 -48q-23 -22 -45 0l-31 31q-21 21 -2 43q70 83 165 129.5t199 46.5q106 0 200 -46.5t152 -131.5t58 -187q0 -98 -57.5 -181.5t-151.5 -131.5q116 -47 191 -143.5t75 -218.5q0 -190 -135.5 -313.5t-329.5 -123.5q-255 0 -409 179z" />
<glyph unicode="4" horiz-adv-x="985" d="M59 426v57q0 21 11 39l530 891q12 21 37 21h68q13 0 21.5 -8.5t8.5 -22.5v-899h148q13 0 21.5 -8.5t8.5 -22.5v-47q0 -14 -8.5 -22.5t-21.5 -8.5h-148v-364q0 -14 -8.5 -22.5t-21.5 -8.5h-62q-13 0 -22 9t-9 22v364h-522q-14 0 -22.5 8.5t-8.5 22.5zM182 504h430v725z " />
<glyph unicode="5" horiz-adv-x="1048" d="M90 733l176 674q7 27 33 27h549q14 0 22.5 -9t8.5 -22v-45q0 -14 -8.5 -22.5t-22.5 -8.5h-492l-125 -481q109 84 271 84q88 0 171 -34t148 -93.5t104.5 -149.5t39.5 -194q0 -145 -67.5 -257t-176.5 -169.5t-238 -57.5q-127 0 -231.5 53.5t-159.5 127.5q-17 26 6 43l37 34 q26 19 45 -6q123 -141 305 -141q91 0 172.5 44t135 131t53.5 198q0 80 -32.5 149.5t-84.5 114t-113.5 69.5t-121.5 25q-184 0 -297 -139q-16 -22 -41 -10l-45 24q-26 17 -21 41z" />
<glyph unicode="6" horiz-adv-x="1040" d="M63 442q0 165 121 332l502 682q18 24 43 6l39 -32q11 -6 13 -19t-7 -25l-366 -495q62 16 114 16q194 0 325.5 -134.5t131.5 -330.5q0 -128 -59.5 -235.5t-165 -170.5t-232.5 -63t-233 63t-166 171t-60 235zM182 442q0 -157 96.5 -257.5t243.5 -100.5q146 0 243 100.5 t97 257.5q0 153 -97.5 254t-242.5 101q-146 0 -243 -100.5t-97 -254.5z" />
<glyph unicode="7" horiz-adv-x="956" d="M74 1354v49q0 14 8.5 22.5t21.5 8.5h785q14 0 21 -9t3 -22l-538 -1372q-10 -31 -37 -31h-57q-14 0 -21.5 9t-3.5 22l512 1292h-664q-13 0 -21.5 8.5t-8.5 22.5z" />
<glyph unicode="8" horiz-adv-x="1058" d="M84 393q0 138 82 246t199 152q-99 45 -153 129t-54 182q0 140 104.5 244t267.5 104t268 -104t105 -244q0 -98 -54.5 -182t-154.5 -129q117 -44 199 -152t82 -246q0 -124 -62 -221.5t-162.5 -148t-220.5 -50.5q-90 0 -171 30t-142 83.5t-97 133t-36 173.5zM199 395 q0 -142 95.5 -226.5t235.5 -84.5q139 0 234.5 84t95.5 227q0 138 -96 230t-234 92q-139 0 -235 -92t-96 -230zM268 1110q-3 -108 74.5 -182t187.5 -74t187 74t76 182q-3 102 -73 171t-190 69t-190 -69.5t-72 -170.5z" />
<glyph unicode="9" horiz-adv-x="1038" d="M59 981q0 128 59.5 235.5t165 170.5t232.5 63t233 -63t166 -171t60 -235q0 -165 -121 -332l-502 -682q-18 -24 -43 -6l-39 33q-11 6 -13 18.5t7 24.5l367 495q-62 -16 -115 -16q-194 0 -325.5 134.5t-131.5 330.5zM176 981q0 -153 97.5 -253.5t242.5 -100.5 q147 0 243.5 100.5t96.5 253.5q0 157 -96.5 257.5t-243.5 100.5q-146 0 -243 -100.5t-97 -257.5z" />
<glyph unicode=":" horiz-adv-x="313" d="M72 59q0 35 24.5 59.5t61.5 24.5q35 0 59.5 -24.5t24.5 -59.5q0 -37 -24.5 -61.5t-59.5 -24.5q-37 0 -61.5 24.5t-24.5 61.5zM72 1024q0 35 24.5 59.5t61.5 24.5q35 0 59.5 -24.5t24.5 -59.5q0 -37 -24.5 -61.5t-59.5 -24.5q-37 0 -61.5 24.5t-24.5 61.5z" />
<glyph unicode=";" horiz-adv-x="315" d="M72 59q0 35 24.5 59.5t61.5 24.5t61.5 -27.5t24.5 -76.5q0 -115 -86 -223q-3 -6 -11 -6h-22q-5 0 -7 4t1 8q39 76 39 151q-37 0 -61.5 24.5t-24.5 61.5zM74 942q0 35 24.5 59.5t61.5 24.5q35 0 59.5 -24.5t24.5 -59.5q0 -37 -24.5 -61.5t-59.5 -24.5q-37 0 -61.5 24.5 t-24.5 61.5z" />
<glyph unicode="&#x3c;" horiz-adv-x="997" d="M102 483v58q0 24 23 37l754 407q15 9 25.5 2t10.5 -24v-50q0 -23 -22 -36l-680 -367l680 -367q22 -13 22 -37v-49q0 -17 -10.5 -23t-25.5 3l-754 409q-23 13 -23 37z" />
<glyph unicode="=" horiz-adv-x="862" d="M113 432v51q0 14 8.5 22.5t21.5 8.5h576q13 0 22 -9t9 -22v-51q0 -14 -9 -22.5t-22 -8.5h-576q-13 0 -21.5 8.5t-8.5 22.5zM113 682v51q0 14 8.5 22.5t21.5 8.5h576q13 0 22 -9t9 -22v-51q0 -14 -9 -22.5t-22 -8.5h-576q-13 0 -21.5 8.5t-8.5 22.5z" />
<glyph unicode="&#x3e;" horiz-adv-x="1038" d="M123 57v49q0 24 22 37l680 367l-680 367q-22 13 -22 36v50q0 17 11 24t26 -2l753 -407q23 -13 23 -37v-58q0 -24 -23 -37l-753 -409q-15 -9 -26 -3t-11 23z" />
<glyph unicode="?" horiz-adv-x="968" d="M63 1264q66 83 181 134.5t231 51.5q187 0 304.5 -103t117.5 -260q0 -271 -387 -425l-6 -254q0 -14 -9 -22.5t-22 -8.5h-43q-13 0 -21 8.5t-8 22.5l-10 299q0 25 27 34q195 66 277.5 149.5t82.5 205.5q0 112 -81.5 175.5t-215.5 63.5q-181 0 -342 -145q-37 -33 -63 0 l-10 12q-26 33 -3 62zM371 59q0 35 24.5 59.5t61.5 24.5q35 0 59.5 -24.5t24.5 -59.5q0 -37 -24.5 -61.5t-59.5 -24.5q-37 0 -61.5 24.5t-24.5 61.5z" />
<glyph unicode="@" horiz-adv-x="1646" d="M84 717q0 167 63 307.5t167.5 232t237.5 142.5t275 51q146 0 279.5 -51.5t235 -143t161.5 -228t60 -296.5q0 -91 -18.5 -164t-48 -120t-70 -78.5t-81.5 -44.5t-85 -13q-68 0 -116.5 33t-68.5 96q-105 -118 -276 -118q-165 0 -274 111.5t-109 271.5q0 159 109 269.5 t274 110.5q96 0 175 -40t130 -111l26 115h87l-48 -474q-9 -87 23 -119t88 -32q162 0 162 307q0 145 -50.5 262t-136.5 190.5t-195.5 112.5t-232.5 39q-89 0 -176.5 -24t-168 -74.5t-142 -122t-98.5 -174t-37 -223.5t37 -224t98.5 -174.5t142.5 -122t169.5 -74.5t178.5 -24 q192 0 336 99l78 -70q-190 -143 -418 -143q-113 0 -222 32.5t-202.5 96t-165 151t-112.5 204.5t-41 249zM532 705q0 -116 73 -195.5t194 -79.5q119 0 195.5 80t76.5 195t-76.5 193.5t-195.5 78.5q-121 0 -194 -78t-73 -194z" />
<glyph unicode="A" horiz-adv-x="1275" d="M57 35l506 1374q9 25 37 25h76q28 0 37 -25l506 -1374q3 -7 3 -13q0 -7 -4 -12q-7 -10 -24 -10h-66q-26 0 -34 25l-119 331h-672l-121 -331q-8 -25 -35 -25h-65q-17 0 -24 10q-4 5 -4 12q0 6 3 13zM344 471h588l-293 813z" />
<glyph unicode="B" horiz-adv-x="1142" d="M125 31v1372q0 13 8.5 22t22.5 9h424q111 0 194 -29.5t129 -79.5t68 -107t22 -120q0 -114 -53.5 -198.5t-163.5 -121.5q145 -31 224 -128.5t79 -229.5q0 -203 -127.5 -311.5t-378.5 -108.5h-417q-14 0 -22.5 9t-8.5 22zM254 121h311q192 0 286.5 71t94.5 226 q0 138 -91 216.5t-290 78.5h-311v-592zM254 827h313q140 0 218.5 70t78.5 197q0 110 -77.5 164.5t-219.5 54.5h-313v-486z" />
<glyph unicode="C" horiz-adv-x="1368" d="M84 711q0 152 56 289t151 235.5t228.5 156.5t281.5 58q251 0 479 -190q14 -11 14 -23q0 -10 -12 -20l-43 -43q-21 -19 -43 0q-182 151 -393 151q-160 0 -295.5 -79.5t-215 -221t-79.5 -313.5q0 -171 79.5 -312.5t215 -221t295.5 -79.5q210 0 393 152q22 19 43 0l43 -41 q10 -10 10 -21q0 -13 -12 -22q-228 -193 -479 -193q-198 0 -363 98.5t-259.5 268t-94.5 371.5z" />
<glyph unicode="D" horiz-adv-x="1280" d="M125 31v1372q0 13 8.5 22t22.5 9h301q183 0 327 -54.5t235.5 -151.5t139 -226.5t47.5 -284.5t-47.5 -284.5t-139 -226.5t-235.5 -151.5t-327 -54.5h-301q-14 0 -22.5 9t-8.5 22zM254 121h203q304 0 461 157.5t157 438.5t-157 438.5t-461 157.5h-203v-1192z" />
<glyph unicode="E" horiz-adv-x="983" d="M125 31v1372q0 13 8.5 22t22.5 9h692q14 0 22.5 -9t8.5 -22v-60q0 -13 -8.5 -21.5t-22.5 -8.5h-594v-488h559q14 0 22.5 -8.5t8.5 -21.5v-60q0 -13 -8.5 -21.5t-22.5 -8.5h-559v-584h596q14 0 22.5 -8.5t8.5 -22.5v-59q0 -13 -8.5 -22t-22.5 -9h-694q-14 0 -22.5 9 t-8.5 22z" />
<glyph unicode="F" horiz-adv-x="962" d="M125 31v1372q0 13 8.5 22t22.5 9h673q13 0 22 -9t9 -22v-60q0 -13 -8.5 -21.5t-22.5 -8.5h-575v-488h549q14 0 22.5 -8.5t8.5 -21.5v-60q0 -13 -8.5 -21.5t-22.5 -8.5h-549v-674q0 -13 -9 -22t-22 -9h-67q-14 0 -22.5 9t-8.5 22z" />
<glyph unicode="G" horiz-adv-x="1536" d="M84 717q0 200 94.5 368.5t259.5 266.5t363 98q251 0 479 -190q26 -22 2 -43l-43 -43q-21 -19 -43 0q-182 151 -393 151q-120 0 -228.5 -47t-188 -127t-126.5 -193.5t-47 -240.5q0 -174 78.5 -316.5t213.5 -222.5t298 -80q230 0 381.5 139t158.5 363h-516q-13 0 -21.5 8.5 t-8.5 22.5v61q0 14 8.5 22.5t21.5 8.5h605q13 0 21.5 -8.5t8.5 -22.5v-49q0 -193 -78.5 -344t-229.5 -238.5t-351 -87.5q-152 0 -286.5 58.5t-229 158t-149 237t-54.5 290.5z" />
<glyph unicode="H" horiz-adv-x="1210" d="M125 31v1372q0 13 8.5 22t22.5 9h67q13 0 22 -9t9 -22v-627h702v627q0 13 9 22t22 9h68q13 0 21.5 -8.5t8.5 -22.5v-1372q0 -14 -8.5 -22.5t-21.5 -8.5h-68q-13 0 -22 9t-9 22v624h-702v-624q0 -13 -9 -22t-22 -9h-67q-14 0 -22.5 9t-8.5 22z" />
<glyph unicode="I" horiz-adv-x="378" d="M125 31v1372q0 13 8.5 22t22.5 9h67q13 0 22 -9t9 -22v-1372q0 -13 -9 -22t-22 -9h-67q-14 0 -22.5 9t-8.5 22z" />
<glyph unicode="J" horiz-adv-x="946" d="M70 152l36 41q23 23 46 -3q104 -90 243 -90q142 0 219.5 103.5t77.5 312.5v887q0 13 9 22t22 9h68q13 0 21.5 -8.5t8.5 -22.5v-893q0 -269 -111.5 -398.5t-314.5 -129.5q-209 0 -323 127q-10 12 -10 23t8 20z" />
<glyph unicode="K" horiz-adv-x="1148" d="M125 31v1372q0 13 8.5 22t22.5 9h67q13 0 22 -9t9 -22v-643l598 657q14 17 37 17h92q20 0 25 -12t-9 -25l-518 -563l606 -797q8 -10 8 -19q0 -4 -2 -7q-5 -11 -24 -11h-84q-24 0 -37 18l-547 727l-145 -157v-557q0 -13 -9 -22t-22 -9h-67q-14 0 -22.5 9t-8.5 22z" />
<glyph unicode="L" horiz-adv-x="923" d="M125 31v1372q0 13 8.5 22t22.5 9h67q13 0 22 -9t9 -22v-1282h555q13 0 22 -8.5t9 -22.5v-59q0 -13 -9 -22t-22 -9h-653q-14 0 -22.5 9t-8.5 22z" />
<glyph unicode="M" horiz-adv-x="1675" d="M125 31v1372q0 13 8.5 22t22.5 9h100q28 0 37 -21l545 -1272l540 1272q9 21 37 21h105q13 0 21.5 -8.5t8.5 -22.5v-1372q0 -14 -8.5 -22.5t-21.5 -8.5h-68q-14 0 -22.5 9t-8.5 22v1183l-514 -1191q-9 -23 -35 -23h-73q-26 0 -35 23l-510 1183v-1175q0 -13 -9 -22t-22 -9 h-67q-14 0 -22.5 9t-8.5 22z" />
<glyph unicode="N" horiz-adv-x="1284" d="M125 31v1372q0 27 25 31h106q25 0 37 -21l737 -1237v1227q0 13 9 22t22 9h67q14 0 22.5 -9t8.5 -22v-1372q0 -12 -7 -21t-17 -10h-107q-26 0 -37 20l-737 1237v-1226q0 -13 -9 -22t-22 -9h-67q-14 0 -22.5 9t-8.5 22z" />
<glyph unicode="O" horiz-adv-x="1630" d="M84 711q0 152 58 289t156 235.5t233.5 156.5t285.5 58q149 0 283.5 -58t232.5 -156.5t155.5 -235.5t57.5 -289q0 -151 -57.5 -288t-155.5 -235.5t-232.5 -156.5t-283.5 -58q-150 0 -285.5 58t-233.5 156.5t-156 235.5t-58 288zM207 711q0 -170 80.5 -312t221 -224.5 t308.5 -82.5q166 0 305.5 82.5t220 225t80.5 311.5q0 171 -80.5 314t-220 225.5t-305.5 82.5q-168 0 -308.5 -82.5t-221 -225.5t-80.5 -314z" />
<glyph unicode="P" horiz-adv-x="1062" d="M125 31v1372q0 13 8.5 22t22.5 9h374q222 0 345.5 -122.5t123.5 -316.5q0 -193 -123.5 -315.5t-345.5 -122.5h-276v-526q0 -13 -9 -22t-22 -9h-67q-14 0 -22.5 9t-8.5 22zM254 678h268q104 0 180.5 31t124 103.5t47.5 182.5q0 162 -96.5 240t-255.5 78h-268v-635z" />
<glyph unicode="Q" horiz-adv-x="1630" d="M84 711q0 152 58 289t156 235.5t233.5 156.5t285.5 58q149 0 283.5 -58t232.5 -156.5t155.5 -235.5t57.5 -289q0 -277 -176 -482l166 -163q11 -11 11 -21.5t-11 -21.5l-41 -41q-11 -13 -22 -13t-23 13l-164 163q-200 -172 -469 -172q-150 0 -285.5 58t-233.5 156.5 t-156 235.5t-58 288zM207 711q0 -170 80.5 -312t221 -224.5t308.5 -82.5q219 0 385 137l-198 199q-19 19 0 43l40 41q22 22 43 0l199 -197q137 169 137 396q0 171 -80.5 314t-220 225.5t-305.5 82.5q-168 0 -308.5 -82.5t-221 -225.5t-80.5 -314z" />
<glyph unicode="R" horiz-adv-x="1091" d="M125 31v1372q0 13 8.5 22t22.5 9h374q222 0 345.5 -122.5t123.5 -316.5q0 -167 -93.5 -283.5t-266.5 -146.5l362 -528q6 -11 6 -19q1 -4 -1 -8q-6 -10 -25 -10h-76q-26 0 -37 20l-360 537h-254v-526q0 -13 -9 -22t-22 -9h-67q-14 0 -22.5 9t-8.5 22zM254 678h268 q104 0 180.5 31t124 103.5t47.5 182.5q0 162 -96.5 240t-255.5 78h-268v-635z" />
<glyph unicode="S" horiz-adv-x="1054" d="M82 188q-5 9 -5 17q0 13 13 24l43 37q21 18 43 -4q145 -172 342 -172q151 0 243.5 81.5t92.5 199.5q0 59 -25.5 107t-69 81.5t-99.5 62t-118 53.5t-124 51t-118 60t-99.5 75t-69 101t-25.5 134q0 152 115 253t291 101q111 0 218 -52t179 -141q18 -21 -4 -43l-35 -30 q-22 -22 -43 -2q-71 76 -147 114.5t-170 38.5q-122 0 -202.5 -63.5t-80.5 -177.5q0 -57 26 -103.5t69.5 -79t100 -60t119 -53t125 -52t119 -62t100 -78.5t69.5 -106t26 -140q0 -157 -133 -272t-326 -115q-141 0 -254 58.5t-186 156.5z" />
<glyph unicode="T" horiz-adv-x="1017" d="M84 1343v60q0 13 9 22t22 9h788q13 0 22 -9t9 -22v-60q0 -13 -8.5 -21.5t-22.5 -8.5h-330v-1282q0 -14 -8.5 -22.5t-21.5 -8.5h-68q-13 0 -22 9t-9 22v1282h-329q-14 0 -22.5 8.5t-8.5 21.5z" />
<glyph unicode="U" horiz-adv-x="1243" d="M115 555v848q0 14 8.5 22.5t21.5 8.5h68q13 0 22 -9t9 -22v-848q0 -229 105 -347t274 -118q167 0 271.5 118t104.5 347v848q0 13 8.5 22t22.5 9h68q13 0 21.5 -8.5t8.5 -22.5v-848q0 -280 -139.5 -431t-365.5 -151q-228 0 -368 151t-140 431z" />
<glyph unicode="V" horiz-adv-x="1312" d="M76 1399q-3 7 -3 13q-1 7 3 12q6 10 24 10h66q27 0 35 -25l456 -1259l455 1259q8 25 35 25h65q17 0 24 -10q4 -5 4 -12q0 -6 -3 -13l-506 -1374q-9 -25 -37 -25h-76q-27 0 -36 25z" />
<glyph unicode="W" horiz-adv-x="2197" d="M76 1399q-3 7 -3 13q-1 7 3 12q6 10 24 10h66q27 0 35 -25l397 -1259l434 1259q1 4 4.5 8.5t3.5 5.5q7 11 25 11h61q11 0 19 -4q8 -5 14 -21l436 -1259l402 1259q6 25 35 25h63q27 0 27 -21q0 -6 -2 -14l-449 -1374q-9 -25 -37 -25h-80q-30 0 -36 25l-422 1214 l-420 -1214q-9 -25 -37 -25h-82q-29 0 -35 25z" />
<glyph unicode="X" horiz-adv-x="1185" d="M76 11q-2 4 -2 9q0 8 6 17l442 696l-422 664q-9 15 -3 26t24 11h72q24 0 36 -21l363 -571l364 571q12 21 37 21h70q18 0 23.5 -11t-3.5 -26l-421 -664l442 -696q5 -9 5 -17q0 -5 -2 -9q-6 -11 -24 -11h-69q-26 0 -37 20l-385 605l-383 -605q-11 -20 -37 -20h-72 q-18 0 -24 11z" />
<glyph unicode="Y" horiz-adv-x="1138" d="M76 1423q6 11 24 11h72q25 0 37 -21l360 -592l361 592q12 21 37 21h71q18 0 24 -11q2 -4 2 -9q0 -8 -5 -17l-426 -699v-667q0 -13 -8.5 -22t-22.5 -9h-65q-13 0 -22 9t-9 22v667l-426 699q-6 9 -6 17q0 5 2 9z" />
<glyph unicode="Z" horiz-adv-x="1120" d="M94 31v69q0 19 12 37l768 1176h-729q-13 0 -21.5 8.5t-8.5 21.5v60q0 14 8.5 22.5t21.5 8.5h830q13 0 22 -9t9 -22v-70q0 -17 -13 -37l-768 -1175h770q13 0 22 -8.5t9 -22.5v-59q0 -13 -9 -22t-22 -9h-870q-13 0 -22 9t-9 22z" />
<glyph unicode="[" horiz-adv-x="522" d="M102 -236v1731q0 13 9 22t22 9h256q13 0 22 -9t9 -22v-45q0 -14 -9 -22.5t-22 -8.5h-158v-1579h158q14 0 22.5 -8.5t8.5 -21.5v-46q0 -13 -8.5 -21.5t-22.5 -8.5h-256q-14 0 -22.5 8.5t-8.5 21.5z" />
<glyph unicode="\" horiz-adv-x="833" d="M25 1491q-12 35 24 35h51q28 0 37 -25l672 -1732q12 -35 -25 -35h-51q-28 0 -37 24z" />
<glyph unicode="]" horiz-adv-x="522" d="M102 -190q0 13 8.5 21.5t22.5 8.5h158v1579h-158q-13 0 -22 8.5t-9 22.5v45q0 13 9 22t22 9h256q13 0 22 -9t9 -22v-1731q0 -13 -8.5 -21.5t-22.5 -8.5h-256q-14 0 -22.5 8.5t-8.5 21.5v46z" />
<glyph unicode="^" horiz-adv-x="1161" d="M103.5 631.5q-6.5 10.5 2.5 25.5l410 754q13 23 37 23h57q24 0 37 -23l408 -754q9 -15 2 -25.5t-25 -10.5h-49q-24 0 -37 22l-366 680l-367 -680q-13 -22 -37 -22h-49q-17 0 -23.5 10.5z" />
<glyph unicode="_" horiz-adv-x="1228" d="M102 -31q0 13 9 22t22 9h963q13 0 21.5 -8.5t8.5 -22.5v-49q0 -14 -8.5 -22.5t-21.5 -8.5h-963q-13 0 -22 8.5t-9 22.5v49z" />
<glyph unicode="`" horiz-adv-x="294" d="M61 1456q-7 17 0 26t25 9h37q24 0 35 -25l123 -258q15 -34 -25 -34h-37q-24 0 -35 24z" />
<glyph unicode="a" d="M74 500q0 222 139.5 373t353.5 151q120 0 214.5 -50t154.5 -140l8 139q3 31 31 31h55q14 0 22.5 -9t8.5 -22v-942q0 -13 -8.5 -22t-22.5 -9h-55q-28 0 -31 31l-10 133q-60 -89 -154 -139t-213 -50q-214 0 -353.5 151.5t-139.5 373.5zM193 502q0 -179 108 -296.5 t274 -117.5q140 0 242 92.5t129 233.5l4 86l-4 88q-27 141 -129 233t-242 92q-165 0 -273.5 -117t-108.5 -294z" />
<glyph unicode="b" d="M106 31v1433q0 14 9 22.5t22 8.5h62q13 0 21.5 -8.5t8.5 -22.5v-604l2 -26q60 90 154.5 140t214.5 50q142 0 255.5 -69.5t176 -189.5t62.5 -265q0 -222 -140 -373.5t-354 -151.5q-119 0 -213 50t-154 139l-10 -133q-3 -31 -30 -31h-56q-13 0 -22 9t-9 22zM217 500l4 -86 q27 -141 129 -233.5t242 -92.5q166 0 274.5 117.5t108.5 296.5q0 177 -108.5 294t-274.5 117q-140 0 -242 -92t-129 -233z" />
<glyph unicode="c" horiz-adv-x="1036" d="M74 500q0 223 143 374.5t358 151.5q229 0 383 -178q9 -10 9 -21t-11 -22l-32 -27q-22 -22 -45 -2q-2 2 -22.5 21t-26 24.5t-27 22.5t-34 23t-37 18t-45.5 16.5t-50.5 9t-61.5 4.5q-168 0 -275 -117.5t-107 -297.5t107 -298t275 -118q63 0 113.5 12t89 37t57.5 41.5 t50 48.5q23 23 45 0l33 -28q11 -11 11 -22q0 -10 -9 -21q-154 -179 -390 -179q-215 0 -358 152t-143 375z" />
<glyph unicode="d" d="M74 500q0 222 139.5 373t353.5 151q120 0 214.5 -50t154.5 -140l2 26v604q0 14 9 22.5t22 8.5h61q14 0 22.5 -8.5t8.5 -22.5v-1433q0 -13 -8.5 -22t-22.5 -9h-55q-28 0 -31 31l-10 133q-60 -89 -154 -139t-213 -50q-214 0 -353.5 151.5t-139.5 373.5zM193 502 q0 -179 108 -296.5t274 -117.5q140 0 242 92.5t129 233.5l4 86l-4 88q-27 141 -129 233t-242 92q-165 0 -273.5 -117t-108.5 -294z" />
<glyph unicode="e" horiz-adv-x="1105" d="M74 500q0 224 137.5 375t351.5 151q139 0 247.5 -68.5t165 -178t56.5 -236.5q0 -53 -11 -75t-46 -22h-780q18 -157 125 -259.5t272 -102.5q169 0 289 109q25 22 43 6l26 -25q24 -24 2 -47q-148 -154 -374 -154q-145 0 -260.5 70t-179.5 190.5t-64 266.5zM195 549h729 q-3 152 -105.5 259t-257.5 107q-152 0 -252 -103.5t-114 -262.5z" />
<glyph unicode="f" horiz-adv-x="663" d="M63 928v45q0 13 8.5 22t22.5 9h119v247q0 127 64.5 191.5t205.5 64.5q135 0 215 -96q4 -6 4 -12q0 -7 -6 -13l-41 -38q-8 -10 -12.5 -10t-11.5 5q-7 4 -20.5 12.5t-20 12.5t-18.5 10.5t-20.5 9.5t-20.5 6.5t-24 5t-26 1.5q-80 0 -112.5 -37.5t-32.5 -114.5v-245h201 q13 0 21.5 -8.5t8.5 -22.5v-45q0 -14 -8.5 -22.5t-21.5 -8.5h-201v-866q0 -13 -9 -22t-22 -9h-61q-14 0 -22.5 9t-8.5 22v866h-119q-14 0 -22.5 8.5t-8.5 22.5z" />
<glyph unicode="g" d="M74 510q0 141 62 258t176 186.5t255 69.5q120 0 214.5 -50.5t154.5 -139.5l8 139q3 31 31 31h55q14 0 22.5 -9t8.5 -22v-950q0 -89 -30 -162.5t-80 -122t-116 -82t-135 -48t-141 -14.5q-221 0 -371 93q-24 15 -10 43l19 34q6 12 17.5 15.5t23.5 -2.5q147 -70 313 -70 q74 0 141 17.5t123.5 52.5t89.5 95.5t33 139.5v178q-62 -92 -156.5 -143t-214.5 -51q-141 0 -255 69.5t-176 186.5t-62 258zM193 512q0 -171 108.5 -287t273.5 -116q142 0 245 93.5t128 233.5l6 76l-2 51q-19 148 -124 249t-253 101q-165 0 -273.5 -115.5t-108.5 -285.5z " />
<glyph unicode="h" horiz-adv-x="1028" d="M104 31v1433q0 14 9 22.5t22 8.5h62q13 0 21.5 -8.5t8.5 -22.5v-637q62 90 149.5 144.5t196.5 54.5q165 0 258 -98.5t93 -294.5v-602q0 -13 -9 -22t-22 -9h-62q-13 0 -21.5 8.5t-8.5 22.5v602q0 137 -63.5 212t-180.5 75q-73 0 -139.5 -33t-105.5 -77t-62 -83t-23 -57 v-639q0 -14 -8.5 -22.5t-21.5 -8.5h-62q-13 0 -22 9t-9 22z" />
<glyph unicode="i" horiz-adv-x="329" d="M80 1341q0 35 24.5 59.5t59.5 24.5q37 0 61.5 -24.5t24.5 -59.5q0 -37 -24.5 -61.5t-61.5 -24.5q-35 0 -59.5 24.5t-24.5 61.5zM104 31v942q0 13 9 22t22 9h62q13 0 21.5 -8.5t8.5 -22.5v-942q0 -14 -8.5 -22.5t-21.5 -8.5h-62q-13 0 -22 9t-9 22z" />
<glyph unicode="j" horiz-adv-x="464" d="M12 -322q-1 3 -1 6q0 6 3 10q5 7 15 7q115 7 163 80t48 227v965q0 14 8.5 22.5t21.5 8.5h62q13 0 21.5 -8.5t8.5 -22.5v-965q0 -401 -311 -414q-18 0 -22 19zM215 1341q0 35 24.5 59.5t61.5 24.5q35 0 59.5 -24.5t24.5 -59.5q0 -37 -24.5 -61.5t-59.5 -24.5 q-37 0 -61.5 24.5t-24.5 61.5z" />
<glyph unicode="k" horiz-adv-x="976" d="M104 31v1433q0 14 9 22.5t22 8.5h62q13 0 21.5 -8.5t8.5 -22.5v-1030l529 553q14 17 39 17h69q20 0 25 -11t-8 -26l-377 -389l434 -541q8 -10 8 -19q0 -4 -2 -7q-6 -11 -24 -11h-72q-24 0 -37 18l-379 484l-205 -211v-260q0 -14 -8.5 -22.5t-21.5 -8.5h-62q-13 0 -22 9 t-9 22z" />
<glyph unicode="l" horiz-adv-x="333" d="M104 31v1433q0 14 9 22.5t22 8.5h62q13 0 21.5 -8.5t8.5 -22.5v-1433q0 -14 -8.5 -22.5t-21.5 -8.5h-62q-13 0 -22 9t-9 22z" />
<glyph unicode="m" horiz-adv-x="1724" d="M104 31v942q0 13 9 22t22 9h53q28 0 31 -31l8 -144v-2q62 90 149.5 144.5t196.5 54.5q119 0 202.5 -52.5t119.5 -156.5q57 94 151.5 151.5t225.5 57.5q163 0 255.5 -98.5t92.5 -294.5v-602q0 -13 -9 -22t-22 -9h-61q-14 0 -22.5 9t-8.5 22v602q0 137 -63.5 212t-180.5 75 q-68 0 -125 -20.5t-94 -52.5t-62.5 -71.5t-36.5 -76t-11 -68.5v-600q0 -13 -9 -22t-22 -9h-62q-13 0 -21.5 8.5t-8.5 22.5v602q0 137 -63.5 212t-180.5 75q-73 0 -139.5 -33t-105.5 -77t-62 -83t-23 -57v-639q0 -14 -8.5 -22.5t-21.5 -8.5h-62q-13 0 -22 9t-9 22z" />
<glyph unicode="n" horiz-adv-x="1028" d="M104 31v942q0 13 9 22t22 9h53q28 0 31 -31l8 -144v-2q62 90 149.5 144.5t196.5 54.5q165 0 258 -98.5t93 -294.5v-602q0 -13 -9 -22t-22 -9h-62q-13 0 -21.5 8.5t-8.5 22.5v602q0 137 -63.5 212t-180.5 75q-73 0 -139.5 -33t-105.5 -77t-62 -83t-23 -57v-639 q0 -14 -8.5 -22.5t-21.5 -8.5h-62q-13 0 -22 9t-9 22z" />
<glyph unicode="o" horiz-adv-x="1159" d="M74 500q0 223 145.5 374.5t360.5 151.5q141 0 256.5 -69t181 -189.5t65.5 -267.5t-65.5 -267.5t-181 -190t-256.5 -69.5t-257.5 69.5t-182.5 190.5t-66 267zM193 500q0 -180 111 -298t276 -118q164 0 275.5 118t111.5 298t-111.5 297.5t-275.5 117.5q-165 0 -276 -117.5 t-111 -297.5z" />
<glyph unicode="p" d="M104 256q0 8 2 12v705q0 13 9 22t22 9h56q27 0 30 -31l8 -139q60 90 154.5 140t214.5 50q142 0 255.5 -69.5t176 -189.5t62.5 -265q0 -222 -140 -373.5t-354 -151.5q-119 0 -213 50t-154 139l-6 -76v-446q0 -14 -8.5 -22.5t-21.5 -8.5h-62q-13 0 -22 8.5t-9 22.5v614z M217 500l4 -86q27 -141 129 -233.5t242 -92.5q166 0 274.5 117.5t108.5 296.5q0 177 -108.5 294t-274.5 117q-140 0 -242 -92t-129 -233z" />
<glyph unicode="q" d="M74 500q0 222 139.5 373t353.5 151q120 0 214.5 -50t154.5 -140l8 139q3 31 31 31h55q14 0 22.5 -9t8.5 -22v-705q2 -4 2 -12v-614q0 -14 -8.5 -22.5t-22.5 -8.5h-61q-13 0 -22 8.5t-9 22.5v446l-6 76q-60 -89 -154 -139t-213 -50q-214 0 -353.5 151.5t-139.5 373.5z M193 502q0 -179 108 -296.5t274 -117.5q140 0 242 92.5t129 233.5l4 86l-4 88q-27 141 -129 233t-242 92q-165 0 -273.5 -117t-108.5 -294z" />
<glyph unicode="r" horiz-adv-x="612" d="M104 31v942q0 13 9 22t22 9h51q28 0 31 -31l8 -84q95 137 246 137q72 0 119 -29q9 -5 9 -14q0 -7 -5 -16l-25 -52q-10 -18 -34 -12q-45 10 -80 10q-94 0 -161 -64t-67 -161v-657q0 -14 -8.5 -22.5t-21.5 -8.5h-62q-13 0 -22 9t-9 22z" />
<glyph unicode="s" horiz-adv-x="843" d="M70 180l36 41q11 13 19 11.5t22 -15.5q46 -48 123.5 -90.5t169.5 -42.5q100 0 159.5 44.5t59.5 119.5q0 47 -24.5 83.5t-64.5 59.5t-91 45.5t-104.5 40t-104.5 43t-91 55.5t-64.5 77.5t-24.5 107.5q0 115 91 190.5t227 75.5q79 0 166.5 -40.5t148.5 -111.5q16 -18 -2 -43 l-23 -28q-18 -25 -45 2q-64 59 -121 86t-131 27q-31 0 -62.5 -8t-61.5 -24.5t-49 -49t-19 -76.5q0 -49 31.5 -86t81.5 -61t111 -45.5t121.5 -47.5t110.5 -59t81.5 -87.5t31.5 -125.5q0 -119 -101 -197t-235 -78q-116 0 -212.5 48.5t-157.5 119.5q-9 11 -9 21q0 9 7 18z" />
<glyph unicode="t" horiz-adv-x="600" d="M63 928v45q0 13 8.5 22t22.5 9h144v276q0 14 8.5 22.5t21.5 8.5h62q13 0 21.5 -8.5t8.5 -22.5v-276h144q14 0 22.5 -9t8.5 -22v-45q0 -14 -8.5 -22.5t-22.5 -8.5h-144v-866q0 -14 -8.5 -22.5t-21.5 -8.5h-62q-13 0 -21.5 8.5t-8.5 22.5v866h-144q-14 0 -22.5 8.5 t-8.5 22.5z" />
<glyph unicode="u" horiz-adv-x="1017" d="M94 371v602q0 13 9 22t22 9h61q14 0 22.5 -9t8.5 -22v-602q0 -138 66 -215.5t188 -77.5q58 0 111.5 21.5t90 53.5t64.5 68.5t41 68t13 50.5v633q0 14 8.5 22.5t21.5 8.5h62q13 0 21.5 -8.5t8.5 -22.5v-942q0 -14 -8.5 -22.5t-21.5 -8.5h-54q-27 0 -30 31l-8 125 q-126 -183 -328 -183q-175 0 -272 100.5t-97 297.5z" />
<glyph unicode="v" horiz-adv-x="1013" d="M57 969q-3 9 -3 15q0 20 28 20h63q28 0 37 -25l324 -842l323 842q9 25 37 25h64q27 0 27 -20q0 -7 -3 -15l-372 -944q-9 -25 -37 -25h-76q-28 0 -37 25z" />
<glyph unicode="w" horiz-adv-x="1753" d="M57 969q-3 9 -3 15q0 20 28 20h61q28 0 37 -25l312 -846l323 846q7 17 21 20q10 5 16 5h49q7 0 17 -5q13 -3 20 -20l324 -846l311 846q9 25 37 25h59q28 0 28 -20q0 -6 -3 -15l-357 -944q-9 -25 -37 -25h-73q-28 0 -37 25l-313 815l-314 -815q-9 -25 -37 -25h-73 q-28 0 -37 25z" />
<glyph unicode="x" horiz-adv-x="894" d="M65 11q-2 4 -2 8q0 8 7 18l317 475l-303 455q-9 15 -3.5 26t23.5 11h70q22 0 37 -21l238 -371l235 371q12 21 37 21h70q19 0 25 -11t-5 -26l-305 -455l319 -475q7 -10 7 -18q0 -4 -2 -8q-6 -11 -25 -11h-70q-26 0 -37 20l-249 394l-252 -394q-14 -20 -37 -20h-70 q-19 0 -25 11z" />
<glyph unicode="y" horiz-adv-x="1013" d="M57 969q-3 9 -3 15q0 20 28 20h63q28 0 37 -25l324 -842l323 842q9 25 37 25h66q27 0 27 -20q0 -6 -3 -15l-528 -1334q-9 -24 -37 -24h-63q-37 0 -25 35l139 350z" />
<glyph unicode="z" horiz-adv-x="927" d="M63 31v55q0 24 15 39l643 772h-627q-14 0 -22.5 8.5t-8.5 22.5v45q0 13 8.5 22t22.5 9h737q13 0 22 -9t9 -22v-53q0 -25 -14 -39l-641 -772h624q13 0 22 -8.5t9 -22.5v-47q0 -13 -9 -22t-22 -9h-737q-14 0 -22.5 9t-8.5 22z" />
<glyph unicode="{" horiz-adv-x="563" d="M109 647l69 111q10 18 10 39v587q0 58 38 100t100 42h104q14 0 22.5 -9t8.5 -22v-49q0 -14 -8.5 -22.5t-22.5 -8.5h-41q-32 0 -52 -20t-20 -52v-557q0 -18 -10 -38l-55 -101q-11 -22 0 -41l55 -96q10 -18 10 -39v-555q0 -32 20 -52t52 -20h41q14 0 22.5 -8.5t8.5 -21.5 v-50q0 -13 -8.5 -21.5t-22.5 -8.5h-104q-62 0 -100 41.5t-38 99.5v586q0 24 -10 39l-67 106q-13 22 -2 41z" />
<glyph unicode="|" horiz-adv-x="378" d="M125 -358v1966q0 13 8.5 21.5t22.5 8.5h67q14 0 22.5 -8.5t8.5 -21.5v-1966q0 -14 -9 -22.5t-22 -8.5h-67q-14 0 -22.5 8.5t-8.5 22.5z" />
<glyph unicode="}" horiz-adv-x="512" d="M51 -186q0 13 8.5 21.5t22.5 8.5h41q32 0 52 20t20 52v555q0 21 10 39l55 96q11 19 0 41l-55 101q-10 20 -10 38v557q0 32 -20 52t-52 20h-41q-14 0 -22.5 8.5t-8.5 22.5v49q0 13 8.5 22t22.5 9h104q62 0 100 -42t38 -100v-587q0 -21 10 -39l69 -111q11 -19 -2 -41 l-67 -106q-10 -15 -10 -39v-586q0 -58 -38 -99.5t-100 -41.5h-104q-14 0 -22.5 8.5t-8.5 21.5v50z" />
<glyph unicode="~" horiz-adv-x="851" d="M102 557q10 73 59 113.5t118 38.5q41 1 77 -14t61.5 -36.5t49.5 -43.5t53.5 -37.5t61.5 -16.5q66 2 94 74q6 21 24 18h27q11 2 17.5 -4t5.5 -18q-17 -73 -62.5 -113.5t-105.5 -40.5q-44 0 -81.5 15t-64 37t-51 43t-54 35.5t-61.5 13.5q-71 5 -94 -70q-9 -18 -24 -23h-29 q-23 7 -21 29z" />
<glyph unicode="&#xa1;" horiz-adv-x="305" d="M131 1006q0 37 24.5 61.5t61.5 24.5q35 0 59.5 -24.5t24.5 -61.5q0 -35 -24.5 -59.5t-59.5 -24.5q-37 0 -61.5 24.5t-24.5 59.5zM137 -305l41 960q0 14 9.5 22.5t23.5 8.5h8q14 0 24 -8.5t9 -22.5l41 -960q0 -32 -23.5 -56t-54.5 -24q-30 0 -54 24t-24 56z" />
<glyph unicode="&#xa2;" horiz-adv-x="1036" d="M74 643q0 198 121.5 342.5t310.5 169.5v248q0 13 9 22t22 9h41q13 0 21.5 -8.5t8.5 -22.5v-244q207 -14 350 -174q19 -22 -2 -43l-32 -27q-22 -19 -45 -2l-23 22q-23 22 -29.5 26.5t-29 23t-38 25t-40.5 18t-52.5 16.5t-58.5 7v-815q55 4 99.5 16.5t79.5 36.5t52.5 39.5 t45.5 44.5q23 23 45 0l33 -29q21 -22 2 -41q-145 -162 -357 -176v-178q0 -14 -8.5 -22.5t-21.5 -8.5h-41q-13 0 -22 9t-9 22v182q-189 25 -310.5 169.5t-121.5 342.5zM193 643q0 -157 86 -267.5t227 -133.5v802q-141 -23 -227 -133.5t-86 -267.5z" />
<glyph unicode="&#xa3;" horiz-adv-x="1062" d="M100 31v90q29 18 61 47t66 71t56 98t22 114q0 89 -18 157h-154q-13 0 -22 9t-9 22v59q0 14 9 22.5t22 8.5h111q-6 14 -26.5 56.5t-28.5 63.5t-21 58.5t-18 74.5t-5 79q0 161 116 275t280 114q116 0 224 -56t183 -157q23 -29 -2 -61l-12 -13q-14 -17 -31 -16.5t-33 16.5 q-94 89 -165 125.5t-170 36.5q-110 0 -189.5 -71.5t-79.5 -192.5q0 -57 15.5 -108t45.5 -117.5t44 -106.5h481q14 0 22.5 -8.5t8.5 -22.5v-59q0 -13 -8.5 -22t-22.5 -9h-449q15 -84 15 -157q0 -95 -39.5 -183t-104.5 -147h644q13 0 21.5 -8.5t8.5 -22.5v-59 q0 -14 -8.5 -22.5t-21.5 -8.5h-787q-13 0 -22 9t-9 22z" />
<glyph unicode="&#xa4;" horiz-adv-x="1136" d="M111 975q0 162 100 289l-98 98l73 72l99 -99q127 99 284 99q156 0 283 -99l98 99l74 -72l-98 -98q102 -126 102 -289t-102 -289l98 -98l-74 -72l-98 98q-125 -98 -283 -98q-159 0 -284 98l-99 -98l-73 72l98 98q-100 127 -100 289zM186 975q0 -159 116 -271t267 -112 t268 112t117 271q0 158 -117 270.5t-268 112.5t-267 -112.5t-116 -270.5z" />
<glyph unicode="&#xa5;" horiz-adv-x="1138" d="M76.5 1423q5.5 11 23.5 11h72q25 0 37 -21l360 -592l361 592q12 21 37 21h71q18 0 24 -11t-3 -26l-426 -699v-22h184q13 0 22 -9t9 -22v-51q0 -14 -9 -22.5t-22 -8.5h-184v-90h184q13 0 22 -8.5t9 -22.5v-51q0 -13 -9 -22t-22 -9h-184v-329q0 -13 -8.5 -22t-22.5 -9h-65 q-13 0 -22 9t-9 22v329h-182q-14 0 -22.5 9t-8.5 22v51q0 14 8.5 22.5t22.5 8.5h182v90h-182q-14 0 -22.5 8.5t-8.5 22.5v51q0 13 8.5 22t22.5 9h182v22l-426 699q-9 15 -3.5 26z" />
<glyph unicode="&#xa6;" horiz-adv-x="378" d="M125 215q0 13 8.5 22t22.5 9h67q13 0 22 -9t9 -22v-573q0 -14 -9 -22.5t-22 -8.5h-67q-14 0 -22.5 8.5t-8.5 22.5v573zM125 1034v574q0 13 8.5 21.5t22.5 8.5h67q14 0 22.5 -8.5t8.5 -21.5v-574q0 -13 -8.5 -21.5t-22.5 -8.5h-67q-14 0 -22.5 8.5t-8.5 21.5z" />
<glyph unicode="&#xa7;" horiz-adv-x="1282" d="M86 254l25 29q18 18 29 16.5t32 -23.5q88 -94 181 -143t235 -49q152 0 241 70.5t89 197.5q0 75 -44.5 131.5t-115 92.5t-156 67t-171.5 66t-156.5 79t-115 116.5t-44.5 168.5q0 93 46.5 171.5t131.5 125.5q33 121 145 194.5t275 73.5q122 0 237.5 -53.5t196.5 -159.5 q22 -31 -2 -61l-12 -12q-32 -37 -64 0q-95 94 -169.5 133t-188.5 39q-141 0 -226.5 -63t-85.5 -179q0 -58 27.5 -105t74.5 -79t107.5 -59.5t128 -52.5t134.5 -51t127.5 -61t107.5 -78t74.5 -106t27.5 -141q0 -98 -47 -176t-131 -129q-36 -128 -160 -204.5t-290 -76.5 q-154 0 -281.5 66t-208.5 170q-24 30 -4 55zM233 1073q0 -70 40.5 -123.5t106.5 -88.5t146.5 -65.5t163.5 -63.5t155 -73t124 -104t67 -147q47 62 47 153q0 72 -40.5 126.5t-106 89.5t-145.5 65t-162.5 62.5t-153.5 71t-122.5 100.5t-65.5 143q-54 -61 -54 -146z" />
<glyph unicode="&#xa8;" horiz-adv-x="532" d="M10 1368q0 31 23 53.5t55 22.5t55 -22.5t23 -53.5t-23 -53.5t-55 -22.5t-55 22.5t-23 53.5zM367 1368q0 31 23 53.5t54 22.5q32 0 55 -22.5t23 -53.5t-23 -53.5t-55 -22.5q-31 0 -54 22.5t-23 53.5z" />
<glyph unicode="&#xa9;" horiz-adv-x="1339" d="M84 864q0 159 78.5 294t213.5 213.5t294 78.5t293.5 -78.5t212 -213t77.5 -294.5q0 -119 -46 -227.5t-124 -187t-186 -124.5t-227 -46q-159 0 -294 78t-213.5 213t-78.5 294zM195 864q0 -97 37.5 -185.5t101 -152.5t151.5 -101.5t185 -37.5q197 0 334 139t137 338 t-137 338t-334 139q-97 0 -185 -37.5t-151.5 -101.5t-101 -152.5t-37.5 -185.5zM334 864q0 150 99 250t243 100q124 0 207 -71q23 -20 0 -43l-25 -23q-18 -18 -43 -2q-64 41 -137 41q-103 0 -174.5 -72.5t-71.5 -179.5t71.5 -179.5t174.5 -72.5q70 0 137 41q25 16 43 -2 l25 -22q23 -23 0 -43q-88 -72 -207 -72q-143 0 -242.5 101t-99.5 249z" />
<glyph unicode="&#xaa;" horiz-adv-x="886" d="M74 1071q0 155 108.5 264t263.5 109q173 0 267 -117v4l20 103h78v-736h-78l-20 109l2 10q-96 -119 -269 -119q-155 0 -263.5 109t-108.5 264zM170 1071q0 -116 80.5 -197t195.5 -81q117 0 198 81t81 197t-81 197.5t-198 81.5q-115 0 -195.5 -81.5t-80.5 -197.5z" />
<glyph unicode="&#xab;" horiz-adv-x="690" d="M72 567v78q0 24 16 37l201 174q15 12 26 8t11 -24v-43q0 -23 -17 -37l-176 -154l176 -153q17 -14 17 -37v-43q0 -20 -11 -24.5t-26 7.5l-201 174q-16 13 -16 37zM365 567v78q0 24 16 37l201 174q15 12 25.5 8t10.5 -24v-43q0 -24 -16 -37l-176 -154l176 -153 q16 -13 16 -37v-43q0 -20 -10.5 -24.5t-25.5 7.5l-201 174q-16 13 -16 37z" />
<glyph unicode="&#xac;" horiz-adv-x="972" d="M102 537v47q0 13 8.5 21.5t22.5 8.5h707q14 0 22 -8t8 -22v-240q0 -14 -8.5 -22.5t-21.5 -8.5h-62q-13 0 -21.5 8.5t-8.5 22.5v162h-615q-13 0 -22 9t-9 22z" />
<glyph unicode="&#xad;" horiz-adv-x="798" d="M92 557v49q0 14 9 22.5t22 8.5h553q14 0 22.5 -8.5t8.5 -22.5v-49q0 -13 -8.5 -22t-22.5 -9h-553q-13 0 -22 9t-9 22z" />
<glyph unicode="&#xae;" horiz-adv-x="1339" d="M84 864q0 159 78.5 294t213.5 213.5t294 78.5t293.5 -78.5t212 -213t77.5 -294.5q0 -119 -46 -227.5t-124 -187t-186 -124.5t-227 -46q-159 0 -294 78t-213.5 213t-78.5 294zM195 864q0 -97 37.5 -185.5t101 -152.5t151.5 -101.5t185 -37.5q197 0 334 139t137 338 t-137 338t-334 139q-97 0 -185 -37.5t-151.5 -101.5t-101 -152.5t-37.5 -185.5zM410 573v586q0 8 5.5 13.5t12.5 5.5h279q120 0 182.5 -54.5t62.5 -148.5q0 -78 -49 -129.5t-143 -63.5l180 -202q8 -9 4 -17t-18 -8h-76q-14 0 -23 12l-184 211h-135v-205q0 -7 -6.5 -12.5 t-14.5 -5.5h-59q-8 0 -13 5.5t-5 12.5zM508 872h201q75 0 112 29.5t37 73.5q0 106 -149 106h-201v-209z" />
<glyph unicode="&#xaf;" horiz-adv-x="624" d="M10 1360v43q0 13 9 22t22 9h543q13 0 21.5 -8.5t8.5 -22.5v-43q0 -14 -8.5 -22.5t-21.5 -8.5h-543q-13 0 -22 8.5t-9 22.5z" />
<glyph unicode="&#xb0;" horiz-adv-x="800" d="M102 1176q0 123 87.5 210t211.5 87t210.5 -87t86.5 -210q0 -126 -86 -212.5t-211 -86.5t-212 86.5t-87 212.5zM199 1176q0 -89 59 -146t143 -57q82 0 142.5 57.5t60.5 145.5q0 89 -60 145.5t-143 56.5q-84 0 -143 -56t-59 -146z" />
<glyph unicode="&#xb1;" horiz-adv-x="862" d="M113 31v51q0 14 8.5 22.5t21.5 8.5h576q13 0 22 -8.5t9 -22.5v-51q0 -13 -9 -22t-22 -9h-576q-13 0 -21.5 8.5t-8.5 22.5zM133 514v51q0 13 8.5 22t22.5 9h213v211q0 13 8.5 22t22.5 9h51q13 0 21.5 -8.5t8.5 -22.5v-211h209q14 0 22.5 -9t8.5 -22v-51q0 -14 -8.5 -22.5 t-22.5 -8.5h-209v-211q0 -14 -8.5 -22t-21.5 -8h-51q-14 0 -22.5 8.5t-8.5 21.5v211h-213q-14 0 -22.5 8.5t-8.5 22.5z" />
<glyph unicode="&#xb2;" horiz-adv-x="520" d="M84 1247v29q0 72 50.5 119t121.5 47q70 0 121 -46.5t51 -107.5q0 -54 -29.5 -96.5t-109.5 -124.5l-96 -100h241v-66h-344v66l139 141q58 60 75 79t31.5 46t14.5 55q0 38 -28.5 64t-65.5 26q-39 0 -67.5 -26.5t-28.5 -75.5v-29h-76z" />
<glyph unicode="&#xb3;" horiz-adv-x="518" d="M72 1079h78q3 -51 31.5 -86t76.5 -35q46 0 78.5 28t32.5 71q0 54 -38.5 75.5t-113.5 24.5v57q66 0 97.5 23.5t31.5 62.5q0 32 -25.5 54t-62.5 22q-44 0 -69.5 -28t-26.5 -82h-76q0 78 48 126t124 48q66 0 115 -42t49 -98q0 -64 -62 -108q38 -16 62 -50.5t24 -84.5 q0 -69 -56 -116.5t-132 -47.5q-83 0 -135.5 55t-50.5 131z" />
<glyph unicode="&#xb4;" horiz-adv-x="247" d="M14 1208l123 258q11 25 35 25h37q39 0 24 -35l-122 -258q-11 -24 -35 -24h-37q-40 0 -25 34z" />
<glyph unicode="&#xb5;" horiz-adv-x="1017" d="M94 -358v1331q0 13 9 22t22 9h61q14 0 22.5 -9t8.5 -22v-602q0 -138 66 -215.5t188 -77.5q58 0 111.5 21.5t90 53.5t64.5 68.5t41 68t13 50.5v633q0 14 8.5 22.5t21.5 8.5h62q13 0 21.5 -8.5t8.5 -22.5v-942q0 -14 -8.5 -22.5t-21.5 -8.5h-54q-27 0 -30 31l-8 125 q-126 -183 -328 -183q-155 0 -246 76v-407q0 -14 -8.5 -22.5t-22.5 -8.5h-61q-13 0 -22 8.5t-9 22.5z" />
<glyph unicode="&#xb6;" horiz-adv-x="1339" d="M84 995q0 194 123.5 316.5t345.5 122.5h375q13 0 21.5 -8.5t8.5 -22.5v-1372q0 -14 -8.5 -22.5t-21.5 -8.5h-68q-14 0 -22.5 9t-8.5 22v526h-276q-222 0 -345.5 122.5t-123.5 315.5zM209 995q0 -110 47.5 -182.5t124 -103.5t180.5 -31h268v635h-268q-159 0 -255.5 -78 t-96.5 -240zM1085 31v1372q0 13 8.5 22t22.5 9h68q13 0 21.5 -8.5t8.5 -22.5v-1372q0 -14 -8.5 -22.5t-21.5 -8.5h-68q-14 0 -22.5 9t-8.5 22z" />
<glyph unicode="&#xb7;" horiz-adv-x="305" d="M72 586q0 35 24.5 59.5t61.5 24.5q35 0 59.5 -24.5t24.5 -59.5q0 -37 -24.5 -61.5t-59.5 -24.5q-37 0 -61.5 24.5t-24.5 61.5z" />
<glyph unicode="&#xb8;" horiz-adv-x="335" d="M10 -127q0 12 10 25l93 102h129l-78 -82q68 -5 115 -47.5t47 -108.5q0 -59 -27 -102t-70 -62.5t-96 -28t-104 0.5q-19 3 -19 22v50q0 20 23 20q86 -9 136 14.5t50 75.5q0 50 -55.5 71t-128.5 -5q-11 -5 -18 -0.5t-7 14.5v41z" />
<glyph unicode="&#xb9;" horiz-adv-x="311" d="M74 1362v74h131v-535h-76v461h-55z" />
<glyph unicode="&#xba;" horiz-adv-x="894" d="M74 1071q0 155 108.5 264t263.5 109t264 -109t109 -264t-109 -264t-264 -109t-263.5 109t-108.5 264zM170 1071q0 -116 80.5 -197t195.5 -81q117 0 198 81t81 197t-81 197.5t-198 81.5q-115 0 -195.5 -81.5t-80.5 -197.5z" />
<glyph unicode="&#xbb;" horiz-adv-x="690" d="M72 373v43q0 24 16 37l176 153l-176 154q-16 13 -16 37v43q0 20 11 24t26 -8l200 -174q17 -14 17 -37v-78q0 -23 -17 -37l-200 -174q-15 -12 -26 -7.5t-11 24.5zM365 373v43q0 24 16 37l176 153l-176 154q-16 13 -16 37v43q0 20 10.5 24t25.5 -8l201 -174q16 -13 16 -37 v-78q0 -24 -16 -37l-201 -174q-15 -12 -25.5 -7.5t-10.5 24.5z" />
<glyph unicode="&#xbc;" horiz-adv-x="1185" d="M68 1362v74h131v-535h-76v461h-55zM82 0l893 1434h86l-881 -1434h-98zM723 156l270 379h76v-316h55v-63h-55v-156h-76v156h-270zM850 219h143v205z" />
<glyph unicode="&#xbd;" horiz-adv-x="1134" d="M68 1362v74h131v-535h-76v461h-55zM82 0l893 1434h86l-881 -1434h-98zM723 346v29q0 72 50.5 119t121.5 47q70 0 121 -46.5t51 -107.5q0 -54 -29.5 -96.5t-109.5 -124.5l-97 -100h242v-66h-344v66l139 141q58 60 75 79t31.5 46t14.5 55q0 38 -28.5 64t-65.5 26 q-39 0 -67.5 -26.5t-28.5 -75.5v-29h-76z" />
<glyph unicode="&#xbe;" horiz-adv-x="1222" d="M61 1079h78q3 -51 32 -86t77 -35q45 0 77.5 28t32.5 71q0 55 -38 76t-113 24v57q66 0 97.5 23.5t31.5 62.5q0 32 -25.5 54t-62.5 22q-44 0 -69.5 -28t-26.5 -82h-76q0 78 48 126t124 48q66 0 115 -42t49 -98q0 -64 -62 -108q38 -16 62 -50.5t24 -84.5q0 -69 -56 -116.5 t-132 -47.5q-83 0 -136 55t-51 131zM139 0l893 1434h86l-880 -1434h-99zM760 156l270 379h76v-316h55v-63h-55v-156h-76v156h-270zM887 219h143v205z" />
<glyph unicode="&#xbf;" horiz-adv-x="968" d="M72 -23q0 272 387 426l6 254q0 13 8.5 22t22.5 9h43q28 0 28 -31l11 -299q0 -25 -27 -34q-195 -67 -278 -150t-83 -205q0 -112 81.5 -175.5t215.5 -63.5q181 0 342 145q38 33 64 0l10 -12q26 -32 2 -62q-66 -83 -180.5 -134.5t-230.5 -51.5q-187 0 -304.5 102.5 t-117.5 259.5zM428 1006q0 37 24.5 61.5t59.5 24.5q37 0 61.5 -24.5t24.5 -61.5q0 -35 -24.5 -59.5t-61.5 -24.5q-35 0 -59.5 24.5t-24.5 59.5z" />
<glyph unicode="&#xc0;" horiz-adv-x="1275" d="M57 35l506 1374q9 25 37 25h76q28 0 37 -25l506 -1374q6 -15 -1 -25t-24 -10h-66q-26 0 -34 25l-119 331h-672l-121 -331q-8 -25 -35 -25h-65q-17 0 -24 10t-1 25zM344 471h588l-293 813zM455 1825q-15 35 24 35h37q24 0 35 -25l123 -258q7 -17 0 -26t-25 -9h-37 q-23 0 -34 25z" />
<glyph unicode="&#xc1;" horiz-adv-x="1275" d="M57 35l506 1374q9 25 37 25h76q28 0 37 -25l506 -1374q6 -15 -1 -25t-24 -10h-66q-26 0 -34 25l-119 331h-672l-121 -331q-8 -25 -35 -25h-65q-17 0 -24 10t-1 25zM344 471h588l-293 813zM610 1551q-7 9 0 26l123 258q11 25 35 25h37q39 0 24 -35l-122 -258 q-11 -25 -35 -25h-37q-18 0 -25 9z" />
<glyph unicode="&#xc2;" horiz-adv-x="1275" d="M57 35l506 1374q9 25 37 25h76q28 0 37 -25l506 -1374q6 -15 -1 -25t-24 -10h-66q-26 0 -34 25l-119 331h-672l-121 -331q-8 -25 -35 -25h-65q-17 0 -24 10t-1 25zM344 471h588l-293 813zM391.5 1616.5q-4.5 10.5 7.5 25.5l174 201q14 17 37 17h78q23 0 37 -17l174 -201 q12 -15 8 -25.5t-24 -10.5h-43q-24 0 -37 16l-154 176l-153 -176q-13 -16 -37 -16h-43q-20 0 -24.5 10.5z" />
<glyph unicode="&#xc3;" horiz-adv-x="1275" d="M57 35l506 1374q9 25 37 25h76q28 0 37 -25l506 -1374q6 -15 -1 -25t-24 -10h-66q-26 0 -34 25l-119 331h-672l-121 -331q-8 -25 -35 -25h-65q-17 0 -24 10t-1 25zM344 471h588l-293 813zM358 1757q7 65 52 101t110 36q45 0 85 -21t64 -45.5t58 -45.5t68 -21q61 0 84 66 q6 18 22 18h27q20 0 20 -20q-9 -67 -53 -104.5t-100 -37.5q-48 0 -89.5 21t-66.5 46t-59 46t-68 21q-68 0 -86 -66q-6 -18 -23 -18h-26q-22 0 -19 24z" />
<glyph unicode="&#xc4;" horiz-adv-x="1275" d="M57 35l506 1374q9 25 37 25h76q28 0 37 -25l506 -1374q6 -15 -1 -25t-24 -10h-66q-26 0 -34 25l-119 331h-672l-121 -331q-8 -25 -35 -25h-65q-17 0 -24 10t-1 25zM344 471h588l-293 813zM393 1798q0 31 23 53.5t55 22.5t55 -22.5t23 -53.5t-23 -53.5t-55 -22.5t-55 22.5 t-23 53.5zM750 1798q0 31 23 53.5t54 22.5q32 0 55 -22.5t23 -53.5t-23 -53.5t-55 -22.5q-31 0 -54 22.5t-23 53.5z" />
<glyph unicode="&#xc5;" horiz-adv-x="1275" d="M57 35l506 1374q9 25 37 25h76q28 0 37 -25l506 -1374q6 -15 -1 -25t-24 -10h-66q-26 0 -34 25l-119 331h-672l-121 -331q-8 -25 -35 -25h-65q-17 0 -24 10t-1 25zM344 471h588l-293 813zM496 1741q0 62 45 106.5t110 44.5q61 0 105.5 -44.5t44.5 -106.5 q0 -61 -44.5 -105.5t-105.5 -44.5q-65 0 -110 44t-45 106zM592 1741q0 -24 16.5 -41t42.5 -17q23 0 40.5 17.5t17.5 40.5q0 24 -17 40.5t-41 16.5q-26 0 -42.5 -16t-16.5 -41z" />
<glyph unicode="&#xc6;" horiz-adv-x="1699" d="M57 35l711 1374q12 25 37 25h760q13 0 21.5 -8.5t8.5 -22.5v-60q0 -13 -8.5 -21.5t-21.5 -8.5h-594v-488h559q14 0 22.5 -8.5t8.5 -21.5v-60q0 -13 -8.5 -21.5t-22.5 -8.5h-559v-584h596q13 0 21.5 -8.5t8.5 -22.5v-59q0 -14 -8.5 -22.5t-21.5 -8.5h-695q-13 0 -21.5 8.5 t-8.5 22.5v336h-480l-176 -342q-11 -25 -34 -25h-70q-17 0 -24.5 10t-0.5 25zM422 483h420v820z" />
<glyph unicode="&#xc7;" horiz-adv-x="1368" d="M84 711q0 152 56 289t151 235.5t228.5 156.5t281.5 58q251 0 479 -190q26 -22 2 -43l-43 -43q-21 -19 -43 0q-182 151 -393 151q-160 0 -295.5 -79.5t-215 -221t-79.5 -313.5q0 -171 79.5 -312.5t215 -221t295.5 -79.5q210 0 393 152q22 19 43 0l43 -41q11 -11 10 -23 t-12 -20q-218 -181 -442 -191l-54 -57q68 -5 115 -47.5t47 -108.5q0 -59 -27 -102t-70 -62.5t-96 -28t-104 0.5q-18 3 -18 22v50q0 20 22 20q86 -9 136.5 14.5t50.5 75.5q0 50 -56 71t-129 -5q-11 -4 -17.5 -0.5t-6.5 14.5v41q0 12 10 25l74 82q-179 21 -323 122.5 t-226 261.5t-82 347z" />
<glyph unicode="&#xc8;" horiz-adv-x="983" d="M125 31v1372q0 13 8.5 22t22.5 9h692q14 0 22.5 -9t8.5 -22v-60q0 -13 -8.5 -21.5t-22.5 -8.5h-594v-488h559q14 0 22.5 -8.5t8.5 -21.5v-60q0 -13 -8.5 -21.5t-22.5 -8.5h-559v-584h596q14 0 22.5 -8.5t8.5 -22.5v-59q0 -13 -8.5 -22t-22.5 -9h-694q-14 0 -22.5 9 t-8.5 22zM309 1825q-7 17 0 26t25 9h37q24 0 35 -25l122 -258q15 -35 -24 -35h-37q-24 0 -35 25z" />
<glyph unicode="&#xc9;" horiz-adv-x="983" d="M125 31v1372q0 13 8.5 22t22.5 9h692q14 0 22.5 -9t8.5 -22v-60q0 -13 -8.5 -21.5t-22.5 -8.5h-594v-488h559q14 0 22.5 -8.5t8.5 -21.5v-60q0 -13 -8.5 -21.5t-22.5 -8.5h-559v-584h596q14 0 22.5 -8.5t8.5 -22.5v-59q0 -13 -8.5 -22t-22.5 -9h-694q-14 0 -22.5 9 t-8.5 22zM465 1577l123 258q11 25 35 25h36q18 0 25 -9t0 -26l-123 -258q-11 -25 -35 -25h-37q-39 0 -24 35z" />
<glyph unicode="&#xca;" horiz-adv-x="983" d="M125 31v1372q0 13 8.5 22t22.5 9h692q14 0 22.5 -9t8.5 -22v-60q0 -13 -8.5 -21.5t-22.5 -8.5h-594v-488h559q14 0 22.5 -8.5t8.5 -21.5v-60q0 -13 -8.5 -21.5t-22.5 -8.5h-559v-584h596q14 0 22.5 -8.5t8.5 -22.5v-59q0 -13 -8.5 -22t-22.5 -9h-694q-14 0 -22.5 9 t-8.5 22zM246 1616.5q-4 10.5 8 25.5l174 201q14 17 37 17h78q23 0 37 -17l174 -201q12 -15 7.5 -25.5t-24.5 -10.5h-43q-24 0 -37 16l-153 176l-154 -176q-13 -16 -37 -16h-43q-20 0 -24 10.5z" />
<glyph unicode="&#xcb;" horiz-adv-x="983" d="M125 31v1372q0 13 8.5 22t22.5 9h692q14 0 22.5 -9t8.5 -22v-60q0 -13 -8.5 -21.5t-22.5 -8.5h-594v-488h559q14 0 22.5 -8.5t8.5 -21.5v-60q0 -13 -8.5 -21.5t-22.5 -8.5h-559v-584h596q14 0 22.5 -8.5t8.5 -22.5v-59q0 -13 -8.5 -22t-22.5 -9h-694q-14 0 -22.5 9 t-8.5 22zM248 1798q0 31 23 53.5t55 22.5t54.5 -22.5t22.5 -53.5t-22.5 -53.5t-54.5 -22.5t-55 22.5t-23 53.5zM604 1798q0 31 23.5 53.5t54.5 22.5q32 0 55 -22.5t23 -53.5t-23 -53.5t-55 -22.5q-31 0 -54.5 22.5t-23.5 53.5z" />
<glyph unicode="&#xcc;" horiz-adv-x="378" d="M-4 1825q-15 35 24 35h37q24 0 35 -25l123 -258q7 -17 0 -26t-25 -9h-36q-24 0 -35 25zM125 31v1372q0 13 8.5 22t22.5 9h67q13 0 22 -9t9 -22v-1372q0 -13 -9 -22t-22 -9h-67q-14 0 -22.5 9t-8.5 22z" />
<glyph unicode="&#xcd;" horiz-adv-x="378" d="M125 31v1372q0 13 8.5 22t22.5 9h67q13 0 22 -9t9 -22v-1372q0 -13 -9 -22t-22 -9h-67q-14 0 -22.5 9t-8.5 22zM152 1577l122 258q11 25 35 25h37q18 0 25 -9t0 -26l-123 -258q-11 -25 -35 -25h-37q-39 0 -24 35z" />
<glyph unicode="&#xce;" horiz-adv-x="378" d="M-67 1616.5q-4 10.5 8 25.5l174 201q14 17 37 17h77q23 0 37 -17l174 -201q12 -15 8 -25.5t-24 -10.5h-43q-24 0 -37 16l-154 176l-153 -176q-13 -16 -37 -16h-43q-20 0 -24 10.5zM125 31v1372q0 13 8.5 22t22.5 9h67q13 0 22 -9t9 -22v-1372q0 -13 -9 -22t-22 -9h-67 q-14 0 -22.5 9t-8.5 22z" />
<glyph unicode="&#xcf;" horiz-adv-x="378" d="M-66 1798q0 31 23 53.5t55 22.5t55 -22.5t23 -53.5t-23 -53.5t-55 -22.5t-55 22.5t-23 53.5zM125 31v1372q0 13 8.5 22t22.5 9h67q13 0 22 -9t9 -22v-1372q0 -13 -9 -22t-22 -9h-67q-14 0 -22.5 9t-8.5 22zM291 1798q0 31 23.5 53.5t54.5 22.5q32 0 54.5 -22.5 t22.5 -53.5t-22.5 -53.5t-54.5 -22.5q-31 0 -54.5 22.5t-23.5 53.5z" />
<glyph unicode="&#xd0;" horiz-adv-x="1296" d="M31 698v43q0 14 8.5 22.5t21.5 8.5h80v631q0 13 8.5 22t22.5 9h301q183 0 327.5 -54.5t236 -151.5t139 -226.5t47.5 -284.5t-47.5 -284.5t-139 -226.5t-236 -151.5t-327.5 -54.5h-301q-14 0 -22.5 9t-8.5 22v637h-80q-13 0 -21.5 8t-8.5 22zM270 121h203q305 0 462 157.5 t157 438.5t-157 438.5t-462 157.5h-203v-541h334q14 0 22.5 -9t8.5 -22v-43q0 -13 -8.5 -21.5t-22.5 -8.5h-334v-547z" />
<glyph unicode="&#xd1;" horiz-adv-x="1284" d="M125 31v1372q0 27 25 31h106q25 0 37 -21l737 -1237v1227q0 13 9 22t22 9h67q14 0 22.5 -9t8.5 -22v-1372q0 -12 -7 -21t-17 -10h-107q-26 0 -37 20l-737 1237v-1226q0 -13 -9 -22t-22 -9h-67q-14 0 -22.5 9t-8.5 22zM350 1757q7 65 52 101t110 36q45 0 85 -21t64 -45.5 t57.5 -45.5t67.5 -21q61 0 84 66q6 18 23 18h27q20 0 20 -20q-9 -67 -53.5 -104.5t-100.5 -37.5q-40 0 -74 14t-58 33.5t-46.5 39t-49 33.5t-54.5 14q-68 0 -86 -66q-6 -18 -23 -18h-26q-22 0 -19 24z" />
<glyph unicode="&#xd2;" horiz-adv-x="1630" d="M84 711q0 152 58 289t156 235.5t233.5 156.5t285.5 58q149 0 283.5 -58t232.5 -156.5t155.5 -235.5t57.5 -289q0 -151 -57.5 -288t-155.5 -235.5t-232.5 -156.5t-283.5 -58q-150 0 -285.5 58t-233.5 156.5t-156 235.5t-58 288zM207 711q0 -170 80.5 -312t221 -224.5 t308.5 -82.5q166 0 305.5 82.5t220 225t80.5 311.5q0 171 -80.5 314t-220 225.5t-305.5 82.5q-168 0 -308.5 -82.5t-221 -225.5t-80.5 -314zM623 1825q-15 35 24 35h37q24 0 35 -25l123 -258q7 -17 0 -26t-25 -9h-37q-24 0 -35 25z" />
<glyph unicode="&#xd3;" horiz-adv-x="1630" d="M84 711q0 152 58 289t156 235.5t233.5 156.5t285.5 58q149 0 283.5 -58t232.5 -156.5t155.5 -235.5t57.5 -289q0 -151 -57.5 -288t-155.5 -235.5t-232.5 -156.5t-283.5 -58q-150 0 -285.5 58t-233.5 156.5t-156 235.5t-58 288zM207 711q0 -170 80.5 -312t221 -224.5 t308.5 -82.5q166 0 305.5 82.5t220 225t80.5 311.5q0 171 -80.5 314t-220 225.5t-305.5 82.5q-168 0 -308.5 -82.5t-221 -225.5t-80.5 -314zM778 1551q-7 9 0 26l123 258q11 25 35 25h37q39 0 24 -35l-123 -258q-11 -25 -34 -25h-37q-18 0 -25 9z" />
<glyph unicode="&#xd4;" horiz-adv-x="1630" d="M84 711q0 152 58 289t156 235.5t233.5 156.5t285.5 58q149 0 283.5 -58t232.5 -156.5t155.5 -235.5t57.5 -289q0 -151 -57.5 -288t-155.5 -235.5t-232.5 -156.5t-283.5 -58q-150 0 -285.5 58t-233.5 156.5t-156 235.5t-58 288zM207 711q0 -170 80.5 -312t221 -224.5 t308.5 -82.5q166 0 305.5 82.5t220 225t80.5 311.5q0 171 -80.5 314t-220 225.5t-305.5 82.5q-168 0 -308.5 -82.5t-221 -225.5t-80.5 -314zM559.5 1616.5q-4.5 10.5 7.5 25.5l174 201q14 17 37 17h78q23 0 37 -17l174 -201q12 -15 8 -25.5t-24 -10.5h-43q-24 0 -37 16 l-154 176l-153 -176q-13 -16 -37 -16h-43q-20 0 -24.5 10.5z" />
<glyph unicode="&#xd5;" horiz-adv-x="1630" d="M84 711q0 152 58 289t156 235.5t233.5 156.5t285.5 58q149 0 283.5 -58t232.5 -156.5t155.5 -235.5t57.5 -289q0 -151 -57.5 -288t-155.5 -235.5t-232.5 -156.5t-283.5 -58q-150 0 -285.5 58t-233.5 156.5t-156 235.5t-58 288zM207 711q0 -170 80.5 -312t221 -224.5 t308.5 -82.5q166 0 305.5 82.5t220 225t80.5 311.5q0 171 -80.5 314t-220 225.5t-305.5 82.5q-168 0 -308.5 -82.5t-221 -225.5t-80.5 -314zM526 1757q7 65 52 101t110 36q45 0 85 -21t64 -45.5t58 -45.5t68 -21q61 0 84 66q6 18 22 18h27q20 0 20 -20q-9 -67 -53 -104.5 t-100 -37.5q-48 0 -89.5 21t-66.5 46t-59 46t-68 21q-68 0 -86 -66q-6 -18 -23 -18h-26q-22 0 -19 24z" />
<glyph unicode="&#xd6;" horiz-adv-x="1630" d="M84 711q0 152 58 289t156 235.5t233.5 156.5t285.5 58q149 0 283.5 -58t232.5 -156.5t155.5 -235.5t57.5 -289q0 -151 -57.5 -288t-155.5 -235.5t-232.5 -156.5t-283.5 -58q-150 0 -285.5 58t-233.5 156.5t-156 235.5t-58 288zM207 711q0 -170 80.5 -312t221 -224.5 t308.5 -82.5q166 0 305.5 82.5t220 225t80.5 311.5q0 171 -80.5 314t-220 225.5t-305.5 82.5q-168 0 -308.5 -82.5t-221 -225.5t-80.5 -314zM561 1798q0 31 23 53.5t55 22.5t55 -22.5t23 -53.5t-23 -53.5t-55 -22.5t-55 22.5t-23 53.5zM918 1798q0 31 23 53.5t54 22.5 q32 0 55 -22.5t23 -53.5t-23 -53.5t-55 -22.5q-31 0 -54 22.5t-23 53.5z" />
<glyph unicode="&#xd7;" horiz-adv-x="702" d="M114 408.5q0 12.5 9 21.5l149 150l-151 151q-20 20 0 43l37 35q23 23 43 0l151 -150l150 150q9 9 21.5 9t21.5 -9l37 -37q9 -9 9 -21.5t-9 -21.5l-150 -149l148 -148q20 -23 0 -43l-37 -37q-9 -9 -21.5 -9t-21.5 9l-148 148l-149 -150q-9 -9 -21.5 -9t-21.5 9l-37 37 q-9 9 -9 21.5z" />
<glyph unicode="&#xd8;" horiz-adv-x="1630" d="M84 711q0 152 58 289t156 235.5t233.5 156.5t285.5 58q126 0 250 -43l43 96q9 23 35 23h57q17 0 23.5 -10t-0.5 -27l-58 -129q172 -96 275.5 -268.5t103.5 -380.5q0 -151 -57.5 -288t-155.5 -235.5t-232.5 -156.5t-283.5 -58q-134 0 -250 43l-43 -96q-8 -22 -35 -22h-57 q-17 0 -23 9.5t1 26.5l57 127q-175 95 -279 268.5t-104 381.5zM207 711q0 -173 84 -316.5t225 -222.5l502 1126q-93 35 -201 35q-168 0 -308.5 -82.5t-221 -225.5t-80.5 -314zM616 125q101 -33 201 -33q166 0 305.5 82.5t220 225t80.5 311.5q0 173 -82.5 317t-222.5 225z " />
<glyph unicode="&#xd9;" horiz-adv-x="1243" d="M115 555v848q0 14 8.5 22.5t21.5 8.5h68q13 0 22 -9t9 -22v-848q0 -229 105 -347t274 -118q167 0 271.5 118t104.5 347v848q0 13 8.5 22t22.5 9h68q13 0 21.5 -8.5t8.5 -22.5v-848q0 -280 -139.5 -431t-365.5 -151q-228 0 -368 151t-140 431zM428 1825q-7 17 0 26t25 9 h36q24 0 35 -25l123 -258q15 -35 -24 -35h-37q-24 0 -35 25z" />
<glyph unicode="&#xda;" horiz-adv-x="1243" d="M115 555v848q0 14 8.5 22.5t21.5 8.5h68q13 0 22 -9t9 -22v-848q0 -229 105 -347t274 -118q167 0 271.5 118t104.5 347v848q0 13 8.5 22t22.5 9h68q13 0 21.5 -8.5t8.5 -22.5v-848q0 -280 -139.5 -431t-365.5 -151q-228 0 -368 151t-140 431zM584 1577l123 258 q11 25 34 25h37q18 0 25 -9t0 -26l-123 -258q-11 -25 -35 -25h-37q-39 0 -24 35z" />
<glyph unicode="&#xdb;" horiz-adv-x="1243" d="M115 555v848q0 14 8.5 22.5t21.5 8.5h68q13 0 22 -9t9 -22v-848q0 -229 105 -347t274 -118q167 0 271.5 118t104.5 347v848q0 13 8.5 22t22.5 9h68q13 0 21.5 -8.5t8.5 -22.5v-848q0 -280 -139.5 -431t-365.5 -151q-228 0 -368 151t-140 431zM365 1616.5q-4 10.5 8 25.5 l174 201q14 17 37 17h78q22 0 36 -17l174 -201q12 -15 8 -25.5t-24 -10.5h-43q-24 0 -37 16l-153 176l-154 -176q-13 -16 -37 -16h-43q-20 0 -24 10.5z" />
<glyph unicode="&#xdc;" horiz-adv-x="1243" d="M115 555v848q0 14 8.5 22.5t21.5 8.5h68q13 0 22 -9t9 -22v-848q0 -229 105 -347t274 -118q167 0 271.5 118t104.5 347v848q0 13 8.5 22t22.5 9h68q13 0 21.5 -8.5t8.5 -22.5v-848q0 -280 -139.5 -431t-365.5 -151q-228 0 -368 151t-140 431zM367 1798q0 31 22.5 53.5 t54.5 22.5t55 -22.5t23 -53.5t-23 -53.5t-55 -22.5t-54.5 22.5t-22.5 53.5zM723 1798q0 31 23.5 53.5t54.5 22.5q32 0 55 -22.5t23 -53.5t-23 -53.5t-55 -22.5q-31 0 -54.5 22.5t-23.5 53.5z" />
<glyph unicode="&#xdd;" horiz-adv-x="1138" d="M76.5 1423q5.5 11 23.5 11h72q25 0 37 -21l360 -592l361 592q12 21 37 21h71q18 0 24 -11t-3 -26l-426 -699v-667q0 -13 -8.5 -22t-22.5 -9h-65q-13 0 -22 9t-9 22v667l-426 699q-9 15 -3.5 26zM530 1551q-7 9 0 26l123 258q11 25 35 25h37q18 0 25 -9t0 -26l-123 -258 q-11 -25 -35 -25h-37q-18 0 -25 9z" />
<glyph unicode="&#xde;" horiz-adv-x="1083" d="M125 31v1372q0 13 8.5 22t22.5 9h67q13 0 22 -9t9 -22v-248h305q222 0 341.5 -122.5t119.5 -315.5t-119.5 -315.5t-341.5 -122.5h-305v-248q0 -13 -9 -22t-22 -9h-67q-14 0 -22.5 9t-8.5 22zM254 399h293q159 0 253.5 77.5t94.5 240.5t-94 240t-254 77h-293v-635z" />
<glyph unicode="&#xdf;" horiz-adv-x="1148" d="M125 31v1048q0 160 107.5 257.5t318.5 97.5q212 0 332.5 -91.5t120.5 -246.5q0 -110 -62.5 -191.5t-185.5 -120.5q162 -33 245.5 -131.5t83.5 -242.5q0 -211 -139 -310.5t-426 -99.5h-133q-13 0 -22 9t-9 22v49q0 14 9 22.5t22 8.5h133q232 0 339.5 67.5t107.5 235.5 q0 150 -116 228.5t-323 78.5h-141q-13 0 -22 8.5t-9 22.5v49q0 13 8.5 21.5t22.5 8.5h141q165 0 261 69.5t96 203.5q0 109 -85 167t-249 58q-89 0 -150.5 -19t-93.5 -55t-45.5 -78.5t-13.5 -97.5v-1048q0 -13 -9 -22t-22 -9h-61q-14 0 -22.5 9t-8.5 22z" />
<glyph unicode="&#xe0;" d="M74 500q0 222 139.5 373t353.5 151q120 0 214.5 -50t154.5 -140l8 139q3 31 31 31h55q14 0 22.5 -9t8.5 -22v-942q0 -13 -8.5 -22t-22.5 -9h-55q-28 0 -31 31l-10 133q-60 -89 -154 -139t-213 -50q-214 0 -353.5 151.5t-139.5 373.5zM193 502q0 -179 108 -296.5 t274 -117.5q140 0 242 92.5t129 233.5l4 86l-4 88q-27 141 -129 233t-242 92q-165 0 -273.5 -117t-108.5 -294zM385 1395q-7 17 0 26t25 9h36q24 0 35 -25l123 -258q15 -35 -24 -35h-37q-24 0 -35 25z" />
<glyph unicode="&#xe1;" d="M74 500q0 222 139.5 373t353.5 151q120 0 214.5 -50t154.5 -140l8 139q3 31 31 31h55q14 0 22.5 -9t8.5 -22v-942q0 -13 -8.5 -22t-22.5 -9h-55q-28 0 -31 31l-10 133q-60 -89 -154 -139t-213 -50q-214 0 -353.5 151.5t-139.5 373.5zM193 502q0 -179 108 -296.5 t274 -117.5q140 0 242 92.5t129 233.5l4 86l-4 88q-27 141 -129 233t-242 92q-165 0 -273.5 -117t-108.5 -294zM541 1147l123 258q11 25 34 25h37q18 0 25 -9t0 -26l-123 -258q-11 -25 -35 -25h-37q-39 0 -24 35z" />
<glyph unicode="&#xe2;" d="M74 500q0 222 139.5 373t353.5 151q120 0 214.5 -50t154.5 -140l8 139q3 31 31 31h55q14 0 22.5 -9t8.5 -22v-942q0 -13 -8.5 -22t-22.5 -9h-55q-28 0 -31 31l-10 133q-60 -89 -154 -139t-213 -50q-214 0 -353.5 151.5t-139.5 373.5zM193 502q0 -179 108 -296.5 t274 -117.5q140 0 242 92.5t129 233.5l4 86l-4 88q-27 141 -129 233t-242 92q-165 0 -273.5 -117t-108.5 -294zM322 1186.5q-4 10.5 8 25.5l174 201q14 17 37 17h77q23 0 37 -17l174 -201q12 -15 8 -25.5t-24 -10.5h-43q-24 0 -37 16l-153 176l-154 -176q-13 -16 -37 -16 h-43q-20 0 -24 10.5z" />
<glyph unicode="&#xe3;" d="M74 500q0 222 139.5 373t353.5 151q120 0 214.5 -50t154.5 -140l8 139q3 31 31 31h55q14 0 22.5 -9t8.5 -22v-942q0 -13 -8.5 -22t-22.5 -9h-55q-28 0 -31 31l-10 133q-60 -89 -154 -139t-213 -50q-214 0 -353.5 151.5t-139.5 373.5zM193 502q0 -179 108 -296.5 t274 -117.5q140 0 242 92.5t129 233.5l4 86l-4 88q-27 141 -129 233t-242 92q-165 0 -273.5 -117t-108.5 -294zM289 1327q7 65 52 101t110 36q45 0 85 -21t64 -45.5t57.5 -45.5t67.5 -21q61 0 84 66q6 18 22 18h27q21 0 21 -20q-9 -67 -53.5 -104.5t-100.5 -37.5 q-48 0 -89.5 21t-66.5 45.5t-59 45.5t-68 21q-68 0 -86 -65q-6 -18 -22 -18h-27q-21 0 -18 24z" />
<glyph unicode="&#xe4;" d="M74 500q0 222 139.5 373t353.5 151q120 0 214.5 -50t154.5 -140l8 139q3 31 31 31h55q14 0 22.5 -9t8.5 -22v-942q0 -13 -8.5 -22t-22.5 -9h-55q-28 0 -31 31l-10 133q-60 -89 -154 -139t-213 -50q-214 0 -353.5 151.5t-139.5 373.5zM193 502q0 -179 108 -296.5 t274 -117.5q140 0 242 92.5t129 233.5l4 86l-4 88q-27 141 -129 233t-242 92q-165 0 -273.5 -117t-108.5 -294zM324 1368q0 31 22.5 53.5t54.5 22.5t55 -22.5t23 -53.5t-23 -53.5t-55 -22.5t-54.5 22.5t-22.5 53.5zM680 1368q0 31 23.5 53.5t54.5 22.5q32 0 55 -22.5 t23 -53.5t-23 -53.5t-55 -22.5q-31 0 -54.5 22.5t-23.5 53.5z" />
<glyph unicode="&#xe5;" d="M74 500q0 222 139.5 373t353.5 151q120 0 214.5 -50t154.5 -140l8 139q3 31 31 31h55q14 0 22.5 -9t8.5 -22v-942q0 -13 -8.5 -22t-22.5 -9h-55q-28 0 -31 31l-10 133q-60 -89 -154 -139t-213 -50q-214 0 -353.5 151.5t-139.5 373.5zM193 502q0 -179 108 -296.5 t274 -117.5q140 0 242 92.5t129 233.5l4 86l-4 88q-27 141 -129 233t-242 92q-165 0 -273.5 -117t-108.5 -294zM426 1311q0 62 45.5 106.5t110.5 44.5q61 0 105 -44.5t44 -106.5t-44 -106t-105 -44q-66 0 -111 44t-45 106zM522 1311q0 -24 17 -41t43 -17q23 0 40 17.5 t17 40.5q0 24 -16.5 40.5t-40.5 16.5q-26 0 -43 -16t-17 -41z" />
<glyph unicode="&#xe6;" horiz-adv-x="1984" d="M74 500q0 222 139.5 373t353.5 151q120 0 214.5 -50t154.5 -140l8 139q3 31 31 31h55q14 0 22.5 -9t8.5 -22v-133q66 88 164.5 137t216.5 49q139 0 247.5 -68.5t165 -178t56.5 -236.5q0 -53 -11.5 -75t-46.5 -22h-780q18 -157 125 -259.5t272 -102.5q169 0 289 109 q25 22 43 6l27 -25q25 -24 2 -47q-148 -154 -375 -154q-122 0 -224 50.5t-171 140.5v-133q0 -13 -8.5 -22t-22.5 -9h-55q-28 0 -31 31l-10 133q-60 -89 -154 -139t-213 -50q-214 0 -353.5 151.5t-139.5 373.5zM193 502q0 -179 108 -296.5t274 -117.5q140 0 242 92.5 t129 233.5l4 86l-4 88q-27 141 -129 233t-242 92q-165 0 -273.5 -117t-108.5 -294zM1073 549h729q-3 153 -105 259.5t-257 106.5q-152 0 -252.5 -103.5t-114.5 -262.5z" />
<glyph unicode="&#xe7;" horiz-adv-x="1114" d="M74 500q0 223 143 374.5t358 151.5q229 0 383 -178q19 -22 -2 -43l-32 -27q-22 -22 -45 -2q-2 2 -22.5 21t-26 24.5t-27 22.5t-34 23t-37 18t-45.5 16.5t-50.5 9t-61.5 4.5q-168 0 -275 -117.5t-107 -297.5t107 -298t275 -118q63 0 113.5 12t89 37t57.5 41.5t50 48.5 q23 23 45 0l33 -28q21 -21 2 -43q-127 -146 -306 -172l-59 -62q68 -5 115 -47.5t47 -108.5q0 -59 -27 -102t-70 -62.5t-96 -28t-104 0.5q-19 3 -19 22v50q0 20 23 20q86 -9 136 14.5t50 75.5q0 50 -55.5 71t-128.5 -5q-11 -5 -18 -0.5t-7 14.5v41q0 10 11 25l69 77 q-198 19 -325 167t-127 358z" />
<glyph unicode="&#xe8;" horiz-adv-x="1105" d="M74 500q0 224 137.5 375t351.5 151q139 0 247.5 -68.5t165 -178t56.5 -236.5q0 -53 -11 -75t-46 -22h-780q18 -157 125 -259.5t272 -102.5q169 0 289 109q25 22 43 6l26 -25q24 -24 2 -47q-148 -154 -374 -154q-145 0 -260.5 70t-179.5 190.5t-64 266.5zM195 549h729 q-3 152 -105.5 259t-257.5 107q-152 0 -252 -103.5t-114 -262.5zM358 1395q-7 17 0 26t25 9h37q24 0 35 -25l123 -258q7 -17 0 -26t-25 -9h-37q-24 0 -35 25z" />
<glyph unicode="&#xe9;" horiz-adv-x="1105" d="M74 500q0 224 137.5 375t351.5 151q139 0 247.5 -68.5t165 -178t56.5 -236.5q0 -53 -11 -75t-46 -22h-780q18 -157 125 -259.5t272 -102.5q169 0 289 109q25 22 43 6l26 -25q24 -24 2 -47q-148 -154 -374 -154q-145 0 -260.5 70t-179.5 190.5t-64 266.5zM195 549h729 q-3 152 -105.5 259t-257.5 107q-152 0 -252 -103.5t-114 -262.5zM514 1121q-7 9 0 26l123 258q11 25 35 25h37q39 0 24 -35l-123 -258q-11 -25 -35 -25h-36q-18 0 -25 9z" />
<glyph unicode="&#xea;" horiz-adv-x="1105" d="M74 500q0 224 137.5 375t351.5 151q139 0 247.5 -68.5t165 -178t56.5 -236.5q0 -53 -11 -75t-46 -22h-780q18 -157 125 -259.5t272 -102.5q169 0 289 109q25 22 43 6l26 -25q24 -24 2 -47q-148 -154 -374 -154q-145 0 -260.5 70t-179.5 190.5t-64 266.5zM195 549h729 q-3 152 -105.5 259t-257.5 107q-152 0 -252 -103.5t-114 -262.5zM295 1186.5q-4 10.5 8 25.5l174 201q14 17 37 17h78q23 0 37 -17l174 -201q12 -15 7.5 -25.5t-24.5 -10.5h-43q-23 0 -36 16l-154 176l-154 -176q-13 -16 -37 -16h-43q-20 0 -24 10.5z" />
<glyph unicode="&#xeb;" horiz-adv-x="1105" d="M74 500q0 224 137.5 375t351.5 151q139 0 247.5 -68.5t165 -178t56.5 -236.5q0 -53 -11 -75t-46 -22h-780q18 -157 125 -259.5t272 -102.5q169 0 289 109q25 22 43 6l26 -25q24 -24 2 -47q-148 -154 -374 -154q-145 0 -260.5 70t-179.5 190.5t-64 266.5zM195 549h729 q-3 152 -105.5 259t-257.5 107q-152 0 -252 -103.5t-114 -262.5zM297 1368q0 31 23 53.5t55 22.5t55 -22.5t23 -53.5t-23 -53.5t-55 -22.5t-55 22.5t-23 53.5zM653 1368q0 31 23.5 53.5t54.5 22.5q32 0 55 -22.5t23 -53.5t-23 -53.5t-55 -22.5q-31 0 -54.5 22.5t-23.5 53.5z " />
<glyph unicode="&#xec;" horiz-adv-x="333" d="M-27 1395q-7 17 0 26t25 9h37q24 0 35 -25l123 -258q7 -17 0 -26t-25 -9h-37q-24 0 -35 25zM104 31v942q0 13 9 22t22 9h62q13 0 21.5 -8.5t8.5 -22.5v-942q0 -14 -8.5 -22.5t-21.5 -8.5h-62q-13 0 -22 9t-9 22z" />
<glyph unicode="&#xed;" horiz-adv-x="333" d="M104 31v942q0 13 9 22t22 9h62q13 0 21.5 -8.5t8.5 -22.5v-942q0 -14 -8.5 -22.5t-21.5 -8.5h-62q-13 0 -22 9t-9 22zM129 1121q-7 9 0 26l123 258q11 25 35 25h37q39 0 24 -35l-123 -258q-11 -25 -35 -25h-36q-18 0 -25 9z" />
<glyph unicode="&#xee;" horiz-adv-x="333" d="M-90 1186.5q-4 10.5 8 25.5l174 201q14 17 37 17h78q23 0 37 -17l174 -201q12 -15 7.5 -25.5t-24.5 -10.5h-43q-23 0 -36 16l-154 176l-154 -176q-13 -16 -37 -16h-43q-20 0 -24 10.5zM104 31v942q0 13 9 22t22 9h62q13 0 21.5 -8.5t8.5 -22.5v-942q0 -14 -8.5 -22.5 t-21.5 -8.5h-62q-13 0 -22 9t-9 22z" />
<glyph unicode="&#xef;" horiz-adv-x="333" d="M-88 1368q0 31 23 53.5t55 22.5t55 -22.5t23 -53.5t-23 -53.5t-55 -22.5t-55 22.5t-23 53.5zM104 31v942q0 13 9 22t22 9h62q13 0 21.5 -8.5t8.5 -22.5v-942q0 -14 -8.5 -22.5t-21.5 -8.5h-62q-13 0 -22 9t-9 22zM268 1368q0 31 23.5 53.5t54.5 22.5q32 0 55 -22.5 t23 -53.5t-23 -53.5t-55 -22.5q-31 0 -54.5 22.5t-23.5 53.5z" />
<glyph unicode="&#xf0;" d="M74 500q0 222 139.5 373t353.5 151q120 0 214.5 -50t154.5 -140l2 26v287l-184 -27q-33 -3 -33 29v41q0 30 29 33l188 28v213q0 14 9 22.5t22 8.5h61q14 0 22.5 -8.5t8.5 -22.5v-196l63 10q33 3 33 -29v-41q0 -29 -29 -32l-67 -11v-1134q0 -13 -8.5 -22t-22.5 -9h-55 q-28 0 -31 31l-10 133q-60 -89 -154 -139t-213 -50q-214 0 -353.5 151.5t-139.5 373.5zM193 502q0 -179 108 -296.5t274 -117.5q140 0 242 92.5t129 233.5l4 86l-4 88q-27 141 -129 233t-242 92q-165 0 -273.5 -117t-108.5 -294z" />
<glyph unicode="&#xf1;" horiz-adv-x="1028" d="M104 31v942q0 13 9 22t22 9h53q28 0 31 -31l8 -144v-2q62 90 149.5 144.5t196.5 54.5q165 0 258 -98.5t93 -294.5v-602q0 -13 -9 -22t-22 -9h-62q-13 0 -21.5 8.5t-8.5 22.5v602q0 137 -63.5 212t-180.5 75q-73 0 -139.5 -33t-105.5 -77t-62 -83t-23 -57v-639 q0 -14 -8.5 -22.5t-21.5 -8.5h-62q-13 0 -22 9t-9 22zM225 1327q7 65 52 101t110 36q45 0 85 -21t64 -45.5t58 -45.5t68 -21q60 0 83 66q6 18 23 18h27q20 0 20 -20q-9 -67 -53 -104.5t-100 -37.5q-48 0 -89.5 21t-66.5 45.5t-59 45.5t-68 21q-68 0 -86 -65q-6 -18 -23 -18 h-26q-22 0 -19 24z" />
<glyph unicode="&#xf2;" horiz-adv-x="1159" d="M74 500q0 223 145.5 374.5t360.5 151.5q141 0 256.5 -69t181 -189.5t65.5 -267.5t-65.5 -267.5t-181 -190t-256.5 -69.5t-257.5 69.5t-182.5 190.5t-66 267zM193 500q0 -180 111 -298t276 -118q164 0 275.5 118t111.5 298t-111.5 297.5t-275.5 117.5q-165 0 -276 -117.5 t-111 -297.5zM385 1395q-7 17 0 26t25 9h36q24 0 35 -25l123 -258q15 -35 -24 -35h-37q-24 0 -35 25z" />
<glyph unicode="&#xf3;" horiz-adv-x="1159" d="M74 500q0 223 145.5 374.5t360.5 151.5q141 0 256.5 -69t181 -189.5t65.5 -267.5t-65.5 -267.5t-181 -190t-256.5 -69.5t-257.5 69.5t-182.5 190.5t-66 267zM193 500q0 -180 111 -298t276 -118q164 0 275.5 118t111.5 298t-111.5 297.5t-275.5 117.5q-165 0 -276 -117.5 t-111 -297.5zM541 1147l123 258q11 25 34 25h37q18 0 25 -9t0 -26l-123 -258q-11 -25 -35 -25h-37q-39 0 -24 35z" />
<glyph unicode="&#xf4;" horiz-adv-x="1159" d="M74 500q0 223 145.5 374.5t360.5 151.5q141 0 256.5 -69t181 -189.5t65.5 -267.5t-65.5 -267.5t-181 -190t-256.5 -69.5t-257.5 69.5t-182.5 190.5t-66 267zM193 500q0 -180 111 -298t276 -118q164 0 275.5 118t111.5 298t-111.5 297.5t-275.5 117.5q-165 0 -276 -117.5 t-111 -297.5zM322 1186.5q-4 10.5 8 25.5l174 201q14 17 37 17h77q23 0 37 -17l174 -201q12 -15 8 -25.5t-24 -10.5h-43q-24 0 -37 16l-153 176l-154 -176q-13 -16 -37 -16h-43q-20 0 -24 10.5z" />
<glyph unicode="&#xf5;" horiz-adv-x="1159" d="M74 500q0 223 145.5 374.5t360.5 151.5q141 0 256.5 -69t181 -189.5t65.5 -267.5t-65.5 -267.5t-181 -190t-256.5 -69.5t-257.5 69.5t-182.5 190.5t-66 267zM193 500q0 -180 111 -298t276 -118q164 0 275.5 118t111.5 298t-111.5 297.5t-275.5 117.5q-165 0 -276 -117.5 t-111 -297.5zM289 1327q7 65 52 101t110 36q45 0 85 -21t64 -45.5t57.5 -45.5t67.5 -21q61 0 84 66q6 18 22 18h27q21 0 21 -20q-9 -67 -53.5 -104.5t-100.5 -37.5q-48 0 -89.5 21t-66.5 45.5t-59 45.5t-68 21q-68 0 -86 -65q-6 -18 -22 -18h-27q-21 0 -18 24z" />
<glyph unicode="&#xf6;" horiz-adv-x="1159" d="M74 500q0 223 145.5 374.5t360.5 151.5q141 0 256.5 -69t181 -189.5t65.5 -267.5t-65.5 -267.5t-181 -190t-256.5 -69.5t-257.5 69.5t-182.5 190.5t-66 267zM193 500q0 -180 111 -298t276 -118q164 0 275.5 118t111.5 298t-111.5 297.5t-275.5 117.5q-165 0 -276 -117.5 t-111 -297.5zM324 1368q0 31 22.5 53.5t54.5 22.5t55 -22.5t23 -53.5t-23 -53.5t-55 -22.5t-54.5 22.5t-22.5 53.5zM680 1368q0 31 23.5 53.5t54.5 22.5q32 0 55 -22.5t23 -53.5t-23 -53.5t-55 -22.5q-31 0 -54.5 22.5t-23.5 53.5z" />
<glyph unicode="&#xf7;" horiz-adv-x="862" d="M113 555v51q0 14 8.5 22.5t21.5 8.5h576q13 0 22 -8.5t9 -22.5v-51q0 -13 -9 -22t-22 -9h-576q-13 0 -21.5 8.5t-8.5 22.5zM348 291q0 35 24.5 59.5t61.5 24.5q35 0 59.5 -24.5t24.5 -59.5q0 -37 -24.5 -61.5t-59.5 -24.5q-37 0 -61.5 24.5t-24.5 61.5zM348 840 q0 35 24.5 59.5t61.5 24.5q35 0 59.5 -24.5t24.5 -59.5q0 -37 -24.5 -61.5t-59.5 -24.5q-37 0 -61.5 24.5t-24.5 61.5z" />
<glyph unicode="&#xf8;" horiz-adv-x="1159" d="M74 500q0 223 145.5 374.5t360.5 151.5q85 0 170 -29l55 123q10 23 35 23h53q17 0 23 -10t-1 -27l-71 -156q111 -69 175 -187.5t64 -262.5q0 -147 -65.5 -267.5t-181 -190t-256.5 -69.5q-85 0 -170 29l-56 -123q-9 -22 -35 -22h-51q-17 0 -23 10t1 27l69 153 q-112 68 -176.5 187.5t-64.5 265.5zM193 500q0 -112 45 -202.5t124 -147.5l340 745q-56 20 -122 20q-165 0 -276 -117.5t-111 -297.5zM457 104q56 -20 123 -20q164 0 275.5 118t111.5 298q0 112 -45 202.5t-125 145.5z" />
<glyph unicode="&#xf9;" horiz-adv-x="1017" d="M94 371v602q0 13 9 22t22 9h61q14 0 22.5 -9t8.5 -22v-602q0 -138 66 -215.5t188 -77.5q58 0 111.5 21.5t90 53.5t64.5 68.5t41 68t13 50.5v633q0 14 8.5 22.5t21.5 8.5h62q13 0 21.5 -8.5t8.5 -22.5v-942q0 -14 -8.5 -22.5t-21.5 -8.5h-54q-27 0 -30 31l-8 125 q-126 -183 -328 -183q-175 0 -272 100.5t-97 297.5zM311 1395q-7 17 0 26t25 9h37q24 0 35 -25l122 -258q15 -35 -24 -35h-37q-24 0 -35 25z" />
<glyph unicode="&#xfa;" horiz-adv-x="1017" d="M94 371v602q0 13 9 22t22 9h61q14 0 22.5 -9t8.5 -22v-602q0 -138 66 -215.5t188 -77.5q58 0 111.5 21.5t90 53.5t64.5 68.5t41 68t13 50.5v633q0 14 8.5 22.5t21.5 8.5h62q13 0 21.5 -8.5t8.5 -22.5v-942q0 -14 -8.5 -22.5t-21.5 -8.5h-54q-27 0 -30 31l-8 125 q-126 -183 -328 -183q-175 0 -272 100.5t-97 297.5zM467 1121q-7 9 0 26l123 258q11 25 35 25h37q39 0 24 -35l-123 -258q-11 -25 -35 -25h-36q-18 0 -25 9z" />
<glyph unicode="&#xfb;" horiz-adv-x="1017" d="M94 371v602q0 13 9 22t22 9h61q14 0 22.5 -9t8.5 -22v-602q0 -138 66 -215.5t188 -77.5q58 0 111.5 21.5t90 53.5t64.5 68.5t41 68t13 50.5v633q0 14 8.5 22.5t21.5 8.5h62q13 0 21.5 -8.5t8.5 -22.5v-942q0 -14 -8.5 -22.5t-21.5 -8.5h-54q-27 0 -30 31l-8 125 q-126 -183 -328 -183q-175 0 -272 100.5t-97 297.5zM248 1186.5q-4 10.5 8 25.5l174 201q14 17 37 17h78q23 0 37 -17l174 -201q12 -15 7.5 -25.5t-24.5 -10.5h-43q-24 0 -37 16l-153 176l-154 -176q-13 -16 -37 -16h-43q-20 0 -24 10.5z" />
<glyph unicode="&#xfc;" horiz-adv-x="1017" d="M94 371v602q0 13 9 22t22 9h61q14 0 22.5 -9t8.5 -22v-602q0 -138 66 -215.5t188 -77.5q58 0 111.5 21.5t90 53.5t64.5 68.5t41 68t13 50.5v633q0 14 8.5 22.5t21.5 8.5h62q13 0 21.5 -8.5t8.5 -22.5v-942q0 -14 -8.5 -22.5t-21.5 -8.5h-54q-27 0 -30 31l-8 125 q-126 -183 -328 -183q-175 0 -272 100.5t-97 297.5zM250 1368q0 31 23 53.5t55 22.5t55 -22.5t23 -53.5t-23 -53.5t-55 -22.5t-55 22.5t-23 53.5zM606 1368q0 31 23.5 53.5t54.5 22.5q32 0 55 -22.5t23 -53.5t-23 -53.5t-55 -22.5q-31 0 -54.5 22.5t-23.5 53.5z" />
<glyph unicode="&#xfd;" horiz-adv-x="1013" d="M57 969q-12 35 25 35h63q28 0 37 -25l324 -842l323 842q9 25 37 25h66q36 0 24 -35l-528 -1334q-9 -24 -37 -24h-63q-37 0 -25 35l139 350zM467 1121q-7 9 0 26l123 258q11 25 35 25h37q39 0 24 -35l-123 -258q-11 -25 -35 -25h-36q-18 0 -25 9z" />
<glyph unicode="&#xfe;" horiz-adv-x="1181" d="M106 31v1433q0 14 9 22.5t22 8.5h62q13 0 21.5 -8.5t8.5 -22.5v-469q8 -5 11 -22l6 -119q131 170 354 170h8h8q142 0 255.5 -69.5t176 -189.5t62.5 -265q0 -222 -140 -373.5t-354 -151.5h-8h-8q-220 0 -352 168l-4 -55v-446q0 -14 -9 -22.5t-22 -8.5h-61q-14 0 -22.5 8.5 t-8.5 22.5v362q-15 8 -15 27zM233 500l5 -86q27 -139 126 -231t236 -95q163 3 269 120t106 294q0 175 -106 291.5t-269 119.5q-137 -3 -236 -94.5t-126 -230.5z" />
<glyph unicode="&#xff;" horiz-adv-x="1013" d="M57 969q-12 35 25 35h63q28 0 37 -25l324 -842l323 842q9 25 37 25h66q36 0 24 -35l-528 -1334q-9 -24 -37 -24h-63q-37 0 -25 35l139 350zM250 1368q0 31 23 53.5t55 22.5t55 -22.5t23 -53.5t-23 -53.5t-55 -22.5t-55 22.5t-23 53.5zM606 1368q0 31 23.5 53.5t54.5 22.5 q32 0 55 -22.5t23 -53.5t-23 -53.5t-55 -22.5q-31 0 -54.5 22.5t-23.5 53.5z" />
<glyph unicode="&#x152;" horiz-adv-x="2281" d="M84 711q0 152 58 289t156 235.5t233.5 156.5t285.5 58q187 0 346.5 -87.5t259.5 -238.5v279q0 13 8.5 22t22.5 9h692q14 0 22.5 -9t8.5 -22v-60q0 -13 -8.5 -21.5t-22.5 -8.5h-594v-488h559q14 0 22.5 -8.5t8.5 -21.5v-60q0 -13 -8.5 -21.5t-22.5 -8.5h-559v-584h596 q14 0 22.5 -8.5t8.5 -22.5v-59q0 -13 -8.5 -22t-22.5 -9h-694q-14 0 -22.5 9t-8.5 22v268q-100 -151 -259.5 -238.5t-346.5 -87.5q-150 0 -285.5 58t-233.5 156.5t-156 235.5t-58 288zM207 711q0 -170 80.5 -312t221 -224.5t308.5 -82.5q166 0 305.5 82.5t220 225 t80.5 311.5q0 171 -80.5 314t-220 225.5t-305.5 82.5q-168 0 -308.5 -82.5t-221 -225.5t-80.5 -314z" />
<glyph unicode="&#x153;" horiz-adv-x="1998" d="M74 500q0 223 145.5 374.5t360.5 151.5q145 0 262.5 -73t181.5 -197q60 124 173.5 197t258.5 73q139 0 247.5 -68.5t165 -178t56.5 -236.5q0 -53 -11 -75t-46 -22h-781q18 -157 125 -259.5t273 -102.5q169 0 289 109q25 22 43 6l26 -25q25 -24 2 -47q-148 -154 -375 -154 q-149 0 -266 73.5t-180 199.5q-63 -125 -180.5 -199t-263.5 -74q-141 0 -257.5 69.5t-182.5 190.5t-66 267zM193 500q0 -180 111 -298t276 -118q164 0 275.5 118t111.5 298t-111.5 297.5t-275.5 117.5q-165 0 -276 -117.5t-111 -297.5zM1087 549h730q-3 152 -105.5 259 t-257.5 107q-152 0 -252.5 -103.5t-114.5 -262.5z" />
<glyph unicode="&#x178;" horiz-adv-x="1138" d="M76.5 1423q5.5 11 23.5 11h72q25 0 37 -21l360 -592l361 592q12 21 37 21h71q18 0 24 -11t-3 -26l-426 -699v-667q0 -13 -8.5 -22t-22.5 -9h-65q-13 0 -22 9t-9 22v667l-426 699q-9 15 -3.5 26zM313 1798q0 31 23 53.5t55 22.5t55 -22.5t23 -53.5t-23 -53.5t-55 -22.5 t-55 22.5t-23 53.5zM670 1798q0 31 23.5 53.5t54.5 22.5q32 0 54.5 -22.5t22.5 -53.5t-22.5 -53.5t-54.5 -22.5q-31 0 -54.5 22.5t-23.5 53.5z" />
<glyph unicode="&#x2c6;" horiz-adv-x="540" d="M12.5 1191q-4.5 11 7.5 26l175 200q14 17 36 17h78q23 0 37 -17l174 -200q12 -15 8 -26t-24 -11h-43q-24 0 -37 16l-154 176l-153 -176q-13 -16 -37 -16h-43q-20 0 -24.5 11z" />
<glyph unicode="&#x2dc;" horiz-adv-x="612" d="M12 1331q7 65 52 101t110 36q45 0 85 -21t64 -45.5t58 -45.5t68 -21q60 0 83 66q6 18 23 18h27q20 0 20 -20q-9 -67 -53 -104.5t-100 -37.5q-48 0 -89.5 21t-66.5 46t-59 46t-68 21q-68 0 -86 -66q-6 -18 -23 -18h-26q-22 0 -19 24z" />
<glyph unicode="&#x2000;" horiz-adv-x="947" />
<glyph unicode="&#x2001;" horiz-adv-x="1894" />
<glyph unicode="&#x2002;" horiz-adv-x="947" />
<glyph unicode="&#x2003;" horiz-adv-x="1894" />
<glyph unicode="&#x2004;" horiz-adv-x="631" />
<glyph unicode="&#x2005;" horiz-adv-x="473" />
<glyph unicode="&#x2006;" horiz-adv-x="315" />
<glyph unicode="&#x2007;" horiz-adv-x="315" />
<glyph unicode="&#x2008;" horiz-adv-x="236" />
<glyph unicode="&#x2009;" horiz-adv-x="378" />
<glyph unicode="&#x200a;" horiz-adv-x="105" />
<glyph unicode="&#x2010;" horiz-adv-x="798" d="M92 557v49q0 14 9 22.5t22 8.5h553q14 0 22.5 -8.5t8.5 -22.5v-49q0 -13 -8.5 -22t-22.5 -9h-553q-13 0 -22 9t-9 22z" />
<glyph unicode="&#x2011;" horiz-adv-x="798" d="M92 557v49q0 14 9 22.5t22 8.5h553q14 0 22.5 -8.5t8.5 -22.5v-49q0 -13 -8.5 -22t-22.5 -9h-553q-13 0 -22 9t-9 22z" />
<glyph unicode="&#x2012;" horiz-adv-x="798" d="M92 557v49q0 14 9 22.5t22 8.5h553q14 0 22.5 -8.5t8.5 -22.5v-49q0 -13 -8.5 -22t-22.5 -9h-553q-13 0 -22 9t-9 22z" />
<glyph unicode="&#x2013;" horiz-adv-x="1249" d="M102 557v49q0 14 9 22.5t22 8.5h983q14 0 22.5 -8.5t8.5 -22.5v-49q0 -13 -8.5 -22t-22.5 -9h-983q-13 0 -22 9t-9 22z" />
<glyph unicode="&#x2014;" horiz-adv-x="1372" d="M102 557v49q0 14 9 22.5t22 8.5h1106q13 0 22 -8.5t9 -22.5v-49q0 -13 -9 -22t-22 -9h-1106q-13 0 -22 9t-9 22z" />
<glyph unicode="&#x2018;" horiz-adv-x="294" d="M61 1231q0 115 86 223q3 6 11 6h22q5 0 7 -4t-1 -8q-39 -76 -39 -152q37 0 61.5 -24.5t24.5 -61.5q0 -35 -24.5 -59.5t-61.5 -24.5t-61.5 28t-24.5 77z" />
<glyph unicode="&#x2019;" horiz-adv-x="294" d="M61 1343q0 35 24.5 59.5t61.5 24.5t61.5 -27.5t24.5 -76.5q0 -115 -86 -223q-3 -6 -10 -6h-22q-5 0 -7 4t1 8q38 74 38 151q-37 0 -61.5 24.5t-24.5 61.5z" />
<glyph unicode="&#x201a;" horiz-adv-x="294" d="M61 59q0 35 24.5 59.5t61.5 24.5t61.5 -27.5t24.5 -76.5q0 -115 -86 -223q-3 -6 -10 -6h-22q-5 0 -7 4t1 8q38 74 38 151q-37 0 -61.5 24.5t-24.5 61.5z" />
<glyph unicode="&#x201c;" horiz-adv-x="530" d="M61 1231q0 115 86 223q3 6 11 6h22q5 0 7 -4t-1 -8q-39 -76 -39 -152q37 0 61.5 -24.5t24.5 -61.5q0 -35 -24.5 -59.5t-61.5 -24.5t-61.5 28t-24.5 77zM297 1231q0 115 86 223q3 6 10 6h23q5 0 7 -4t-1 -8q-39 -76 -39 -152q37 0 61.5 -24.5t24.5 -61.5 q0 -35 -24.5 -59.5t-61.5 -24.5t-61.5 28t-24.5 77z" />
<glyph unicode="&#x201d;" horiz-adv-x="530" d="M61 1343q0 35 24.5 59.5t61.5 24.5t61.5 -27.5t24.5 -76.5q0 -115 -86 -223q-3 -6 -10 -6h-22q-5 0 -7 4t1 8q38 74 38 151q-37 0 -61.5 24.5t-24.5 61.5zM297 1343q0 35 24.5 59.5t61.5 24.5t61.5 -27.5t24.5 -76.5q0 -115 -86 -223q-3 -6 -10 -6h-23q-5 0 -7 4t1 8 q39 76 39 151q-37 0 -61.5 24.5t-24.5 61.5z" />
<glyph unicode="&#x201e;" horiz-adv-x="499" d="M61 59q0 35 24.5 59.5t61.5 24.5t61.5 -27.5t24.5 -76.5q0 -115 -86 -223q-3 -6 -10 -6h-22q-5 0 -7 4t1 8q38 74 38 151q-37 0 -61.5 24.5t-24.5 61.5zM266 59q0 35 24.5 59.5t61.5 24.5t61.5 -27.5t24.5 -76.5q0 -115 -86 -223q-3 -6 -10 -6h-23q-5 0 -7 4t1 8 q39 76 39 151q-37 0 -61.5 24.5t-24.5 61.5z" />
<glyph unicode="&#x2022;" horiz-adv-x="473" d="M113 563q0 52 36.5 87.5t88.5 35.5q51 0 86.5 -35.5t35.5 -87.5t-35.5 -87.5t-86.5 -35.5q-52 0 -88.5 35.5t-36.5 87.5z" />
<glyph unicode="&#x2026;" horiz-adv-x="1325" d="M72 59q0 35 24.5 59.5t61.5 24.5q35 0 59.5 -24.5t24.5 -59.5q0 -37 -24.5 -61.5t-59.5 -24.5q-37 0 -61.5 24.5t-24.5 61.5zM578 59q0 35 24.5 59.5t61.5 24.5q35 0 59.5 -24.5t24.5 -59.5q0 -37 -24.5 -61.5t-59.5 -24.5q-37 0 -61.5 24.5t-24.5 61.5zM1083 59 q0 35 24.5 59.5t61.5 24.5q35 0 59.5 -24.5t24.5 -59.5q0 -37 -24.5 -61.5t-59.5 -24.5q-37 0 -61.5 24.5t-24.5 61.5z" />
<glyph unicode="&#x202f;" horiz-adv-x="378" />
<glyph unicode="&#x2039;" horiz-adv-x="397" d="M72 567v78q0 24 16 37l201 174q15 12 26 8t11 -24v-43q0 -23 -17 -37l-176 -154l176 -153q17 -14 17 -37v-43q0 -20 -11 -24.5t-26 7.5l-201 174q-16 13 -16 37z" />
<glyph unicode="&#x203a;" horiz-adv-x="397" d="M72 352v43q0 24 16 37l176 154l-176 153q-16 13 -16 37v43q0 20 11 24.5t26 -7.5l200 -174q17 -14 17 -37v-78q0 -23 -17 -37l-200 -174q-15 -12 -26 -8t-11 24z" />
<glyph unicode="&#x205f;" horiz-adv-x="473" />
<glyph unicode="&#x20ac;" horiz-adv-x="1439" d="M61 578v51q0 13 8.5 21.5t22.5 8.5h66q-2 16 -2 52v37h-64q-14 0 -22.5 8.5t-8.5 21.5v51q0 13 8.5 22t22.5 9h78q50 256 245.5 423t456.5 167q252 0 480 -190q26 -22 2 -43l-43 -43q-21 -19 -43 0q-182 151 -394 151q-207 0 -366.5 -129.5t-206.5 -335.5h285 q13 0 21.5 -8.5t8.5 -22.5v-51q0 -14 -8 -22t-22 -8h-301v-37q0 -36 2 -52h299q14 0 22 -8.5t8 -21.5v-51q0 -14 -8.5 -22.5t-21.5 -8.5h-281q51 -199 209 -324t360 -125q211 0 394 152q22 19 43 0l43 -41q11 -11 10 -23t-12 -20q-228 -193 -480 -193q-258 0 -451.5 161.5 t-248.5 412.5h-80q-14 0 -22.5 8.5t-8.5 22.5z" />
<glyph unicode="&#x2122;" horiz-adv-x="1067" d="M113 1389v34q0 11 10 11h330q10 0 10 -11v-34q0 -11 -10 -11h-136v-303q0 -10 -10 -10h-39q-10 0 -10 10v303h-135q-10 0 -10 11zM535 1075v348q0 11 10 11h51q8 0 12 -9l135 -290l136 290q5 9 12 9h53q10 0 10 -11v-348q0 -10 -10 -10h-41q-10 0 -10 10v246l-119 -248 q-4 -8 -12 -8h-37q-8 0 -12 8l-117 248v-246q0 -10 -10 -10h-41q-10 0 -10 10z" />
<glyph unicode="&#x25fc;" horiz-adv-x="1003" d="M0 0v1004h1004v-1004h-1004z" />
</font>
</defs>
</svg>
