<?xml version="1.0" standalone="no"?>
<!DOCTYPE svg PUBLIC "-//W3C//DTD SVG 1.1//EN" "http://www.w3.org/Graphics/SVG/1.1/DTD/svg11.dtd" >
<svg xmlns="http://www.w3.org/2000/svg">
<metadata></metadata>
<defs>
<font id="greycliff_cfbold" horiz-adv-x="1200" >
<font-face units-per-em="2048" ascent="1638" descent="-410" />
<missing-glyph horiz-adv-x="532" />
<glyph unicode="&#xfb01;" horiz-adv-x="1230" d="M51 813v160q0 13 8.5 22t22.5 9h119v170q0 165 92.5 249t257.5 84q110 0 168 -34q20 -11 20 -37v-183q0 -18 -11 -23.5t-26 3.5q-56 33 -118 33q-68 0 -90.5 -31t-22.5 -96v-135h213q14 0 22.5 -9t8.5 -22v-160q0 -13 -8.5 -22t-22.5 -9h-213v-751q0 -13 -8.5 -22 t-22.5 -9h-209q-13 0 -21.5 8.5t-8.5 22.5v751h-119q-14 0 -22.5 9t-8.5 22zM852 1343q0 62 43 106t106 44q61 0 104.5 -44t43.5 -106t-43.5 -105.5t-104.5 -43.5q-63 0 -106 43.5t-43 105.5zM866 31v942q0 13 9 22t22 9h209q14 0 22.5 -9t8.5 -22v-942q0 -13 -8.5 -22 t-22.5 -9h-209q-13 0 -22 9t-9 22z" />
<glyph unicode="&#xfb02;" horiz-adv-x="1245" d="M51 813v160q0 13 8.5 22t22.5 9h119v170q0 165 92.5 249t257.5 84q110 0 168 -34q20 -11 20 -37v-183q0 -18 -11 -23.5t-26 3.5q-56 33 -118 33q-68 0 -90.5 -31t-22.5 -96v-135h213q14 0 22.5 -9t8.5 -22v-160q0 -13 -8.5 -22t-22.5 -9h-213v-751q0 -13 -8.5 -22 t-22.5 -9h-209q-13 0 -21.5 8.5t-8.5 22.5v751h-119q-14 0 -22.5 9t-8.5 22zM883 31v1433q0 14 8.5 22.5t21.5 8.5h209q14 0 22.5 -8.5t8.5 -22.5v-1433q0 -13 -8.5 -22t-22.5 -9h-209q-13 0 -21.5 8.5t-8.5 22.5z" />
<glyph horiz-adv-x="0" />
<glyph horiz-adv-x="682" />
<glyph unicode=" "  horiz-adv-x="532" />
<glyph unicode="&#x09;" horiz-adv-x="532" />
<glyph unicode="&#xa0;" horiz-adv-x="532" />
<glyph unicode="!" horiz-adv-x="583" d="M143 123q0 62 43.5 104.5t106.5 42.5q61 0 104 -43t43 -104q0 -63 -42.5 -106.5t-104.5 -43.5q-63 0 -106.5 43.5t-43.5 106.5zM145 1280q-7 76 36 123t110 47q68 0 111 -47t36 -123l-69 -823q-3 -29 -31 -29h-90q-28 0 -31 29z" />
<glyph unicode="&#x22;" horiz-adv-x="688" d="M63 1403q-1 13 8 22t23 9h180q14 0 23 -9t8 -22l-22 -399q-3 -31 -31 -31h-135q-28 0 -31 31zM385 1403q-1 13 8 22t23 9h180q14 0 23 -9t8 -22l-23 -399q-3 -31 -31 -31h-135q-27 0 -30 31z" />
<glyph unicode="#" horiz-adv-x="1251" d="M113 467v141q0 14 8.5 22.5t21.5 8.5h133v319h-133q-13 0 -21.5 8.5t-8.5 22.5v141q0 14 8.5 22.5t21.5 8.5h133v242q0 13 9 22t22 9h191q13 0 21.5 -8.5t8.5 -22.5v-242h197v242q0 13 8.5 22t22.5 9h188q14 0 22.5 -9t8.5 -22v-242h133q14 0 22.5 -8.5t8.5 -22.5v-141 q0 -13 -8.5 -22t-22.5 -9h-133v-319h133q14 0 22.5 -8.5t8.5 -22.5v-141q0 -13 -8.5 -22t-22.5 -9h-133v-241q0 -13 -8.5 -22t-22.5 -9h-188q-14 0 -22.5 9t-8.5 22v241h-197v-241q0 -14 -8.5 -22.5t-21.5 -8.5h-191q-13 0 -22 9t-9 22v241h-133q-13 0 -21.5 8.5t-8.5 22.5z M528 639h197v319h-197v-319z" />
<glyph unicode="$" horiz-adv-x="1112" d="M70 197q-16 22 2 43l123 133q20 24 45 2q79 -69 154.5 -104t164.5 -35q93 0 155 46t62 121q0 40 -23.5 73t-62.5 57t-90 46t-107.5 44t-113 47t-107.5 60t-90 77.5t-62.5 104.5t-23.5 137q0 157 100 261.5t255 131.5v145q0 14 8.5 22.5t21.5 8.5h150q13 0 22 -9t9 -22 v-149q176 -35 319 -178q20 -20 0 -43l-113 -138q-18 -24 -43 -6q-79 62 -140 88.5t-134 26.5q-84 0 -133 -40.5t-49 -105.5q0 -51 37.5 -88.5t98 -63t133 -50.5t145 -60t133 -81t98 -123.5t37.5 -178.5q0 -165 -111 -274.5t-278 -138.5v-138q0 -13 -8.5 -21.5t-22.5 -8.5 h-150q-13 0 -21.5 8t-8.5 22v136q-117 21 -217.5 80.5t-163.5 134.5z" />
<glyph unicode="%" horiz-adv-x="1449" d="M82 1167q0 117 80.5 197t197.5 80t199 -80t82 -197t-82 -197.5t-199 -80.5t-197.5 80.5t-80.5 197.5zM203 102l891 1325l153 -96l-891 -1325zM258 1167q0 -44 30 -74t72 -30q43 0 74 30t31 74t-31 73.5t-74 29.5q-42 0 -72 -29.5t-30 -73.5zM809 266q0 117 82 198t199 81 t197.5 -81t80.5 -198t-80.5 -196.5t-197.5 -79.5t-199 79.5t-82 196.5zM985 266q0 -44 31 -73t74 -29q42 0 72 29t30 73t-30 74.5t-72 30.5q-43 0 -74 -30.5t-31 -74.5z" />
<glyph unicode="&#x26;" horiz-adv-x="1363" d="M72 397q0 68 21.5 127.5t62.5 108.5t85 86.5t103 75.5q-75 77 -117.5 152t-42.5 159q0 140 108.5 242t270.5 102q157 0 269 -103t112 -241q0 -116 -63 -201t-174 -162l272 -268q26 26 76 84q19 22 43 2l125 -119q24 -20 4 -43l-78 -90l162 -159q23 -23 0 -46l-111 -110 q-24 -24 -45 -2l-164 164q-211 -174 -436 -174q-93 0 -178.5 27.5t-154 78t-109.5 131t-41 178.5zM346 403q0 -70 61.5 -122t157.5 -52q127 0 254 95l-299 299q-85 -57 -129.5 -108t-44.5 -112zM430 1100q0 -44 27 -88t80 -101q79 48 121 92.5t42 96.5q0 50 -39.5 85.5 t-97.5 35.5q-59 0 -96 -35t-37 -86z" />
<glyph unicode="'" horiz-adv-x="366" d="M63 1403q-1 13 8 22t23 9h180q14 0 23 -9t8 -22l-22 -399q-3 -31 -31 -31h-135q-28 0 -31 31z" />
<glyph unicode="(" horiz-adv-x="688" d="M102 655q0 490 215 850q12 21 37 21h205q18 0 24 -10t-3 -27q-197 -366 -197 -834q0 -492 199 -884q7 -17 0.5 -27t-23.5 -10h-205q-26 0 -37 20q-215 384 -215 901z" />
<glyph unicode=")" horiz-adv-x="688" d="M105.5 -256q-6.5 10 0.5 27q199 392 199 884q0 470 -196 834q-9 17 -3.5 27t23.5 10h205q25 0 37 -21q215 -360 215 -850q0 -517 -215 -901q-11 -20 -37 -20h-205q-17 0 -23.5 10z" />
<glyph unicode="*" horiz-adv-x="1013" d="M154 1139l43 182l225 -68l-6 236h180l-2 -236l223 68l43 -182l-211 -58l144 -188l-158 -96l-127 180l-129 -180l-158 96l144 188zM496 1135l12 -11l10 11h-22z" />
<glyph unicode="+" horiz-adv-x="942" d="M113 514v139q0 14 8.5 22.5t21.5 8.5h228v227q0 14 8.5 22.5t21.5 8.5h140q13 0 21.5 -8.5t8.5 -22.5v-227h228q13 0 21.5 -8.5t8.5 -22.5v-139q0 -14 -8.5 -22.5t-21.5 -8.5h-228v-227q0 -14 -8.5 -22.5t-21.5 -8.5h-140q-13 0 -21.5 8.5t-8.5 22.5v227h-228 q-13 0 -21.5 8.5t-8.5 22.5z" />
<glyph unicode="," horiz-adv-x="442" d="M72 123q0 62 43 104.5t106 42.5t106.5 -46.5t43.5 -121.5q0 -92 -39.5 -175.5t-87.5 -137.5q-10 -10 -23 -10h-26q-11 0 -15 6.5t0 15.5q41 87 41 172q-63 0 -106 43.5t-43 106.5z" />
<glyph unicode="-" horiz-adv-x="798" d="M92 487v160q0 13 9 22t22 9h553q14 0 22.5 -9t8.5 -22v-160q0 -13 -8.5 -21.5t-22.5 -8.5h-553q-14 0 -22.5 8.5t-8.5 21.5z" />
<glyph unicode="." horiz-adv-x="440" d="M72 123q0 62 43 104.5t106 42.5q62 0 105 -43t43 -104q0 -63 -43 -106.5t-105 -43.5q-63 0 -106 43.5t-43 106.5z" />
<glyph unicode="/" horiz-adv-x="1001" d="M25 -231l671 1732q9 25 37 25h219q37 0 25 -35l-672 -1733q-9 -24 -37 -24h-219q-36 0 -24 35z" />
<glyph unicode="0" horiz-adv-x="1275" d="M61 711q0 179 47.5 322t128 232.5t183 137t217.5 47.5q116 0 218.5 -47t183 -137t127 -233t46.5 -322q0 -143 -30.5 -264t-84 -207.5t-126.5 -147t-157.5 -90t-176.5 -29.5q-115 0 -217.5 47.5t-183 137t-128 232.5t-47.5 321zM322 711q0 -136 34 -244.5t106.5 -176 t174.5 -67.5q103 0 175.5 67.5t106 175.5t33.5 245t-33.5 245t-106 176t-175.5 68q-102 0 -174.5 -67.5t-106.5 -176t-34 -245.5z" />
<glyph unicode="1" horiz-adv-x="645" d="M61 1243v160q0 13 8.5 22t22.5 9h428q14 0 22.5 -9t8.5 -22v-1372q0 -13 -8.5 -22t-22.5 -9h-209q-13 0 -21.5 8.5t-8.5 22.5v1181h-189q-14 0 -22.5 9t-8.5 22z" />
<glyph unicode="2" horiz-adv-x="1048" d="M72 31v190l243 248l84 84l76 76t63 64t55.5 59.5t43 51.5t35.5 50.5t23 45.5t16 48t4 47q0 90 -62 147.5t-157 57.5q-75 0 -130.5 -27t-107.5 -73q-25 -22 -45 -2l-127 121q-21 21 -2 43q74 86 182 137t236 51q200 0 336.5 -128.5t136.5 -315.5q0 -31 -6 -62.5 t-12.5 -57.5t-25 -59t-30.5 -55t-42 -59.5l-46 -57.5t-56.5 -64t-60 -64t-70 -72t-73.5 -76l-152 -158h543q14 0 22.5 -8.5t8.5 -22.5v-159q0 -13 -8.5 -22t-22.5 -9h-842q-13 0 -21.5 8.5t-8.5 22.5z" />
<glyph unicode="3" horiz-adv-x="1073" d="M80 152q-19 22 2 43l125 118q21 21 45 0q53 -46 108 -70t136 -24q110 0 174.5 60.5t64.5 150.5q0 84 -67.5 143.5t-210.5 63.5q-31 0 -31 31v145q0 31 33 31q137 4 194.5 59t57.5 133q0 74 -61 121t-134 47q-125 0 -217 -92q-23 -22 -45 0l-125 119q-21 21 -2 43 q69 81 174 128.5t223 47.5q175 0 300.5 -111t125.5 -280q0 -183 -176 -303q103 -50 165 -137.5t62 -206.5q0 -189 -134 -314t-355 -125q-134 0 -247 48t-185 131z" />
<glyph unicode="4" horiz-adv-x="1126" d="M72 342v168q0 24 10 39l532 864q12 21 37 21h215q14 0 22.5 -9t8.5 -22v-873h127q14 0 22.5 -8.5t8.5 -21.5v-158q0 -14 -8.5 -22.5t-22.5 -8.5h-127v-280q0 -13 -8.5 -22t-22.5 -9h-209q-13 0 -21.5 8.5t-8.5 22.5v280h-525q-13 0 -21.5 8.5t-8.5 22.5zM342 530h285v480 z" />
<glyph unicode="5" horiz-adv-x="1079" d="M80 188q-15 24 8 39l150 107q25 19 45 -4q83 -109 213 -109q106 0 177.5 76.5t71.5 185.5q0 100 -73 175t-174 75q-115 0 -191 -82q-18 -21 -41 -12l-164 51q-26 9 -20 37l178 680q7 27 33 27h606q13 0 22 -9t9 -22v-160q0 -13 -9 -22t-22 -9h-448l-74 -284 q18 11 61.5 23t96.5 12q132 0 240.5 -64t170.5 -174.5t62 -241.5q0 -231 -144 -369.5t-368 -138.5q-143 0 -254 63.5t-162 149.5z" />
<glyph unicode="6" horiz-adv-x="1058" d="M51 442q0 164 133 344l496 670q18 25 43 6l143 -104q26 -16 6 -43l-313 -416q185 -12 311.5 -142.5t126.5 -314.5q0 -194 -138.5 -331.5t-334.5 -137.5t-334.5 137.5t-138.5 331.5zM311 442q0 -94 61 -156.5t152 -62.5q90 0 151.5 63t61.5 156q0 95 -61.5 157.5 t-151.5 62.5q-91 0 -152 -62.5t-61 -157.5z" />
<glyph unicode="7" horiz-adv-x="997" d="M61 1243v160q0 13 8.5 22t22.5 9h838q14 0 21 -9t3 -22l-501 -1372q-10 -31 -35 -31h-205q-14 0 -22.5 9t-4.5 22l437 1181h-531q-14 0 -22.5 9t-8.5 22z" />
<glyph unicode="8" horiz-adv-x="1128" d="M72 430q0 130 67 231t174 150q-69 47 -110 119t-41 153q0 152 111.5 259.5t289.5 107.5q119 0 212.5 -51t142.5 -134t49 -182q0 -81 -41.5 -153t-110.5 -119q107 -49 173.5 -149.5t66.5 -231.5q0 -82 -28 -155.5t-76 -128t-110.5 -94t-133.5 -59.5t-144 -20 q-123 0 -234 54t-184 160.5t-73 242.5zM348 438q0 -96 63 -155.5t152 -59.5q90 0 153.5 59.5t63.5 155.5t-64.5 154.5t-152.5 58.5q-86 0 -150.5 -58.5t-64.5 -154.5zM399 1075q0 -67 46.5 -115.5t117.5 -48.5t117.5 48.5t46.5 115.5q0 66 -46 112t-118 46q-71 0 -117.5 -46 t-46.5 -112z" />
<glyph unicode="9" horiz-adv-x="1067" d="M70 981q0 194 138.5 331.5t334.5 137.5t334.5 -137.5t138.5 -331.5q0 -163 -133 -344l-496 -670q-18 -25 -43 -6l-143 105q-26 16 -6 43l313 415q-185 12 -311.5 142.5t-126.5 314.5zM330 981q0 -94 61.5 -156.5t151.5 -62.5q91 0 152 62t61 157q0 94 -61 156.5 t-152 62.5q-90 0 -151.5 -63t-61.5 -156z" />
<glyph unicode=":" horiz-adv-x="440" d="M72 123q0 62 43 104.5t106 42.5q62 0 105 -43t43 -104q0 -63 -43 -106.5t-105 -43.5q-63 0 -106 43.5t-43 106.5zM72 942q0 62 43 105t106 43q61 0 104.5 -43t43.5 -105q0 -63 -43 -106t-105 -43q-63 0 -106 43t-43 106z" />
<glyph unicode=";" horiz-adv-x="442" d="M72 123q0 62 43 104.5t106 42.5t106.5 -46.5t43.5 -121.5q0 -92 -39.5 -175.5t-87.5 -137.5q-10 -10 -23 -10h-26q-11 0 -15 6.5t0 15.5q41 87 41 172q-63 0 -106 43.5t-43 106.5zM74 881q0 62 43 104.5t106 42.5q62 0 105 -43t43 -104q0 -63 -43 -106.5t-105 -43.5 q-63 0 -106 43.5t-43 106.5z" />
<glyph unicode="&#x3c;" horiz-adv-x="997" d="M102 446v127q0 22 23 35l754 377q15 8 25.5 1.5t10.5 -23.5v-168q0 -26 -22 -35l-545 -250l545 -250q22 -9 22 -35v-168q0 -17 -10.5 -23.5t-25.5 1.5l-754 377q-23 13 -23 34z" />
<glyph unicode="=" horiz-adv-x="983" d="M113 352v140q0 14 8.5 22t21.5 8h697q14 0 22 -8t8 -22v-140q0 -14 -8 -22t-22 -8h-697q-13 0 -21.5 8t-8.5 22zM113 676v139q0 14 8.5 22.5t21.5 8.5h697q13 0 21.5 -8.5t8.5 -22.5v-139q0 -14 -8.5 -22.5t-21.5 -8.5h-697q-13 0 -21.5 8.5t-8.5 22.5z" />
<glyph unicode="&#x3e;" horiz-adv-x="1038" d="M123 57v168q0 26 22 35l545 250l-545 250q-22 9 -22 35v168q0 17 11 23.5t26 -1.5l753 -377q23 -13 23 -35v-127q0 -21 -23 -34l-753 -377q-15 -8 -26 -1.5t-11 23.5z" />
<glyph unicode="?" horiz-adv-x="1054" d="M63 1239q78 94 198 152.5t263 58.5q120 0 224.5 -47.5t169.5 -137.5t65 -202q0 -142 -80.5 -236t-273.5 -190l-15 -178q-3 -31 -30 -31h-162q-28 0 -31 31l-18 289q-3 24 26 34q118 37 186 77.5t91.5 78.5t23.5 88q0 71 -59 112.5t-135 41.5q-80 0 -146 -32.5t-133 -90.5 q-37 -33 -63 0l-98 121q-26 32 -3 61zM354 123q0 62 43.5 104.5t106.5 42.5q62 0 104.5 -43t42.5 -104q0 -63 -42.5 -106.5t-104.5 -43.5q-63 0 -106.5 43.5t-43.5 106.5z" />
<glyph unicode="@" horiz-adv-x="1617" d="M72 709q0 169 63.5 311t169 234.5t240.5 144t280 51.5q144 0 274.5 -50.5t229 -140t157 -222t58.5 -287.5q0 -198 -101 -308t-253 -110q-123 0 -191 71q-78 -59 -192 -59q-157 0 -261 105.5t-104 259.5t104 259t261 105q134 0 221 -84l29 41h114l-36 -385 q-12 -119 75 -119q115 0 115 226q0 146 -70 260t-183 173.5t-247 59.5q-105 0 -201 -37t-170.5 -104.5t-118.5 -170t-44 -224.5q0 -117 44 -216.5t117 -165.5t167 -102.5t196 -36.5q148 0 268 76l170 -114q-79 -75 -192.5 -120.5t-235.5 -45.5q-115 0 -225.5 32t-206 94.5 t-167.5 149t-113 202.5t-41 247zM633 709q0 -76 49 -127.5t125 -51.5t125 51.5t49 127.5t-49 127t-125 51t-125 -51t-49 -127z" />
<glyph unicode="A" horiz-adv-x="1363" d="M45 35l498 1374q9 25 35 25h204q30 0 39 -25l498 -1374q3 -7 3 -13q0 -7 -4 -12q-7 -10 -24 -10h-227q-27 0 -35 25l-84 247h-532l-84 -247q-8 -25 -35 -25h-227q-17 0 -24 10q-4 5 -4 12q0 6 3 13zM494 510h376l-188 559z" />
<glyph unicode="B" horiz-adv-x="1212" d="M113 31v1372q0 14 8.5 22.5t21.5 8.5h488q204 0 315 -104t111 -259q0 -109 -51 -190t-132 -113q121 -31 203 -126t82 -228q0 -414 -528 -414h-488q-13 0 -21.5 8.5t-8.5 22.5zM393 248h246q115 0 177.5 48.5t62.5 147.5q0 95 -63 144t-177 49h-246v-389zM393 868h211 q89 0 139 42t50 126q0 150 -189 150h-211v-318z" />
<glyph unicode="C" horiz-adv-x="1382" d="M72 711q0 153 58 290t156.5 235.5t235 156t287.5 57.5q146 0 274 -54.5t226 -152.5q10 -10 10.5 -21t-10.5 -22l-135 -145q-20 -23 -44 -2q-139 123 -323 123q-188 0 -317.5 -133.5t-129.5 -331.5q0 -197 129.5 -330t317.5 -133q184 0 323 123q24 21 44 -2l135 -146 q10 -10 10.5 -21t-10.5 -22q-98 -98 -226 -152.5t-274 -54.5q-151 0 -287.5 58t-235 156t-156.5 235t-58 289z" />
<glyph unicode="D" horiz-adv-x="1359" d="M113 31v1372q0 14 8.5 22.5t21.5 8.5h404q180 0 324 -55.5t236.5 -153.5t141.5 -227.5t49 -280.5t-49 -280.5t-141.5 -227.5t-236.5 -153.5t-324 -55.5h-404q-13 0 -21.5 8.5t-8.5 22.5zM393 248h154q230 0 348.5 122.5t118.5 346.5t-118.5 346.5t-348.5 122.5h-154v-938 z" />
<glyph unicode="E" horiz-adv-x="1032" d="M113 31v1372q0 14 8.5 22.5t21.5 8.5h754q13 0 22 -9t9 -22v-186q0 -13 -9 -22t-22 -9h-504v-324h473q14 0 22.5 -9t8.5 -22v-186q0 -13 -8.5 -22t-22.5 -9h-473v-366h506q13 0 22 -9t9 -22v-186q0 -13 -9 -22t-22 -9h-756q-13 0 -21.5 8.5t-8.5 22.5z" />
<glyph unicode="F" horiz-adv-x="1011" d="M113 31v1372q0 14 8.5 22.5t21.5 8.5h736q13 0 21.5 -8.5t8.5 -22.5v-186q0 -14 -8.5 -22.5t-21.5 -8.5h-486v-324h459q14 0 22.5 -9t8.5 -22v-186q0 -13 -8.5 -22t-22.5 -9h-459v-583q0 -13 -8.5 -22t-22.5 -9h-219q-13 0 -21.5 8.5t-8.5 22.5z" />
<glyph unicode="G" horiz-adv-x="1523" d="M72 717q0 150 58 286t156.5 234t235 155.5t287.5 57.5q146 0 274 -54.5t226 -152.5q21 -21 0 -43l-135 -145q-20 -23 -44 -2q-139 123 -323 123q-188 0 -317.5 -132.5t-129.5 -326.5q0 -201 128 -335t325 -134q169 0 269 89.5t106 225.5h-363q-13 0 -21.5 8.5t-8.5 22.5 v174q0 14 8.5 22.5t21.5 8.5h607q13 0 21.5 -8.5t8.5 -22.5v-121q0 -139 -44.5 -261.5t-125.5 -214.5t-204.5 -145t-272.5 -53q-152 0 -289.5 58.5t-237 158t-158 237t-58.5 290.5z" />
<glyph unicode="H" horiz-adv-x="1327" d="M113 31v1372q0 14 8.5 22.5t21.5 8.5h219q14 0 22.5 -9t8.5 -22v-574h539v574q0 13 9 22t22 9h219q13 0 21.5 -8.5t8.5 -22.5v-1372q0 -14 -8.5 -22.5t-21.5 -8.5h-219q-13 0 -22 9t-9 22v551h-539v-551q0 -13 -8.5 -22t-22.5 -9h-219q-13 0 -21.5 8.5t-8.5 22.5z" />
<glyph unicode="I" horiz-adv-x="505" d="M113 31v1372q0 14 8.5 22.5t21.5 8.5h219q14 0 22.5 -9t8.5 -22v-1372q0 -13 -8.5 -22t-22.5 -9h-219q-13 0 -21.5 8.5t-8.5 22.5z" />
<glyph unicode="J" horiz-adv-x="1054" d="M72 129q-8 10 -8 20.5t8 22.5l110 152q17 23 45 2q38 -25 54.5 -34.5t62 -24.5t92.5 -15q107 0 166.5 72t59.5 223v856q0 14 8.5 22.5t21.5 8.5h219q13 0 22 -9t9 -22v-866q0 -282 -133 -418.5t-365 -136.5q-124 0 -220 40.5t-152 106.5z" />
<glyph unicode="K" horiz-adv-x="1300" d="M113 31v1372q0 14 8.5 22.5t21.5 8.5h219q14 0 22.5 -9t8.5 -22v-555l479 569q14 17 37 17h273q20 0 24.5 -12t-8.5 -25l-504 -576l557 -784q8 -10 8 -19q0 -4 -2 -7q-5 -11 -24 -11h-260q-24 0 -37 18l-428 590l-115 -133v-444q0 -13 -8.5 -22t-22.5 -9h-219 q-13 0 -21.5 8.5t-8.5 22.5z" />
<glyph unicode="L" horiz-adv-x="960" d="M113 31v1372q0 14 8.5 22.5t21.5 8.5h219q14 0 22.5 -9t8.5 -22v-1155h465q14 0 22.5 -9t8.5 -22v-186q0 -13 -8.5 -22t-22.5 -9h-715q-13 0 -21.5 8.5t-8.5 22.5z" />
<glyph unicode="M" horiz-adv-x="1722" d="M113 31v1372q0 14 8.5 22.5t21.5 8.5h252q28 0 37 -21l430 -1091l428 1091q9 21 37 21h252q13 0 22 -9t9 -22v-1372q0 -13 -9 -22t-22 -9h-219q-14 0 -22.5 9t-8.5 22v815l-332 -821q-9 -25 -36 -25h-199q-28 0 -37 25l-332 821v-815q0 -13 -8.5 -22t-22.5 -9h-219 q-13 0 -21.5 8.5t-8.5 22.5z" />
<glyph unicode="N" horiz-adv-x="1376" d="M113 31v1372q0 14 8.5 22.5t21.5 8.5h252q25 0 37 -21l551 -973v963q0 13 8.5 22t22.5 9h219q13 0 22 -9t9 -22v-1372q0 -13 -9 -22t-22 -9h-252q-26 0 -37 20l-551 973v-962q0 -13 -8.5 -22t-22.5 -9h-219q-13 0 -21.5 8.5t-8.5 22.5z" />
<glyph unicode="O" horiz-adv-x="1617" d="M72 711q0 152 58.5 289t157.5 235.5t235 156.5t286 58t286 -58t235 -156.5t157.5 -235.5t58.5 -289q0 -151 -58.5 -288t-157.5 -235.5t-235 -156.5t-286 -58t-286 58t-235 156.5t-157.5 235.5t-58.5 288zM352 711q0 -196 132.5 -331.5t324.5 -135.5t324.5 135.5 t132.5 331.5q0 198 -132.5 333.5t-324.5 135.5t-324.5 -135.5t-132.5 -333.5z" />
<glyph unicode="P" horiz-adv-x="1138" d="M113 31v1372q0 14 8.5 22.5t21.5 8.5h424q247 0 383.5 -128.5t136.5 -338.5q0 -211 -136.5 -340t-383.5 -129h-174v-467q0 -13 -8.5 -22t-22.5 -9h-219q-13 0 -21.5 8.5t-8.5 22.5zM393 748h168q71 0 126 18.5t93.5 69.5t38.5 131q0 115 -73.5 167t-184.5 52h-168v-438z " />
<glyph unicode="Q" horiz-adv-x="1617" d="M72 711q0 152 58.5 289t157.5 235.5t235 156.5t286 58t286 -58t235 -156.5t157.5 -235.5t58.5 -289q0 -236 -133 -424l121 -123q22 -22 0 -43l-148 -148q-11 -11 -21.5 -11t-21.5 11l-124 125q-183 -125 -410 -125q-150 0 -286 58t-235 156.5t-157.5 235.5t-58.5 288z M352 711q0 -196 132.5 -331.5t324.5 -135.5q118 0 213 53l-164 164q-22 23 -2 43l150 147q23 20 43 0l163 -164q54 102 54 224q0 198 -132.5 333.5t-324.5 135.5t-324.5 -135.5t-132.5 -333.5z" />
<glyph unicode="R" horiz-adv-x="1189" d="M113 31v1372q0 14 8.5 22.5t21.5 8.5h424q247 0 383.5 -128.5t136.5 -338.5q0 -157 -77.5 -272t-223.5 -165l326 -493q6 -11 6 -19q0 -4 -2 -8q-6 -10 -24 -10h-234q-26 0 -37 20l-309 478h-119v-467q0 -13 -8.5 -22t-22.5 -9h-219q-13 0 -21.5 8.5t-8.5 22.5zM393 748 h168q71 0 126 18.5t93.5 69.5t38.5 131q0 115 -73.5 167t-184.5 52h-168v-438z" />
<glyph unicode="S" horiz-adv-x="1112" d="M70 197q-8 10 -8 20q0 11 10 23l123 133q20 24 45 2q79 -69 154.5 -104t164.5 -35q93 0 155 46t62 121q0 40 -23.5 73t-62.5 57t-90 46t-107.5 44t-113 47t-107.5 60t-90 77.5t-62.5 104.5t-23.5 137q0 121 63 214t164 140t220 47q248 0 438 -190q20 -20 0 -43l-113 -138 q-18 -24 -43 -6q-79 62 -140 88.5t-134 26.5q-84 0 -133 -40.5t-49 -105.5q0 -51 37.5 -88.5t98 -63t133 -50.5t145 -60t133 -81t98 -123.5t37.5 -178.5q0 -98 -42.5 -179.5t-113 -134t-159 -81.5t-183.5 -29q-147 0 -276 65.5t-207 158.5z" />
<glyph unicode="T" horiz-adv-x="1105" d="M72 1217v186q0 14 8.5 22.5t21.5 8.5h902q13 0 21.5 -8.5t8.5 -22.5v-186q0 -14 -8.5 -22.5t-21.5 -8.5h-310v-1155q0 -14 -8.5 -22.5t-21.5 -8.5h-220q-13 0 -21.5 8.5t-8.5 22.5v1155h-312q-13 0 -21.5 8.5t-8.5 22.5z" />
<glyph unicode="U" horiz-adv-x="1292" d="M102 557v846q0 13 9 22t22 9h219q14 0 22.5 -9t8.5 -22v-846q0 -151 69 -230t195 -79q125 0 193.5 79t68.5 230v846q0 13 8.5 22t22.5 9h219q13 0 22 -9t9 -22v-846q0 -139 -40.5 -250.5t-113.5 -184t-172 -111t-217 -38.5q-243 0 -394 153.5t-151 430.5z" />
<glyph unicode="V" horiz-adv-x="1400" d="M63 1399q-3 7 -3 13q0 7 4 12q7 10 24 10h227q27 0 35 -25l350 -1044l351 1044q8 25 34 25h228q17 0 23 -10q3 -5 4 -12q0 -6 -3 -13l-497 -1374q-9 -25 -39 -25h-205q-26 0 -35 25z" />
<glyph unicode="W" horiz-adv-x="2240" d="M63 1399q-3 7 -3 13q0 7 4 12q7 10 24 10h227q27 0 35 -25l297 -1040l334 1040q3 14 16 21q8 4 17 4h209q10 0 18 -4q8 -5 14 -21l334 -1040l301 1040q6 25 35 25h227q18 0 24 -10q4 -6 3 -13q0 -6 -2 -12l-436 -1374q-9 -25 -39 -25h-217q-29 0 -35 25l-332 989 l-332 -989q-9 -25 -34 -25h-217q-31 0 -37 25z" />
<glyph unicode="X" horiz-adv-x="1277" d="M68 37l421 696l-401 664q-19 37 21 37h231q25 0 37 -21l262 -432l262 432q12 21 37 21h231q40 0 21 -37l-402 -664l422 -696q6 -12 6 -20q0 -17 -26 -17h-232q-25 0 -36 20l-283 467l-283 -467q-11 -20 -37 -20h-231q-26 0 -26 17q0 8 6 20z" />
<glyph unicode="Y" horiz-adv-x="1257" d="M68 1397q-6 12 -6 20q0 17 26 17h231q25 0 37 -21l273 -479l272 479q12 21 37 21h229q27 0 27 -17q0 -8 -6 -20l-420 -731v-635q0 -13 -9 -22t-22 -9h-219q-14 0 -22.5 9t-8.5 22v641z" />
<glyph unicode="Z" horiz-adv-x="1171" d="M82 31v196q0 19 12 37l674 922h-635q-13 0 -22 9t-9 22v186q0 13 9 22t22 9h905q14 0 22.5 -9t8.5 -22v-197q0 -19 -12 -37l-674 -921h676q13 0 22 -9t9 -22v-186q0 -13 -9 -22t-22 -9h-946q-13 0 -22 9t-9 22z" />
<glyph unicode="[" horiz-adv-x="649" d="M102 -236v1731q0 13 9 22t22 9h383q14 0 22.5 -9t8.5 -22v-160q0 -13 -8.5 -21.5t-22.5 -8.5h-133v-1350h133q14 0 22.5 -8.5t8.5 -22.5v-160q0 -13 -8.5 -21.5t-22.5 -8.5h-383q-14 0 -22.5 8.5t-8.5 21.5z" />
<glyph unicode="\" horiz-adv-x="1001" d="M25 1491q-12 35 24 35h219q28 0 37 -25l672 -1732q12 -35 -25 -35h-219q-28 0 -37 24z" />
<glyph unicode="]" horiz-adv-x="649" d="M102 -76q0 14 9 22.5t22 8.5h133v1350h-133q-14 0 -22.5 8.5t-8.5 21.5v160q0 13 9 22t22 9h383q14 0 22.5 -9t8.5 -22v-1731q0 -13 -8.5 -21.5t-22.5 -8.5h-383q-14 0 -22.5 8.5t-8.5 21.5v160z" />
<glyph unicode="^" horiz-adv-x="1163" d="M105 631.5q-7 10.5 1 25.5l377 754q13 23 35 23h127q22 0 35 -23l377 -754q8 -15 1 -25.5t-24 -10.5h-168q-26 0 -35 22l-249 545l-250 -545q-9 -22 -35 -22h-168q-17 0 -24 10.5z" />
<glyph unicode="_" horiz-adv-x="1228" d="M102 -31q0 13 9 22t22 9h963q13 0 21.5 -8.5t8.5 -22.5v-159q0 -14 -8.5 -22.5t-21.5 -8.5h-963q-13 0 -22 8.5t-9 22.5v159z" />
<glyph unicode="`" horiz-adv-x="442" d="M61 1456q-7 17 0 26t25 9h184q24 0 35 -25l123 -258q15 -34 -25 -34h-184q-24 0 -35 24z" />
<glyph unicode="a" d="M61 500q0 145 62.5 265.5t174 190.5t249.5 70q175 0 305 -147l6 94q3 31 31 31h188q13 0 22 -9t9 -22v-942q0 -13 -9 -22t-22 -9h-188q-28 0 -31 31l-8 86q-123 -144 -303 -144q-138 0 -249.5 70.5t-174 191t-62.5 265.5zM322 502q0 -122 73 -202.5t185 -80.5 q109 0 182.5 83.5t73.5 199.5q0 115 -73.5 196.5t-182.5 81.5q-112 0 -185 -79t-73 -199z" />
<glyph unicode="b" d="M92 31v1433q0 14 9 22.5t22 8.5h209q13 0 21.5 -8.5t8.5 -22.5v-569q124 131 291 131q138 0 249.5 -70t174 -190.5t62.5 -265.5t-62.5 -265.5t-174 -191t-249.5 -70.5q-180 0 -303 144l-8 -86q-3 -31 -31 -31h-188q-13 0 -22 9t-9 22zM365 502q0 -116 73.5 -199.5 t182.5 -83.5q112 0 185 80.5t73 202.5q0 120 -73 199t-185 79q-109 0 -182.5 -81.5t-73.5 -196.5z" />
<glyph unicode="c" horiz-adv-x="1026" d="M61 500q0 145 67 266t185 190.5t260 69.5q115 0 215.5 -47t172.5 -131q8 -10 8 -20q0 -12 -11 -23l-124 -121q-20 -20 -46 2q-49 44 -96.5 67t-111.5 23q-113 0 -185.5 -78.5t-72.5 -197.5t72.5 -198t185.5 -79q67 0 116.5 23t98.5 67q24 21 45 0l125 -118q11 -11 11 -22 q0 -10 -9 -21q-72 -84 -174.5 -131.5t-219.5 -47.5q-142 0 -260 70t-185 191t-67 266z" />
<glyph unicode="d" d="M61 500q0 145 62.5 265.5t174 190.5t249.5 70q167 0 291 -131v569q0 14 8.5 22.5t21.5 8.5h209q13 0 22 -8.5t9 -22.5v-1433q0 -13 -9 -22t-22 -9h-188q-28 0 -31 31l-8 86q-123 -144 -303 -144q-138 0 -249.5 70.5t-174 191t-62.5 265.5zM322 502q0 -122 73 -202.5 t185 -80.5q109 0 182.5 83.5t73.5 199.5q0 115 -73.5 196.5t-182.5 81.5q-112 0 -185 -79t-73 -199z" />
<glyph unicode="e" horiz-adv-x="1105" d="M61 500q0 109 38.5 206.5t105 167.5t161 111t201.5 41q141 0 251.5 -69.5t168 -183.5t57.5 -251q0 -65 -14 -93t-57 -28h-643q20 -100 94 -154t192 -54q114 0 213 69q26 17 45 -2l91 -88q21 -22 -2 -45q-73 -73 -169.5 -113.5t-203.5 -40.5q-115 0 -214.5 41t-168 111.5 t-107.5 167.5t-39 207zM326 578h479q-13 103 -78 161t-158 58q-94 0 -160 -57.5t-83 -161.5z" />
<glyph unicode="f" horiz-adv-x="843" d="M51 813v160q0 13 8.5 22t22.5 9h119v170q0 165 94 249t260 84q109 0 190.5 -47.5t133.5 -113.5q6 -6 6 -13q0 -8 -8 -16l-105 -103q-13 -13 -29 -4q-92 56 -155 56q-69 0 -93 -31.5t-24 -95.5v-135h203q14 0 22.5 -9t8.5 -22v-160q0 -13 -8.5 -22t-22.5 -9h-203v-751 q0 -13 -8.5 -22t-22.5 -9h-209q-13 0 -21.5 8.5t-8.5 22.5v751h-119q-14 0 -22.5 9t-8.5 22z" />
<glyph unicode="g" d="M61 510q0 140 62 258t174.5 188t249.5 70q179 0 305 -143l6 90q3 31 31 31h188q13 0 22 -9t9 -22v-963q0 -92 -33 -165.5t-86 -119.5t-123.5 -76.5t-140.5 -42.5t-143 -12q-125 0 -238 33.5t-194 89.5q-22 16 -9 41l68 123q17 27 41 13q137 -76 309 -76q40 0 78.5 6 t79.5 21.5t71.5 38.5t50 61t19.5 86v110q-126 -147 -311 -147q-137 0 -249.5 70t-174.5 188t-62 258zM322 512q0 -115 73.5 -193.5t184.5 -78.5q108 0 182 82t74 190t-74 188t-182 80q-112 0 -185 -77t-73 -191z" />
<glyph unicode="h" horiz-adv-x="1134" d="M92 31v1433q0 14 9 22.5t22 8.5h209q13 0 21.5 -8.5t8.5 -22.5v-624q53 85 133.5 135.5t184.5 50.5q158 0 260 -114t102 -310v-571q0 -14 -8.5 -22.5t-21.5 -8.5h-209q-13 0 -22 9t-9 22v522q0 116 -53 169.5t-135 53.5q-53 0 -98 -23.5t-70.5 -57t-39.5 -64.5t-14 -51 v-549q0 -14 -8.5 -22.5t-21.5 -8.5h-209q-13 0 -22 9t-9 22z" />
<glyph unicode="i" horiz-adv-x="460" d="M82 1343q0 62 43 106t106 44q61 0 104.5 -44t43.5 -106t-43.5 -105.5t-104.5 -43.5q-63 0 -106 43.5t-43 105.5zM96 31v942q0 13 9 22t22 9h209q14 0 22.5 -9t8.5 -22v-942q0 -13 -8.5 -22t-22.5 -9h-209q-13 0 -22 9t-9 22z" />
<glyph unicode="j" horiz-adv-x="602" d="M12 -176q-1 4 -1 7q0 5 3 9q4 6 13 6q92 7 152.5 61t60.5 163v903q0 14 8.5 22.5t21.5 8.5h209q13 0 22 -9t9 -22v-953q0 -205 -109.5 -312.5t-298.5 -113.5q-21 0 -24 17zM223 1343q0 62 43.5 106t106.5 44q61 0 104 -44t43 -106t-43 -105.5t-104 -43.5 q-63 0 -106.5 43.5t-43.5 105.5z" />
<glyph unicode="k" horiz-adv-x="1118" d="M92 31v1433q0 14 9 22.5t22 8.5h209q13 0 21.5 -8.5t8.5 -22.5v-874l369 397q14 17 37 17h236q20 0 25 -12t-9 -25l-354 -379l413 -551q8 -10 8 -19q0 -4 -2 -7q-5 -11 -24 -11h-225q-24 0 -37 18l-297 394l-140 -148v-233q0 -14 -8.5 -22.5t-21.5 -8.5h-209q-13 0 -22 9 t-9 22z" />
<glyph unicode="l" horiz-adv-x="456" d="M92 31v1433q0 14 9 22.5t22 8.5h209q13 0 21.5 -8.5t8.5 -22.5v-1433q0 -14 -8.5 -22.5t-21.5 -8.5h-209q-13 0 -22 9t-9 22z" />
<glyph unicode="m" horiz-adv-x="1812" d="M92 31v942q0 13 9 22t22 9h201q27 0 30 -31l8 -131v-2q53 85 133.5 135.5t184.5 50.5q101 0 181.5 -48t127.5 -138q57 86 146.5 136t207.5 50q168 0 272.5 -113.5t104.5 -310.5v-571q0 -14 -8.5 -22.5t-21.5 -8.5h-209q-13 0 -22 9t-9 22v522q0 116 -53 169.5t-133 53.5 q-103 0 -162.5 -63.5t-59.5 -128.5v-553q0 -14 -8.5 -22.5t-21.5 -8.5h-209q-13 0 -22 9t-9 22v522q0 116 -53 169.5t-135 53.5q-53 0 -98 -23.5t-70.5 -57t-39.5 -64.5t-14 -51v-549q0 -14 -8.5 -22.5t-21.5 -8.5h-209q-13 0 -22 9t-9 22z" />
<glyph unicode="n" horiz-adv-x="1134" d="M92 31v942q0 13 9 22t22 9h201q27 0 30 -31l8 -131v-2q53 85 133.5 135.5t184.5 50.5q158 0 260 -114t102 -310v-571q0 -14 -8.5 -22.5t-21.5 -8.5h-209q-13 0 -22 9t-9 22v522q0 116 -53 169.5t-135 53.5q-53 0 -98 -23.5t-70.5 -57t-39.5 -64.5t-14 -51v-549 q0 -14 -8.5 -22.5t-21.5 -8.5h-209q-13 0 -22 9t-9 22z" />
<glyph unicode="o" horiz-adv-x="1163" d="M61 500q0 145 69.5 266t189.5 190.5t262 69.5t261.5 -69.5t189 -190.5t69.5 -266t-69.5 -266.5t-189 -191t-261.5 -69.5t-262 69.5t-189.5 191t-69.5 266.5zM322 500q0 -120 75 -198.5t185 -78.5q109 0 184.5 78.5t75.5 198.5t-75.5 198t-184.5 78q-110 0 -185 -78 t-75 -198z" />
<glyph unicode="p" d="M92 -358v1331q0 13 9 22t22 9h188q28 0 31 -31l6 -94q130 147 305 147q138 0 249.5 -70t174 -190.5t62.5 -265.5t-62.5 -265.5t-174 -191t-249.5 -70.5q-171 0 -291 127v-458q0 -14 -8.5 -22.5t-21.5 -8.5h-209q-13 0 -22 8.5t-9 22.5zM365 502q0 -116 73.5 -199.5 t182.5 -83.5q112 0 185 80.5t73 202.5q0 120 -73 199t-185 79q-109 0 -182.5 -81.5t-73.5 -196.5z" />
<glyph unicode="q" d="M61 500q0 145 62.5 265.5t174 190.5t249.5 70q175 0 305 -147l6 94q3 31 31 31h188q13 0 22 -9t9 -22v-1331q0 -14 -9 -22.5t-22 -8.5h-209q-13 0 -21.5 8.5t-8.5 22.5v458q-120 -127 -291 -127q-138 0 -249.5 70.5t-174 191t-62.5 265.5zM322 502q0 -122 73 -202.5 t185 -80.5q109 0 182.5 83.5t73.5 199.5q0 115 -73.5 196.5t-182.5 81.5q-112 0 -185 -79t-73 -199z" />
<glyph unicode="r" horiz-adv-x="763" d="M92 31v942q0 13 9 22t22 9h199q27 0 30 -31l8 -111q91 164 256 164q81 0 136 -47q14 -10 14 -25q0 -8 -4 -16l-62 -152q-11 -30 -45 -20q-47 14 -84 14q-94 0 -151.5 -61.5t-57.5 -155.5v-532q0 -14 -8.5 -22.5t-21.5 -8.5h-209q-13 0 -22 9t-9 22z" />
<glyph unicode="s" horiz-adv-x="876" d="M59 141q-8 9 -7.5 19t7.5 22l80 113q16 21 45 -2q142 -92 250 -92q56 0 92.5 20t36.5 64q0 28 -21 50.5t-55 37.5t-77.5 31.5t-89 31.5t-89 40.5t-77.5 56t-55 79t-21 109.5q0 139 103 222t245 83q98 0 190 -40t154 -112q17 -20 -2 -43l-78 -102q-16 -21 -45 2 q-67 43 -106.5 60.5t-89.5 17.5q-48 0 -79.5 -24t-31.5 -62q0 -33 27 -56.5t70 -39t95 -31t103.5 -39t94.5 -56t70 -89t27 -131.5q0 -93 -58 -165t-144 -107.5t-181 -35.5q-120 0 -221.5 49t-161.5 119z" />
<glyph unicode="t" horiz-adv-x="722" d="M51 813v160q0 13 8.5 22t22.5 9h143v276q0 14 8.5 22.5t22.5 8.5h209q13 0 22 -8.5t9 -22.5v-276h143q13 0 22 -9t9 -22v-160q0 -13 -9 -22t-22 -9h-143v-751q0 -13 -9 -22t-22 -9h-209q-14 0 -22.5 9t-8.5 22v751h-143q-14 0 -22.5 9t-8.5 22z" />
<glyph unicode="u" horiz-adv-x="1124" d="M82 397v576q0 13 9 22t22 9h209q13 0 21.5 -8.5t8.5 -22.5v-527q0 -115 56 -169t137 -54q68 0 119.5 34.5t74.5 78t23 82.5v555q0 13 9 22t22 9h208q13 0 22 -9t9 -22v-942q0 -13 -9 -22t-22 -9h-200q-28 0 -31 31l-8 112q-56 -78 -132 -124t-167 -46q-172 0 -276.5 113 t-104.5 311z" />
<glyph unicode="v" horiz-adv-x="1126" d="M45 969q-3 9 -3 15q0 20 28 20h211q27 0 36 -25l246 -664l244 664q9 25 37 25h211q27 0 27 -20q0 -7 -3 -15l-374 -944q-9 -25 -37 -25h-209q-28 0 -37 25z" />
<glyph unicode="w" horiz-adv-x="1826" d="M45 969q-3 9 -3 15q0 20 28 20h204q28 0 37 -25l232 -666l237 666q7 17 21 20q10 5 16 5h193q6 0 16 -5q14 -3 21 -20l239 -666l227 666q9 25 37 25h205q28 0 28 -20q0 -6 -3 -15l-350 -944q-9 -25 -37 -25h-203q-28 0 -37 25l-240 626l-239 -626q-9 -25 -37 -25h-205 q-28 0 -37 25z" />
<glyph unicode="x" horiz-adv-x="1101" d="M65 11q-2 4 -2 8q0 8 7 18l327 477l-311 453q-11 15 -5 26t25 11h238q22 0 37 -21l170 -264l170 264q15 21 37 21h237q19 0 25 -11t-4 -26l-311 -453l327 -477q7 -10 7 -18q0 -4 -2 -8q-6 -11 -25 -11h-238q-23 0 -37 20l-186 289l-186 -289q-14 -20 -37 -20h-238 q-19 0 -25 11z" />
<glyph unicode="y" horiz-adv-x="1130" d="M45 969q-3 9 -3 15q0 20 28 20h211q27 0 36 -25l246 -664l244 664q9 25 37 25h215q27 0 27 -20q0 -6 -3 -15l-530 -1334q-9 -24 -37 -24h-205q-39 0 -24 35l145 352z" />
<glyph unicode="z" horiz-adv-x="952" d="M51 31v168q0 24 15 39l509 544h-493q-14 0 -22.5 9t-8.5 22v160q0 13 8.5 22t22.5 9h786q14 0 22.5 -9t8.5 -22v-168q0 -25 -14 -39l-508 -545h491q14 0 22.5 -8.5t8.5 -22.5v-159q0 -13 -8.5 -22t-22.5 -9h-786q-14 0 -22.5 9t-8.5 22z" />
<glyph unicode="{" horiz-adv-x="714" d="M109 647l69 111q10 18 10 39v528q0 56 18.5 97t48.5 62.5t63 31.5t69 10h195q13 0 21.5 -8.5t8.5 -22.5v-160q0 -13 -8 -21.5t-22 -8.5h-41q-33 0 -52.5 -17t-19.5 -49v-453q0 -18 -12 -36l-74 -101q-15 -21 0 -43l74 -98q12 -18 12 -37v-451q0 -32 19.5 -48.5 t52.5 -16.5h41q13 0 21.5 -8.5t8.5 -22.5v-160q0 -14 -8 -22t-22 -8h-195q-37 0 -69.5 10t-63 31.5t-48.5 62t-18 96.5v527q0 24 -10 39l-67 106q-13 22 -2 41z" />
<glyph unicode="|" horiz-adv-x="505" d="M113 -358v1966q0 14 8.5 22t21.5 8h219q14 0 22.5 -8.5t8.5 -21.5v-1966q0 -14 -8.5 -22.5t-22.5 -8.5h-219q-13 0 -21.5 8.5t-8.5 22.5z" />
<glyph unicode="}" horiz-adv-x="659" d="M47 -76q0 14 8.5 22.5t22.5 8.5h41q33 0 52 16.5t19 48.5v451q0 18 13 37l73 98q15 22 0 43l-73 101q-13 20 -13 36v453q0 32 -19 49t-52 17h-41q-14 0 -22.5 8.5t-8.5 21.5v160q0 13 8.5 22t22.5 9h194q36 0 69 -10t63 -31.5t48.5 -62.5t18.5 -97v-528q0 -21 10 -39 l70 -111q11 -19 -2 -41l-68 -106q-10 -15 -10 -39v-527q0 -56 -18 -96.5t-48.5 -62t-63 -31.5t-69.5 -10h-194q-14 0 -22.5 8.5t-8.5 21.5v160z" />
<glyph unicode="~" horiz-adv-x="1021" d="M102 526q13 110 76 166t160 56q49 0 93.5 -16.5t77.5 -39.5t63.5 -46t64.5 -39.5t68 -16.5q37 0 63.5 19.5t36.5 45.5q9 19 24 19h68q23 0 23 -23q-1 -112 -68 -170.5t-168 -58.5q-49 0 -93.5 16.5t-77.5 39.5t-63.5 46t-64 39.5t-66.5 16.5q-39 0 -66.5 -19t-37.5 -45 q-6 -18 -25 -18h-65q-11 0 -17.5 8t-5.5 20z" />
<glyph unicode="&#xa1;" horiz-adv-x="477" d="M143 942q0 63 43.5 106.5t106.5 43.5q62 0 104.5 -43.5t42.5 -106.5q0 -62 -43 -104.5t-104 -42.5q-63 0 -106.5 42.5t-43.5 104.5zM145 -215l72 823q3 29 31 29h90q28 0 31 -29l69 -823q7 -76 -36 -123t-111 -47q-67 0 -110 47t-36 123z" />
<glyph unicode="&#xa2;" horiz-adv-x="1026" d="M61 643q0 193 119 335t303 173v252q0 13 8.5 22t22.5 9h121q13 0 22 -9t9 -22v-252q171 -29 295 -166q18 -22 -3 -43l-124 -119q-20 -20 -46 2q-67 60 -122 76v-516q64 18 129 76q24 21 45 0l125 -117q21 -22 2 -41q-122 -138 -301 -168v-186q0 -13 -9 -22t-22 -9h-121 q-14 0 -22.5 9t-8.5 22v186q-184 31 -303 173t-119 335zM322 643q0 -89 43.5 -157t117.5 -97v508q-74 -30 -117.5 -97t-43.5 -157z" />
<glyph unicode="&#xa3;" horiz-adv-x="1163" d="M102 573v189q0 14 9 22.5t22 8.5h90q-59 113 -59 243q0 118 60.5 213.5t161 148t218.5 52.5q132 0 238 -56t207 -157q24 -24 -2 -59l-91 -121q-22 -31 -63 2q-83 69 -138.5 93t-127.5 24q-78 0 -129.5 -46.5t-51.5 -128.5q0 -25 4 -47.5t14 -45.5t17.5 -36.5t24 -40.5 t22.5 -38h435q13 0 21.5 -8.5t8.5 -22.5v-189q0 -13 -8.5 -21.5t-21.5 -8.5h-359v-13q0 -152 -133 -282h535q13 0 21.5 -8.5t8.5 -22.5v-186q0 -14 -8.5 -22.5t-21.5 -8.5h-867q-13 0 -21.5 8.5t-8.5 22.5v217q43 22 76.5 44.5t68.5 58t55 84.5t21 108h-197q-14 0 -22.5 8.5 t-8.5 21.5z" />
<glyph unicode="&#xa4;" horiz-adv-x="1208" d="M113 655l90 90q-62 108 -62 230q0 126 64 235l-92 93l143 141l88 -88q118 78 256 78q141 0 260 -82l92 92l144 -141l-99 -99q62 -108 62 -229q0 -118 -58 -225l95 -95l-144 -141l-86 86q-120 -84 -266 -84q-141 0 -260 82l-84 -84zM324 975q0 -46 18 -93.5t50.5 -89 t87 -68t120.5 -26.5q67 0 122 26.5t88.5 68t52 89t18.5 93.5q0 45 -18.5 92.5t-52 89t-89 68t-121.5 26.5q-87 0 -152 -45.5t-94.5 -107t-29.5 -123.5z" />
<glyph unicode="&#xa5;" horiz-adv-x="1257" d="M68 1397q-19 37 20 37h231q25 0 37 -21l273 -479l272 479q12 21 37 21h229q40 0 21 -37l-418 -729h166q14 0 22.5 -9t8.5 -22v-139q0 -14 -8.5 -22.5t-22.5 -8.5h-168v-84h168q14 0 22.5 -8.5t8.5 -22.5v-139q0 -13 -8.5 -22t-22.5 -9h-168v-151q0 -13 -9 -22t-22 -9 h-219q-14 0 -22.5 9t-8.5 22v151h-165q-14 0 -22.5 9t-8.5 22v139q0 14 8.5 22.5t22.5 8.5h165v84h-165q-14 0 -22.5 8.5t-8.5 22.5v139q0 13 8.5 22t22.5 9h165v4z" />
<glyph unicode="&#xa6;" horiz-adv-x="505" d="M113 215q0 14 8.5 22.5t21.5 8.5h219q14 0 22.5 -9t8.5 -22v-573q0 -14 -8.5 -22.5t-22.5 -8.5h-219q-13 0 -21.5 8.5t-8.5 22.5v573zM113 1034v574q0 14 8.5 22t21.5 8h219q14 0 22.5 -8.5t8.5 -21.5v-574q0 -13 -8.5 -21.5t-22.5 -8.5h-219q-13 0 -21.5 8t-8.5 22z" />
<glyph unicode="&#xa7;" horiz-adv-x="1390" d="M74 100q-22 28 0 58l94 127q21 31 63 0q98 -75 183 -112.5t188 -37.5t164 41.5t61 116.5q0 53 -40 91t-103.5 63t-140.5 48.5t-154.5 56t-141 76t-103.5 117.5t-40 173q0 121 58.5 212t159.5 142q12 113 79 197.5t168 126.5t222 42q266 0 479 -213q23 -26 -2 -59 l-92 -121q-19 -28 -64 2q-94 66 -162.5 94.5t-152.5 28.5q-93 0 -143 -40t-50 -103q0 -42 25 -74.5t67 -54.5t96 -40.5t114 -37.5t120.5 -41t114.5 -55t96 -75.5t67 -107t25 -145.5q0 -118 -58.5 -207t-158.5 -143q-13 -120 -90.5 -208.5t-187.5 -130.5t-236 -42 q-171 0 -307.5 67.5t-216.5 167.5zM389 920q0 -58 47 -98.5t123.5 -66t159 -50t170 -68t139.5 -102.5q14 25 14 65q0 57 -46.5 97.5t-123 67t-158.5 52t-169 68.5t-139 100q-17 -31 -17 -65z" />
<glyph unicode="&#xa8;" horiz-adv-x="737" d="M10 1307q0 58 40 97.5t97 39.5q56 0 97 -39.5t41 -97.5t-41 -98t-97 -40q-57 0 -97 40t-40 98zM453 1307q0 58 40.5 97.5t96.5 39.5t96.5 -39.5t40.5 -97.5t-40.5 -98t-96.5 -40t-96.5 40t-40.5 98z" />
<glyph unicode="&#xa9;" horiz-adv-x="1323" d="M72 864q0 159 79.5 294t215.5 213.5t295 78.5t295 -78.5t215 -213.5t79 -294q0 -119 -47 -227.5t-126 -187t-188 -124.5t-228 -46q-160 0 -295.5 78t-215 213t-79.5 294zM242 864q0 -178 122.5 -302t297.5 -124q177 0 298 123.5t121 302.5t-121 302.5t-298 123.5 q-175 0 -297.5 -124t-122.5 -302zM383 864q0 123 85.5 208t205.5 85q100 0 174 -61q21 -18 0 -43l-51 -54q-13 -16 -41 -2q-40 19 -78 19q-63 0 -106.5 -44.5t-43.5 -107.5t43.5 -107t106.5 -44q37 0 78 18q28 13 41 -2l51 -53q20 -24 -2 -43q-71 -62 -172 -62 q-120 0 -205.5 85t-85.5 208z" />
<glyph unicode="&#xaa;" horiz-adv-x="862" d="M61 1071q0 155 109 264t264 109q99 0 178 -60l17 50h170v-736h-170l-17 60q-79 -60 -178 -60q-155 0 -264 109t-109 264zM252 1071q0 -77 53 -129.5t129 -52.5q77 0 130.5 53t53.5 129q0 77 -54 130.5t-130 53.5t-129 -53.5t-53 -130.5z" />
<glyph unicode="&#xab;" horiz-adv-x="759" d="M72 492v155q0 24 16 37l221 197q13 12 25 6.5t12 -25.5v-133q0 -24 -16 -37l-146 -123l146 -125q16 -13 16 -36v-132q0 -20 -12 -25t-25 7l-221 197q-16 13 -16 37zM414 492v155q0 24 16 37l221 197q13 12 25 6.5t12 -25.5v-133q0 -24 -16 -37l-146 -123l146 -125 q16 -13 16 -36v-132q0 -20 -12 -25t-25 7l-221 197q-16 13 -16 37z" />
<glyph unicode="&#xac;" horiz-adv-x="1071" d="M102 449v159q0 14 9 22.5t22 8.5h805q14 0 22.5 -8.5t8.5 -22.5v-313q0 -13 -8.5 -22t-22.5 -9h-205q-13 0 -22 9t-9 22v123h-569q-13 0 -22 9t-9 22z" />
<glyph unicode="&#xad;" horiz-adv-x="798" d="M92 487v160q0 13 9 22t22 9h553q14 0 22.5 -9t8.5 -22v-160q0 -13 -8.5 -21.5t-22.5 -8.5h-553q-14 0 -22.5 8.5t-8.5 21.5z" />
<glyph unicode="&#xae;" horiz-adv-x="1323" d="M72 864q0 159 79.5 294t215.5 213.5t295 78.5t295 -78.5t215 -213.5t79 -294q0 -119 -47 -227.5t-126 -187t-188 -124.5t-228 -46q-160 0 -295.5 78t-215 213t-79.5 294zM242 864q0 -178 122.5 -302t297.5 -124q177 0 298 123.5t121 302.5t-121 302.5t-298 123.5 q-175 0 -297.5 -124t-122.5 -302zM422 614v500q0 16 16 16h277q104 0 166.5 -45t62.5 -139q0 -75 -39 -119.5t-108 -58.5l145 -150q6 -8 3.5 -14t-11.5 -6h-125q-13 0 -21 8l-143 154h-84v-146q0 -16 -14 -16h-109q-16 0 -16 16zM561 877h156q39 0 60.5 18t21.5 51 q0 32 -22 50t-60 18h-156v-137z" />
<glyph unicode="&#xaf;" horiz-adv-x="698" d="M10 1253v150q0 13 9 22t22 9h616q13 0 22 -9t9 -22v-150q0 -13 -8.5 -21.5t-22.5 -8.5h-616q-14 0 -22.5 8.5t-8.5 21.5z" />
<glyph unicode="&#xb0;" horiz-adv-x="811" d="M102 1174q0 123 89.5 211t214.5 88t214 -88t89 -211q0 -126 -89 -215t-214 -89t-214.5 89t-89.5 215zM272 1174q0 -52 35.5 -95t98.5 -43q62 0 97.5 43t35.5 95q0 49 -35.5 91t-97.5 42t-98 -42t-36 -91z" />
<glyph unicode="&#xb1;" horiz-adv-x="983" d="M113 31v139q0 14 8.5 22.5t21.5 8.5h697q13 0 21.5 -8.5t8.5 -22.5v-139q0 -14 -8.5 -22.5t-21.5 -8.5h-697q-13 0 -21.5 8.5t-8.5 22.5zM133 569v140q0 13 8.5 21.5t22.5 8.5h227v228q0 13 8.5 21.5t22.5 8.5h139q14 0 22.5 -8.5t8.5 -21.5v-228h227q14 0 22.5 -8.5 t8.5 -21.5v-140q0 -13 -8.5 -21.5t-22.5 -8.5h-227v-228q0 -13 -8.5 -21.5t-22.5 -8.5h-139q-14 0 -22.5 8.5t-8.5 21.5v228h-227q-14 0 -22.5 8.5t-8.5 21.5z" />
<glyph unicode="&#xb2;" horiz-adv-x="495" d="M72 1247v29q0 72 50.5 119t121.5 47q70 0 121 -46.5t51 -107.5q0 -54 -29.5 -96t-110.5 -125l-96 -100h242v-66h-344v66l139 141q58 60 75 79t31.5 46t14.5 55q0 38 -28.5 64t-65.5 26q-39 0 -68 -26.5t-29 -75.5v-29h-75z" />
<glyph unicode="&#xb3;" horiz-adv-x="518" d="M72 1079h78q-9 -47 24 -84t84 -37q46 0 78.5 28t32.5 71q0 56 -41 78.5t-111 13.5v63q129 6 129 88q0 31 -26 53.5t-62 22.5q-44 0 -71 -31t-23 -85h-78q-6 77 45 128.5t127 51.5q65 0 114.5 -42.5t49.5 -97.5q0 -64 -62 -108q38 -16 62 -50.5t24 -84.5q0 -69 -56 -116.5 t-132 -47.5q-85 0 -138.5 55.5t-47.5 130.5z" />
<glyph unicode="&#xb4;" horiz-adv-x="395" d="M14 1208l123 258q11 25 35 25h184q18 0 25 -9t0 -26l-123 -258q-11 -24 -35 -24h-184q-40 0 -25 34z" />
<glyph unicode="&#xb5;" horiz-adv-x="1124" d="M82 -358v1331q0 13 9 22t22 9h209q13 0 21.5 -8.5t8.5 -22.5v-527q0 -115 56 -169t137 -54q68 0 119.5 34.5t74.5 78t23 82.5v555q0 13 9 22t22 9h208q13 0 22 -9t9 -22v-942q0 -13 -9 -22t-22 -9h-200q-28 0 -31 31l-8 112q-56 -78 -132 -124t-167 -46q-59 0 -111 15 v-346q0 -14 -8.5 -22.5t-21.5 -8.5h-209q-13 0 -22 8.5t-9 22.5z" />
<glyph unicode="&#xb6;" horiz-adv-x="1613" d="M72 967q0 210 136.5 338.5t383.5 128.5h424q14 0 22.5 -9t8.5 -22v-1372q0 -13 -8.5 -22t-22.5 -9h-219q-13 0 -22 9t-9 22v467h-174q-247 0 -383.5 129t-136.5 340zM340 967q0 -80 38.5 -131t93.5 -69.5t126 -18.5h168v438h-168q-111 0 -184.5 -52t-73.5 -167zM1221 31 v1372q0 14 8.5 22.5t21.5 8.5h219q14 0 22.5 -9t8.5 -22v-1372q0 -13 -8.5 -22t-22.5 -9h-219q-13 0 -21.5 8.5t-8.5 22.5z" />
<glyph unicode="&#xb7;" horiz-adv-x="477" d="M72 575q0 62 43 105t106 43q61 0 104.5 -43.5t43.5 -104.5q0 -63 -43 -106t-105 -43q-63 0 -106 43t-43 106z" />
<glyph unicode="&#xb8;" horiz-adv-x="397" d="M10 -102q0 14 10 24l80 78h181l-76 -68q74 -7 128 -52t54 -118q0 -66 -31.5 -113t-82.5 -68.5t-115 -29.5t-129 5q-19 3 -19 22v94q0 21 23 21q82 -9 126 6.5t44 50.5q0 32 -48 45.5t-120 -8.5q-11 -5 -18 -0.5t-7 14.5v97z" />
<glyph unicode="&#xb9;" horiz-adv-x="286" d="M61 1362v74h132v-535h-76v461h-56z" />
<glyph unicode="&#xba;" horiz-adv-x="870" d="M61 1071q0 155 109 264t264 109t264 -109t109 -264t-109 -264t-264 -109t-264 109t-109 264zM252 1071q0 -77 53 -129.5t129 -52.5q77 0 130.5 53t53.5 129q0 77 -54 130.5t-130 53.5t-129 -53.5t-53 -130.5z" />
<glyph unicode="&#xbb;" horiz-adv-x="759" d="M72 276v132q0 23 16 36l145 125l-145 123q-16 13 -16 37v133q0 20 12 25.5t25 -6.5l221 -197q16 -13 16 -37v-155q0 -24 -16 -37l-221 -197q-13 -12 -25 -7t-12 25zM414 276v132q0 23 16 36l145 125l-145 123q-16 13 -16 37v133q0 20 12 25.5t25 -6.5l221 -197 q16 -13 16 -37v-155q0 -24 -16 -37l-221 -197q-13 -12 -25 -7t-12 25z" />
<glyph unicode="&#xbc;" horiz-adv-x="1185" d="M68 1362v74h131v-535h-76v461h-55zM82 0l893 1434h86l-881 -1434h-98zM723 156l270 379h76v-316h55v-63h-55v-156h-76v156h-270zM850 219h143v205z" />
<glyph unicode="&#xbd;" horiz-adv-x="1134" d="M68 1362v74h131v-535h-76v461h-55zM82 0l893 1434h86l-881 -1434h-98zM723 346v29q0 72 50.5 119t121.5 47q70 0 121 -46.5t51 -107.5q0 -54 -29.5 -96.5t-109.5 -124.5l-97 -100h242v-66h-344v66l139 141q58 60 75 79t31.5 46t14.5 55q0 38 -28.5 64t-65.5 26 q-39 0 -67.5 -26.5t-28.5 -75.5v-29h-76z" />
<glyph unicode="&#xbe;" horiz-adv-x="1222" d="M61 1079h78q-9 -47 24.5 -84t84.5 -37q45 0 77.5 28t32.5 71q0 57 -40.5 79t-110.5 13v63q129 6 129 88q0 31 -26 53.5t-62 22.5q-44 0 -71 -31t-23 -85h-78q-6 77 45 128.5t127 51.5q65 0 114.5 -42.5t49.5 -97.5q0 -64 -62 -108q38 -16 62 -50.5t24 -84.5 q0 -69 -56 -116.5t-132 -47.5q-85 0 -139 55.5t-48 130.5zM139 0l893 1434h86l-880 -1434h-99zM760 156l270 379h76v-316h55v-63h-55v-156h-76v156h-270zM887 219h143v205z" />
<glyph unicode="&#xbf;" horiz-adv-x="1054" d="M72 2q0 142 80.5 236t273.5 190l14 178q3 31 31 31h162q28 0 31 -31l18 -289q3 -24 -27 -34q-118 -37 -186 -77.5t-91.5 -78.5t-23.5 -88q0 -71 59 -112.5t136 -41.5q79 0 145 32t133 91q38 33 64 0l98 -121q25 -32 2 -61q-78 -94 -198 -152.5t-263 -58.5 q-120 0 -224.5 47.5t-169 137.5t-64.5 202zM403 942q0 63 43 106.5t105 43.5q63 0 106 -43.5t43 -106.5q0 -62 -43 -104.5t-106 -42.5q-62 0 -105 43t-43 104z" />
<glyph unicode="&#xc0;" horiz-adv-x="1363" d="M45 35l498 1374q9 25 35 25h204q30 0 39 -25l498 -1374q6 -15 -1 -25t-24 -10h-227q-27 0 -35 25l-84 247h-532l-84 -247q-8 -25 -35 -25h-227q-17 0 -24 10t-1 25zM418 1825q-15 35 24 35h185q24 0 35 -25l122 -258q15 -35 -24 -35h-185q-23 0 -34 25zM494 510h376 l-188 559z" />
<glyph unicode="&#xc1;" horiz-adv-x="1363" d="M45 35l498 1374q9 25 35 25h204q30 0 39 -25l498 -1374q6 -15 -1 -25t-24 -10h-227q-27 0 -35 25l-84 247h-532l-84 -247q-8 -25 -35 -25h-227q-17 0 -24 10t-1 25zM494 510h376l-188 559zM582 1577l123 258q11 25 34 25h185q39 0 24 -35l-123 -258q-11 -25 -34 -25h-185 q-39 0 -24 35z" />
<glyph unicode="&#xc2;" horiz-adv-x="1363" d="M45 35l498 1374q9 25 35 25h204q30 0 39 -25l498 -1374q6 -15 -1 -25t-24 -10h-227q-27 0 -35 25l-84 247h-532l-84 -247q-8 -25 -35 -25h-227q-17 0 -24 10t-1 25zM374 1596.5q-5 11.5 7 25.5l197 221q14 17 36 17h156q23 0 37 -17l197 -221q12 -14 6.5 -25.5 t-25.5 -11.5h-133q-23 0 -37 17l-123 145l-125 -145q-14 -17 -37 -17h-131q-20 0 -25 11.5zM494 510h376l-188 559z" />
<glyph unicode="&#xc3;" horiz-adv-x="1363" d="M45 35l498 1374q9 25 35 25h204q30 0 39 -25l498 -1374q6 -15 -1 -25t-24 -10h-227q-27 0 -35 25l-84 247h-532l-84 -247q-8 -25 -35 -25h-227q-17 0 -24 10t-1 25zM322 1702q7 99 66 151t149 52q54 0 103.5 -22.5t80.5 -49.5t71 -49.5t76 -22.5q35 0 60 17t35 41 q6 16 22 16h59q21 0 21 -20q-6 -102 -65 -154.5t-150 -52.5q-54 0 -103.5 22t-81 48.5t-71.5 48.5t-76 22q-35 0 -59.5 -16.5t-34.5 -40.5q-7 -17 -23 -17h-59q-20 0 -20 27zM494 510h376l-188 559z" />
<glyph unicode="&#xc4;" horiz-adv-x="1363" d="M45 35l498 1374q9 25 35 25h204q30 0 39 -25l498 -1374q6 -15 -1 -25t-24 -10h-227q-27 0 -35 25l-84 247h-532l-84 -247q-8 -25 -35 -25h-227q-17 0 -24 10t-1 25zM334 1737q0 58 40 97.5t97 39.5q56 0 96.5 -39.5t40.5 -97.5t-40.5 -98t-96.5 -40q-57 0 -97 40t-40 98z M494 510h376l-188 559zM776 1737q0 58 40.5 97.5t96.5 39.5t97 -39.5t41 -97.5t-41 -98t-97 -40t-96.5 40t-40.5 98z" />
<glyph unicode="&#xc5;" horiz-adv-x="1363" d="M45 35l498 1374q9 25 35 25h204q30 0 39 -25l498 -1374q6 -15 -1 -25t-24 -10h-227q-27 0 -35 25l-84 247h-532l-84 -247q-8 -25 -35 -25h-227q-17 0 -24 10t-1 25zM485 1739q0 84 61 144.5t148 60.5q82 0 142.5 -61t60.5 -144q0 -82 -60.5 -142.5t-142.5 -60.5 q-87 0 -148 60t-61 143zM494 510h376l-188 559zM643 1741q0 -20 14.5 -34.5t34.5 -14.5t34.5 14.5t14.5 34.5t-14.5 34.5t-34.5 14.5t-34.5 -14.5t-14.5 -34.5z" />
<glyph unicode="&#xc6;" horiz-adv-x="1728" d="M45 35l604 1374q9 25 35 25h909q13 0 22 -9t9 -22v-186q0 -13 -9 -22t-22 -9h-503v-324h473q13 0 21.5 -8.5t8.5 -22.5v-186q0 -14 -8.5 -22.5t-21.5 -8.5h-473v-366h505q13 0 22 -9t9 -22v-186q0 -13 -9 -22t-22 -9h-755q-14 0 -22.5 9t-8.5 22v264h-365l-110 -270 q-11 -25 -35 -25h-229q-17 0 -24 10t-1 25zM543 535h266v645z" />
<glyph unicode="&#xc7;" horiz-adv-x="1382" d="M72 711q0 153 58 290t156.5 235.5t235 156t287.5 57.5q146 0 274 -54.5t226 -152.5q21 -21 0 -43l-135 -145q-20 -23 -44 -2q-139 123 -323 123q-188 0 -317.5 -133.5t-129.5 -331.5q0 -197 129.5 -330t317.5 -133q184 0 323 123q24 21 44 -2l135 -146q21 -21 0 -43 q-187 -187 -445 -205l-49 -43q74 -7 128 -52t54 -118q0 -66 -31.5 -113t-82.5 -68.5t-115 -29.5t-129 5q-18 3 -18 22v94q0 21 22 21q82 -9 126 6.5t44 50.5q0 32 -48 45.5t-120 -8.5q-11 -4 -17.5 -0.5t-6.5 14.5v97q0 14 10 24l61 60q-266 42 -443 247t-177 482z" />
<glyph unicode="&#xc8;" horiz-adv-x="1032" d="M113 31v1372q0 14 8.5 22.5t21.5 8.5h754q13 0 22 -9t9 -22v-186q0 -13 -9 -22t-22 -9h-504v-324h473q14 0 22.5 -9t8.5 -22v-186q0 -13 -8.5 -22t-22.5 -9h-473v-366h506q13 0 22 -9t9 -22v-186q0 -13 -9 -22t-22 -9h-756q-13 0 -21.5 8.5t-8.5 22.5zM254 1825 q-7 17 0 26t25 9h184q24 0 35 -25l123 -258q7 -17 0 -26t-25 -9h-184q-24 0 -35 25z" />
<glyph unicode="&#xc9;" horiz-adv-x="1032" d="M113 31v1372q0 14 8.5 22.5t21.5 8.5h754q13 0 22 -9t9 -22v-186q0 -13 -9 -22t-22 -9h-504v-324h473q14 0 22.5 -9t8.5 -22v-186q0 -13 -8.5 -22t-22.5 -9h-473v-366h506q13 0 22 -9t9 -22v-186q0 -13 -9 -22t-22 -9h-756q-13 0 -21.5 8.5t-8.5 22.5zM418 1577l123 258 q11 25 34 25h185q39 0 24 -35l-122 -258q-11 -25 -35 -25h-185q-39 0 -24 35z" />
<glyph unicode="&#xca;" horiz-adv-x="1032" d="M113 31v1372q0 14 8.5 22.5t21.5 8.5h754q13 0 22 -9t9 -22v-186q0 -13 -9 -22t-22 -9h-504v-324h473q14 0 22.5 -9t8.5 -22v-186q0 -13 -8.5 -22t-22.5 -9h-473v-366h506q13 0 22 -9t9 -22v-186q0 -13 -9 -22t-22 -9h-756q-13 0 -21.5 8.5t-8.5 22.5zM210.5 1596.5 q-5.5 11.5 6.5 25.5l197 221q14 17 37 17h155q23 0 37 -17l197 -221q12 -14 6.5 -25.5t-25.5 -11.5h-133q-23 0 -37 17l-123 145l-125 -145q-14 -17 -36 -17h-131q-20 0 -25.5 11.5z" />
<glyph unicode="&#xcb;" horiz-adv-x="1032" d="M113 31v1372q0 14 8.5 22.5t21.5 8.5h754q13 0 22 -9t9 -22v-186q0 -13 -9 -22t-22 -9h-504v-324h473q14 0 22.5 -9t8.5 -22v-186q0 -13 -8.5 -22t-22.5 -9h-473v-366h506q13 0 22 -9t9 -22v-186q0 -13 -9 -22t-22 -9h-756q-13 0 -21.5 8.5t-8.5 22.5zM170 1737 q0 58 40 97.5t97 39.5q56 0 96.5 -39.5t40.5 -97.5t-40.5 -98t-96.5 -40q-57 0 -97 40t-40 98zM612 1737q0 58 41 97.5t97 39.5t96.5 -39.5t40.5 -97.5t-40.5 -98t-96.5 -40t-97 40t-41 98z" />
<glyph unicode="&#xcc;" horiz-adv-x="505" d="M-20 1825q-15 35 24 35h184q24 0 35 -25l123 -258q15 -35 -24 -35h-185q-24 0 -35 25zM113 31v1372q0 14 8.5 22.5t21.5 8.5h219q14 0 22.5 -9t8.5 -22v-1372q0 -13 -8.5 -22t-22.5 -9h-219q-13 0 -21.5 8.5t-8.5 22.5z" />
<glyph unicode="&#xcd;" horiz-adv-x="505" d="M113 31v1372q0 14 8.5 22.5t21.5 8.5h219q14 0 22.5 -9t8.5 -22v-1372q0 -13 -8.5 -22t-22.5 -9h-219q-13 0 -21.5 8.5t-8.5 22.5zM143 1551q-7 9 0 26l123 258q11 25 35 25h184q18 0 25 -9t0 -26l-123 -258q-11 -25 -35 -25h-184q-18 0 -25 9z" />
<glyph unicode="&#xce;" horiz-adv-x="505" d="M-64 1596.5q-5 11.5 7 25.5l196 221q14 17 37 17h156q23 0 37 -17l196 -221q12 -14 7 -25.5t-25 -11.5h-133q-23 0 -37 17l-123 145l-125 -145q-14 -17 -37 -17h-131q-20 0 -25 11.5zM113 31v1372q0 14 8.5 22.5t21.5 8.5h219q14 0 22.5 -9t8.5 -22v-1372q0 -13 -8.5 -22 t-22.5 -9h-219q-13 0 -21.5 8.5t-8.5 22.5z" />
<glyph unicode="&#xcf;" horiz-adv-x="505" d="M-104 1737q0 58 40 97.5t97 39.5q56 0 96.5 -39.5t40.5 -97.5t-40.5 -98t-96.5 -40q-57 0 -97 40t-40 98zM113 31v1372q0 14 8.5 22.5t21.5 8.5h219q14 0 22.5 -9t8.5 -22v-1372q0 -13 -8.5 -22t-22.5 -9h-219q-13 0 -21.5 8.5t-8.5 22.5zM338 1737q0 58 40.5 97.5 t96.5 39.5t96.5 -39.5t40.5 -97.5t-40.5 -98t-96.5 -40t-96.5 40t-40.5 98z" />
<glyph unicode="&#xd0;" horiz-adv-x="1376" d="M31 631v149q0 14 8.5 22.5t21.5 8.5h68v592q0 13 8.5 22t22.5 9h403q145 0 267 -36t210.5 -101.5t151 -155t93 -197t30.5 -227.5t-30.5 -227.5t-93 -197t-151 -155t-210.5 -101.5t-267 -36h-403q-14 0 -22.5 9t-8.5 22v569h-68q-13 0 -21.5 8.5t-8.5 22.5zM410 248h153 q230 0 348.5 122.5t118.5 346.5t-118.5 346.5t-348.5 122.5h-153v-375h268q14 0 22.5 -8.5t8.5 -22.5v-149q0 -13 -8.5 -22t-22.5 -9h-268v-352z" />
<glyph unicode="&#xd1;" horiz-adv-x="1376" d="M113 31v1372q0 14 8.5 22.5t21.5 8.5h252q25 0 37 -21l551 -973v963q0 13 8.5 22t22.5 9h219q13 0 22 -9t9 -22v-1372q0 -13 -9 -22t-22 -9h-252q-26 0 -37 20l-551 973v-962q0 -13 -8.5 -22t-22.5 -9h-219q-13 0 -21.5 8.5t-8.5 22.5zM317 1702q7 99 66 151t149 52 q54 0 103.5 -22.5t81 -49.5t71.5 -49.5t76 -22.5q34 0 59 17t35 41q6 16 23 16h59q21 0 21 -20q-6 -102 -65 -154.5t-150 -52.5q-54 0 -103.5 22t-81 48.5t-71.5 48.5t-76 22q-35 0 -59.5 -16.5t-34.5 -40.5q-7 -17 -23 -17h-59q-9 0 -15 7.5t-6 19.5z" />
<glyph unicode="&#xd2;" horiz-adv-x="1617" d="M72 711q0 152 58.5 289t157.5 235.5t235 156.5t286 58t286 -58t235 -156.5t157.5 -235.5t58.5 -289q0 -151 -58.5 -288t-157.5 -235.5t-235 -156.5t-286 -58t-286 58t-235 156.5t-157.5 235.5t-58.5 288zM352 711q0 -196 132.5 -331.5t324.5 -135.5t324.5 135.5 t132.5 331.5q0 198 -132.5 333.5t-324.5 135.5t-324.5 -135.5t-132.5 -333.5zM535 1825q-15 35 24 35h184q24 0 35 -25l123 -258q15 -35 -24 -35h-185q-24 0 -35 25z" />
<glyph unicode="&#xd3;" horiz-adv-x="1617" d="M72 711q0 152 58.5 289t157.5 235.5t235 156.5t286 58t286 -58t235 -156.5t157.5 -235.5t58.5 -289q0 -151 -58.5 -288t-157.5 -235.5t-235 -156.5t-286 -58t-286 58t-235 156.5t-157.5 235.5t-58.5 288zM352 711q0 -196 132.5 -331.5t324.5 -135.5t324.5 135.5 t132.5 331.5q0 198 -132.5 333.5t-324.5 135.5t-324.5 -135.5t-132.5 -333.5zM698 1551q-7 9 0 26l123 258q11 25 35 25h184q18 0 25 -9t0 -26l-123 -258q-11 -25 -35 -25h-184q-18 0 -25 9z" />
<glyph unicode="&#xd4;" horiz-adv-x="1617" d="M72 711q0 152 58.5 289t157.5 235.5t235 156.5t286 58t286 -58t235 -156.5t157.5 -235.5t58.5 -289q0 -151 -58.5 -288t-157.5 -235.5t-235 -156.5t-286 -58t-286 58t-235 156.5t-157.5 235.5t-58.5 288zM352 711q0 -196 132.5 -331.5t324.5 -135.5t324.5 135.5 t132.5 331.5q0 198 -132.5 333.5t-324.5 135.5t-324.5 -135.5t-132.5 -333.5zM491 1596.5q-5 11.5 7 25.5l196 221q14 17 37 17h156q23 0 37 -17l196 -221q12 -14 7 -25.5t-25 -11.5h-133q-23 0 -37 17l-123 145l-125 -145q-14 -17 -37 -17h-131q-20 0 -25 11.5z" />
<glyph unicode="&#xd5;" horiz-adv-x="1617" d="M72 711q0 152 58.5 289t157.5 235.5t235 156.5t286 58t286 -58t235 -156.5t157.5 -235.5t58.5 -289q0 -151 -58.5 -288t-157.5 -235.5t-235 -156.5t-286 -58t-286 58t-235 156.5t-157.5 235.5t-58.5 288zM352 711q0 -196 132.5 -331.5t324.5 -135.5t324.5 135.5 t132.5 331.5q0 198 -132.5 333.5t-324.5 135.5t-324.5 -135.5t-132.5 -333.5zM438 1702q7 99 66 151t149 52q54 0 103.5 -22.5t81 -49.5t71.5 -49.5t76 -22.5q34 0 59 17t35 41q6 16 23 16h59q21 0 21 -20q-6 -102 -65 -154.5t-150 -52.5q-54 0 -103.5 22t-81 48.5 t-71.5 48.5t-76 22q-35 0 -59.5 -16.5t-34.5 -40.5q-7 -17 -23 -17h-59q-9 0 -15 7.5t-6 19.5z" />
<glyph unicode="&#xd6;" horiz-adv-x="1617" d="M72 711q0 152 58.5 289t157.5 235.5t235 156.5t286 58t286 -58t235 -156.5t157.5 -235.5t58.5 -289q0 -151 -58.5 -288t-157.5 -235.5t-235 -156.5t-286 -58t-286 58t-235 156.5t-157.5 235.5t-58.5 288zM352 711q0 -196 132.5 -331.5t324.5 -135.5t324.5 135.5 t132.5 331.5q0 198 -132.5 333.5t-324.5 135.5t-324.5 -135.5t-132.5 -333.5zM451 1737q0 58 40 97.5t97 39.5q56 0 96.5 -39.5t40.5 -97.5t-40.5 -98t-96.5 -40q-57 0 -97 40t-40 98zM893 1737q0 58 40.5 97.5t96.5 39.5t96.5 -39.5t40.5 -97.5t-40.5 -98t-96.5 -40 t-96.5 40t-40.5 98z" />
<glyph unicode="&#xd7;" horiz-adv-x="849" d="M121 379q-20 23 0 43l162 162l-162 159q-19 23 0 45l98 99q23 19 45 0l160 -162l162 162q20 20 43 0l98 -99q19 -22 0 -45l-160 -159l160 -162q20 -20 0 -43l-98 -98q-23 -20 -43 0l-162 159l-160 -159q-22 -19 -45 0z" />
<glyph unicode="&#xd8;" horiz-adv-x="1617" d="M72 711q0 152 58.5 289t157.5 235.5t235 156.5t286 58q103 0 197 -27l36 80q10 23 35 23h203q17 0 23.5 -10t-0.5 -27l-78 -168q149 -100 235 -260.5t86 -349.5q0 -151 -58.5 -288t-157.5 -235.5t-235 -156.5t-286 -58q-103 0 -197 27l-37 -80q-9 -22 -34 -22h-203 q-18 0 -24 9.5t1 26.5l78 168q-149 100 -235 260.5t-86 348.5zM352 711q0 -105 42 -198t116 -159l379 820q-38 6 -80 6q-192 0 -324.5 -135.5t-132.5 -333.5zM729 250q38 -6 80 -6q192 0 324.5 135.5t132.5 331.5q0 106 -42 199t-116 159z" />
<glyph unicode="&#xd9;" horiz-adv-x="1292" d="M102 557v846q0 13 9 22t22 9h219q14 0 22.5 -9t8.5 -22v-846q0 -151 69 -230t195 -79q125 0 193.5 79t68.5 230v846q0 13 8.5 22t22.5 9h219q13 0 22 -9t9 -22v-846q0 -139 -40.5 -250.5t-113.5 -184t-172 -111t-217 -38.5q-243 0 -394 153.5t-151 430.5zM373 1825 q-15 35 24 35h185q23 0 34 -25l123 -258q15 -35 -24 -35h-185q-23 0 -34 25z" />
<glyph unicode="&#xda;" horiz-adv-x="1292" d="M102 557v846q0 13 9 22t22 9h219q14 0 22.5 -9t8.5 -22v-846q0 -151 69 -230t195 -79q125 0 193.5 79t68.5 230v846q0 13 8.5 22t22.5 9h219q13 0 22 -9t9 -22v-846q0 -139 -40.5 -250.5t-113.5 -184t-172 -111t-217 -38.5q-243 0 -394 153.5t-151 430.5zM537 1577 l122 258q11 25 35 25h185q39 0 24 -35l-123 -258q-11 -25 -35 -25h-184q-39 0 -24 35z" />
<glyph unicode="&#xdb;" horiz-adv-x="1292" d="M102 557v846q0 13 9 22t22 9h219q14 0 22.5 -9t8.5 -22v-846q0 -151 69 -230t195 -79q125 0 193.5 79t68.5 230v846q0 13 8.5 22t22.5 9h219q13 0 22 -9t9 -22v-846q0 -139 -40.5 -250.5t-113.5 -184t-172 -111t-217 -38.5q-243 0 -394 153.5t-151 430.5zM329 1596.5 q-5 11.5 7 25.5l196 221q14 17 37 17h156q23 0 37 -17l196 -221q12 -14 7 -25.5t-25 -11.5h-133q-23 0 -37 17l-123 145l-125 -145q-14 -17 -37 -17h-131q-20 0 -25 11.5z" />
<glyph unicode="&#xdc;" horiz-adv-x="1292" d="M102 557v846q0 13 9 22t22 9h219q14 0 22.5 -9t8.5 -22v-846q0 -151 69 -230t195 -79q125 0 193.5 79t68.5 230v846q0 13 8.5 22t22.5 9h219q13 0 22 -9t9 -22v-846q0 -139 -40.5 -250.5t-113.5 -184t-172 -111t-217 -38.5q-243 0 -394 153.5t-151 430.5zM289 1737 q0 58 40 97.5t97 39.5q56 0 96.5 -39.5t40.5 -97.5t-40.5 -98t-96.5 -40q-57 0 -97 40t-40 98zM731 1737q0 58 40.5 97.5t96.5 39.5t97 -39.5t41 -97.5t-41 -98t-97 -40t-96.5 40t-40.5 98z" />
<glyph unicode="&#xdd;" horiz-adv-x="1257" d="M68 1397q-19 37 20 37h231q25 0 37 -21l273 -479l272 479q12 21 37 21h229q40 0 21 -37l-420 -731v-635q0 -13 -9 -22t-22 -9h-219q-14 0 -22.5 9t-8.5 22v641zM518 1551q-7 9 0 26l123 258q11 25 35 25h184q18 0 25 -9t0 -26l-123 -258q-11 -25 -35 -25h-184 q-18 0 -25 9z" />
<glyph unicode="&#xde;" horiz-adv-x="1159" d="M113 31v1372q0 14 8.5 22.5t21.5 8.5h219q14 0 22.5 -9t8.5 -22v-219h195q251 0 385.5 -122.5t134.5 -344.5t-134.5 -344.5t-385.5 -122.5h-195v-219q0 -13 -8.5 -22t-22.5 -9h-219q-13 0 -21.5 8.5t-8.5 22.5zM393 498h176q131 0 201 49t70 170t-70 170t-201 49h-176 v-438z" />
<glyph unicode="&#xdf;" horiz-adv-x="1239" d="M113 31v977q0 139 67 237t177.5 143.5t254.5 45.5q138 0 248.5 -42t178 -129t67.5 -206q0 -90 -37 -159.5t-91 -106t-116 -43.5q140 -20 233 -107.5t93 -232.5q0 -218 -140.5 -313t-437.5 -95h-94q-14 0 -22.5 9t-8.5 22v149q0 14 8.5 22.5t22.5 8.5h94q164 0 241 46.5 t77 160.5q0 108 -84 150t-258 42h-70q-14 0 -22.5 9t-8.5 22v150q0 13 8.5 21.5t22.5 8.5h70q260 0 260 205q0 78 -63.5 121t-170.5 43q-117 0 -173 -42.5t-56 -139.5v-977q0 -13 -8.5 -22t-22.5 -9h-209q-13 0 -21.5 8.5t-8.5 22.5z" />
<glyph unicode="&#xe0;" d="M61 500q0 145 62.5 265.5t174 190.5t249.5 70q175 0 305 -147l6 94q3 31 31 31h188q13 0 22 -9t9 -22v-942q0 -13 -9 -22t-22 -9h-188q-28 0 -31 31l-8 86q-123 -144 -303 -144q-138 0 -249.5 70.5t-174 191t-62.5 265.5zM309 1395q-7 17 0 26t25 9h184q24 0 35 -25 l123 -258q7 -17 0 -26t-25 -9h-184q-24 0 -35 25zM322 502q0 -122 73 -202.5t185 -80.5q109 0 182.5 83.5t73.5 199.5q0 115 -73.5 196.5t-182.5 81.5q-112 0 -185 -79t-73 -199z" />
<glyph unicode="&#xe1;" d="M61 500q0 145 62.5 265.5t174 190.5t249.5 70q175 0 305 -147l6 94q3 31 31 31h188q13 0 22 -9t9 -22v-942q0 -13 -9 -22t-22 -9h-188q-28 0 -31 31l-8 86q-123 -144 -303 -144q-138 0 -249.5 70.5t-174 191t-62.5 265.5zM322 502q0 -122 73 -202.5t185 -80.5 q109 0 182.5 83.5t73.5 199.5q0 115 -73.5 196.5t-182.5 81.5q-112 0 -185 -79t-73 -199zM473 1121q-7 9 0 26l123 258q11 25 35 25h184q18 0 25 -9t0 -26l-123 -258q-11 -25 -35 -25h-184q-18 0 -25 9z" />
<glyph unicode="&#xe2;" d="M61 500q0 145 62.5 265.5t174 190.5t249.5 70q175 0 305 -147l6 94q3 31 31 31h188q13 0 22 -9t9 -22v-942q0 -13 -9 -22t-22 -9h-188q-28 0 -31 31l-8 86q-123 -144 -303 -144q-138 0 -249.5 70.5t-174 191t-62.5 265.5zM265.5 1166.5q-5.5 11.5 6.5 25.5l197 221 q14 17 37 17h156q22 0 36 -17l197 -221q12 -14 7 -25.5t-25 -11.5h-134q-23 0 -36 16l-123 146l-125 -146q-13 -16 -37 -16h-131q-20 0 -25.5 11.5zM322 502q0 -122 73 -202.5t185 -80.5q109 0 182.5 83.5t73.5 199.5q0 115 -73.5 196.5t-182.5 81.5q-112 0 -185 -79 t-73 -199z" />
<glyph unicode="&#xe3;" d="M61 500q0 145 62.5 265.5t174 190.5t249.5 70q175 0 305 -147l6 94q3 31 31 31h188q13 0 22 -9t9 -22v-942q0 -13 -9 -22t-22 -9h-188q-28 0 -31 31l-8 86q-123 -144 -303 -144q-138 0 -249.5 70.5t-174 191t-62.5 265.5zM213 1272q7 99 66 151t149 52q54 0 103.5 -22.5 t81 -49.5t71.5 -49.5t76 -22.5q34 0 59 17t35 41q6 16 23 16h59q20 0 20 -21q-6 -101 -65 -153.5t-150 -52.5q-54 0 -103.5 22t-80.5 48.5t-71 48.5t-76 22q-35 0 -60 -16.5t-35 -40.5q-7 -17 -22 -17h-60q-20 0 -20 27zM322 502q0 -122 73 -202.5t185 -80.5 q109 0 182.5 83.5t73.5 199.5q0 115 -73.5 196.5t-182.5 81.5q-112 0 -185 -79t-73 -199z" />
<glyph unicode="&#xe4;" d="M61 500q0 145 62.5 265.5t174 190.5t249.5 70q175 0 305 -147l6 94q3 31 31 31h188q13 0 22 -9t9 -22v-942q0 -13 -9 -22t-22 -9h-188q-28 0 -31 31l-8 86q-123 -144 -303 -144q-138 0 -249.5 70.5t-174 191t-62.5 265.5zM225 1307q0 58 40 97.5t97 39.5q56 0 97 -39.5 t41 -97.5t-41 -98t-97 -40q-57 0 -97 40t-40 98zM322 502q0 -122 73 -202.5t185 -80.5q109 0 182.5 83.5t73.5 199.5q0 115 -73.5 196.5t-182.5 81.5q-112 0 -185 -79t-73 -199zM668 1307q0 58 40.5 97.5t96.5 39.5t96.5 -39.5t40.5 -97.5t-40.5 -98t-96.5 -40t-96.5 40 t-40.5 98z" />
<glyph unicode="&#xe5;" d="M61 500q0 145 62.5 265.5t174 190.5t249.5 70q175 0 305 -147l6 94q3 31 31 31h188q13 0 22 -9t9 -22v-942q0 -13 -9 -22t-22 -9h-188q-28 0 -31 31l-8 86q-123 -144 -303 -144q-138 0 -249.5 70.5t-174 191t-62.5 265.5zM322 502q0 -122 73 -202.5t185 -80.5 q109 0 182.5 83.5t73.5 199.5q0 115 -73.5 196.5t-182.5 81.5q-112 0 -185 -79t-73 -199zM377 1309q0 84 61 144t148 60q82 0 142 -60.5t60 -143.5q0 -82 -60 -142.5t-142 -60.5q-87 0 -148 60t-61 143zM535 1311q0 -20 14.5 -34.5t34.5 -14.5t34.5 14.5t14.5 34.5 t-14.5 34.5t-34.5 14.5t-34.5 -14.5t-14.5 -34.5z" />
<glyph unicode="&#xe6;" horiz-adv-x="1888" d="M61 500q0 145 62.5 265.5t174 190.5t249.5 70q175 0 305 -147l6 94q3 31 31 31h188q13 0 22 -9t9 -22v-6q115 59 242 59q141 0 251.5 -69.5t168 -183.5t57.5 -251q0 -65 -14.5 -93t-57.5 -28h-643q20 -100 94.5 -154t192.5 -54q114 0 213 69q26 17 45 -2l90 -88 q21 -22 -2 -45q-73 -73 -169.5 -113.5t-203.5 -40.5q-145 0 -264 64v-6q0 -13 -9 -22t-22 -9h-188q-28 0 -31 31l-8 86q-123 -144 -303 -144q-138 0 -249.5 70.5t-174 191t-62.5 265.5zM322 502q0 -122 73 -202.5t185 -80.5q109 0 182.5 83.5t73.5 199.5q0 115 -73.5 196.5 t-182.5 81.5q-112 0 -185 -79t-73 -199zM1108 578h479q-13 103 -77.5 161t-157.5 58q-94 0 -160.5 -57.5t-83.5 -161.5z" />
<glyph unicode="&#xe7;" horiz-adv-x="1136" d="M61 500q0 145 67 266t185 190.5t260 69.5q115 0 215.5 -47t172.5 -131q18 -22 -3 -43l-124 -121q-20 -20 -46 2q-49 44 -96.5 67t-111.5 23q-113 0 -185.5 -78.5t-72.5 -197.5t72.5 -198t185.5 -79q67 0 116.5 23t98.5 67q24 21 45 0l125 -118q21 -21 2 -43 q-64 -75 -153 -121.5t-191 -55.5l-50 -43q74 -7 128.5 -52t54.5 -118q0 -86 -54.5 -139t-133.5 -67t-171 0q-18 3 -18 22v94q0 21 22 21q82 -9 126 6.5t44 50.5q0 32 -48 45.5t-120 -8.5q-11 -4 -17.5 -0.5t-6.5 14.5v97q0 14 10 24l66 66q-173 40 -283.5 181.5 t-110.5 330.5z" />
<glyph unicode="&#xe8;" horiz-adv-x="1105" d="M61 500q0 109 38.5 206.5t105 167.5t161 111t201.5 41q141 0 251.5 -69.5t168 -183.5t57.5 -251q0 -65 -14 -93t-57 -28h-643q20 -100 94 -154t192 -54q114 0 213 69q26 17 45 -2l91 -88q21 -22 -2 -45q-73 -73 -169.5 -113.5t-203.5 -40.5q-115 0 -214.5 41t-168 111.5 t-107.5 167.5t-39 207zM281 1395q-15 35 24 35h184q24 0 35 -25l123 -258q15 -35 -24 -35h-185q-24 0 -35 25zM326 578h479q-13 103 -78 161t-158 58q-94 0 -160 -57.5t-83 -161.5z" />
<glyph unicode="&#xe9;" horiz-adv-x="1105" d="M61 500q0 109 38.5 206.5t105 167.5t161 111t201.5 41q141 0 251.5 -69.5t168 -183.5t57.5 -251q0 -65 -14 -93t-57 -28h-643q20 -100 94 -154t192 -54q114 0 213 69q26 17 45 -2l91 -88q21 -22 -2 -45q-73 -73 -169.5 -113.5t-203.5 -40.5q-115 0 -214.5 41t-168 111.5 t-107.5 167.5t-39 207zM326 578h479q-13 103 -78 161t-158 58q-94 0 -160 -57.5t-83 -161.5zM444 1121q-7 9 0 26l123 258q11 25 35 25h184q18 0 25 -9t0 -26l-123 -258q-11 -25 -35 -25h-184q-18 0 -25 9z" />
<glyph unicode="&#xea;" horiz-adv-x="1105" d="M61 500q0 109 38.5 206.5t105 167.5t161 111t201.5 41q141 0 251.5 -69.5t168 -183.5t57.5 -251q0 -65 -14 -93t-57 -28h-643q20 -100 94 -154t192 -54q114 0 213 69q26 17 45 -2l91 -88q21 -22 -2 -45q-73 -73 -169.5 -113.5t-203.5 -40.5q-115 0 -214.5 41t-168 111.5 t-107.5 167.5t-39 207zM237 1166.5q-5 11.5 7 25.5l196 221q14 17 37 17h156q23 0 37 -17l196 -221q12 -14 7 -25.5t-25 -11.5h-133q-24 0 -37 16l-123 146l-125 -146q-13 -16 -37 -16h-131q-20 0 -25 11.5zM326 578h479q-13 103 -78 161t-158 58q-94 0 -160 -57.5 t-83 -161.5z" />
<glyph unicode="&#xeb;" horiz-adv-x="1105" d="M61 500q0 109 38.5 206.5t105 167.5t161 111t201.5 41q141 0 251.5 -69.5t168 -183.5t57.5 -251q0 -65 -14 -93t-57 -28h-643q20 -100 94 -154t192 -54q114 0 213 69q26 17 45 -2l91 -88q21 -22 -2 -45q-73 -73 -169.5 -113.5t-203.5 -40.5q-115 0 -214.5 41t-168 111.5 t-107.5 167.5t-39 207zM197 1307q0 58 40 97.5t97 39.5q56 0 96.5 -39.5t40.5 -97.5t-40.5 -98t-96.5 -40q-57 0 -97 40t-40 98zM326 578h479q-13 103 -78 161t-158 58q-94 0 -160 -57.5t-83 -161.5zM639 1307q0 58 40.5 97.5t96.5 39.5t96.5 -39.5t40.5 -97.5t-40.5 -98 t-96.5 -40t-96.5 40t-40.5 98z" />
<glyph unicode="&#xec;" horiz-adv-x="456" d="M-45 1395q-7 17 0 26t25 9h184q24 0 35 -25l123 -258q7 -17 0 -26t-25 -9h-184q-24 0 -35 25zM92 31v942q0 13 9 22t22 9h209q13 0 21.5 -8.5t8.5 -22.5v-942q0 -14 -8.5 -22.5t-21.5 -8.5h-209q-13 0 -22 9t-9 22z" />
<glyph unicode="&#xed;" horiz-adv-x="456" d="M92 31v942q0 13 9 22t22 9h209q13 0 21.5 -8.5t8.5 -22.5v-942q0 -14 -8.5 -22.5t-21.5 -8.5h-209q-13 0 -22 9t-9 22zM119 1147l123 258q11 25 34 25h185q39 0 24 -35l-123 -258q-11 -25 -34 -25h-185q-39 0 -24 35z" />
<glyph unicode="&#xee;" horiz-adv-x="456" d="M-88.5 1166.5q-5.5 11.5 6.5 25.5l197 221q14 17 37 17h155q23 0 37 -17l197 -221q12 -14 6.5 -25.5t-25.5 -11.5h-133q-24 0 -37 16l-123 146l-125 -146q-13 -16 -36 -16h-131q-20 0 -25.5 11.5zM92 31v942q0 13 9 22t22 9h209q13 0 21.5 -8.5t8.5 -22.5v-942 q0 -14 -8.5 -22.5t-21.5 -8.5h-209q-13 0 -22 9t-9 22z" />
<glyph unicode="&#xef;" horiz-adv-x="456" d="M-129 1307q0 58 40 97.5t97 39.5q56 0 96.5 -39.5t40.5 -97.5t-40.5 -98t-96.5 -40q-57 0 -97 40t-40 98zM92 31v942q0 13 9 22t22 9h209q13 0 21.5 -8.5t8.5 -22.5v-942q0 -14 -8.5 -22.5t-21.5 -8.5h-209q-13 0 -22 9t-9 22zM313 1307q0 58 41 97.5t97 39.5t96.5 -39.5 t40.5 -97.5t-40.5 -98t-96.5 -40t-97 40t-41 98z" />
<glyph unicode="&#xf0;" horiz-adv-x="1175" d="M61 500q0 145 62.5 265.5t174 190.5t249.5 70q167 0 291 -131v207l-152 -19q-33 -3 -33 29v131q0 30 29 33l156 18v170q0 14 8.5 22.5t21.5 8.5h209q13 0 22 -8.5t9 -22.5v-135l25 2q32 3 32 -28v-132q0 -29 -28 -32l-29 -4v-1104q0 -13 -9 -22t-22 -9h-188q-28 0 -31 31 l-8 86q-123 -144 -303 -144q-138 0 -249.5 70.5t-174 191t-62.5 265.5zM322 502q0 -122 73 -202.5t185 -80.5q109 0 182.5 83.5t73.5 199.5q0 115 -73.5 196.5t-182.5 81.5q-112 0 -185 -79t-73 -199z" />
<glyph unicode="&#xf1;" horiz-adv-x="1134" d="M92 31v942q0 13 9 22t22 9h201q27 0 30 -31l8 -131v-2q53 85 133.5 135.5t184.5 50.5q158 0 260 -114t102 -310v-571q0 -14 -8.5 -22.5t-21.5 -8.5h-209q-13 0 -22 9t-9 22v522q0 116 -53 169.5t-135 53.5q-53 0 -98 -23.5t-70.5 -57t-39.5 -64.5t-14 -51v-549 q0 -14 -8.5 -22.5t-21.5 -8.5h-209q-13 0 -22 9t-9 22zM197 1272q7 99 66 151t149 52q54 0 103.5 -22.5t80.5 -49.5t71 -49.5t76 -22.5q35 0 60 17t35 41q6 16 22 16h60q20 0 20 -21q-6 -101 -65 -153.5t-150 -52.5q-54 0 -103.5 22t-81 48.5t-71.5 48.5t-76 22 q-35 0 -59.5 -16.5t-34.5 -40.5q-7 -17 -23 -17h-59q-20 0 -20 27z" />
<glyph unicode="&#xf2;" horiz-adv-x="1163" d="M61 500q0 145 69.5 266t189.5 190.5t262 69.5t261.5 -69.5t189 -190.5t69.5 -266t-69.5 -266.5t-189 -191t-261.5 -69.5t-262 69.5t-189.5 191t-69.5 266.5zM307 1395q-7 17 0 26t25 9h184q24 0 35 -25l123 -258q7 -17 0 -26t-25 -9h-184q-24 0 -35 25zM322 500 q0 -120 75 -198.5t185 -78.5q109 0 184.5 78.5t75.5 198.5t-75.5 198t-184.5 78q-110 0 -185 -78t-75 -198z" />
<glyph unicode="&#xf3;" horiz-adv-x="1163" d="M61 500q0 145 69.5 266t189.5 190.5t262 69.5t261.5 -69.5t189 -190.5t69.5 -266t-69.5 -266.5t-189 -191t-261.5 -69.5t-262 69.5t-189.5 191t-69.5 266.5zM322 500q0 -120 75 -198.5t185 -78.5q109 0 184.5 78.5t75.5 198.5t-75.5 198t-184.5 78q-110 0 -185 -78 t-75 -198zM471 1121q-7 9 0 26l123 258q11 25 35 25h184q18 0 25 -9t0 -26l-123 -258q-11 -25 -35 -25h-184q-18 0 -25 9z" />
<glyph unicode="&#xf4;" horiz-adv-x="1163" d="M61 500q0 145 69.5 266t189.5 190.5t262 69.5t261.5 -69.5t189 -190.5t69.5 -266t-69.5 -266.5t-189 -191t-261.5 -69.5t-262 69.5t-189.5 191t-69.5 266.5zM263.5 1166.5q-5.5 11.5 6.5 25.5l197 221q14 17 37 17h155q23 0 37 -17l197 -221q12 -14 6.5 -25.5 t-25.5 -11.5h-133q-23 0 -36 16l-123 146l-125 -146q-13 -16 -37 -16h-131q-20 0 -25.5 11.5zM322 500q0 -120 75 -198.5t185 -78.5q109 0 184.5 78.5t75.5 198.5t-75.5 198t-184.5 78q-110 0 -185 -78t-75 -198z" />
<glyph unicode="&#xf5;" horiz-adv-x="1163" d="M61 500q0 145 69.5 266t189.5 190.5t262 69.5t261.5 -69.5t189 -190.5t69.5 -266t-69.5 -266.5t-189 -191t-261.5 -69.5t-262 69.5t-189.5 191t-69.5 266.5zM211 1272q7 99 66 151t149 52q54 0 103.5 -22.5t81 -49.5t71.5 -49.5t76 -22.5q34 0 59 17t35 41q6 16 22 16h60 q20 0 20 -21q-6 -101 -65 -153.5t-150 -52.5q-54 0 -103.5 22t-80.5 48.5t-71 48.5t-76 22q-35 0 -60 -16.5t-35 -40.5q-7 -17 -22 -17h-60q-20 0 -20 27zM322 500q0 -120 75 -198.5t185 -78.5q109 0 184.5 78.5t75.5 198.5t-75.5 198t-184.5 78q-110 0 -185 -78t-75 -198z " />
<glyph unicode="&#xf6;" horiz-adv-x="1163" d="M61 500q0 145 69.5 266t189.5 190.5t262 69.5t261.5 -69.5t189 -190.5t69.5 -266t-69.5 -266.5t-189 -191t-261.5 -69.5t-262 69.5t-189.5 191t-69.5 266.5zM223 1307q0 58 40 97.5t97 39.5q56 0 97 -39.5t41 -97.5t-41 -98t-97 -40q-57 0 -97 40t-40 98zM322 500 q0 -120 75 -198.5t185 -78.5q109 0 184.5 78.5t75.5 198.5t-75.5 198t-184.5 78q-110 0 -185 -78t-75 -198zM666 1307q0 58 40.5 97.5t96.5 39.5t96.5 -39.5t40.5 -97.5t-40.5 -98t-96.5 -40t-96.5 40t-40.5 98z" />
<glyph unicode="&#xf7;" horiz-adv-x="983" d="M113 514v139q0 14 8.5 22.5t21.5 8.5h697q13 0 21.5 -8.5t8.5 -22.5v-139q0 -14 -8.5 -22.5t-21.5 -8.5h-697q-13 0 -21.5 8.5t-8.5 22.5zM342 233q0 62 43.5 105t106.5 43q61 0 104 -43t43 -105q0 -63 -42.5 -106t-104.5 -43q-63 0 -106.5 43t-43.5 106zM342 901 q0 62 43.5 105t106.5 43q61 0 104 -43t43 -105q0 -63 -42.5 -106t-104.5 -43q-63 0 -106.5 43t-43.5 106z" />
<glyph unicode="&#xf8;" horiz-adv-x="1163" d="M61 500q0 145 69.5 266t189.5 190.5t262 69.5q60 0 118 -12l48 106q9 23 34 23h162q17 0 23.5 -10t-0.5 -27l-80 -178q100 -72 157.5 -184.5t57.5 -243.5q0 -145 -69.5 -266.5t-189 -191t-261.5 -69.5q-54 0 -117 13l-47 -107q-8 -22 -35 -22h-162q-17 0 -23 10t1 27 l80 178q-100 72 -159 184.5t-59 243.5zM322 500q0 -112 65 -187l207 463h-12q-110 0 -185 -78t-75 -198zM571 223h11q109 0 184.5 78.5t75.5 198.5q0 107 -64 184z" />
<glyph unicode="&#xf9;" horiz-adv-x="1124" d="M82 397v576q0 13 9 22t22 9h209q13 0 21.5 -8.5t8.5 -22.5v-527q0 -115 56 -169t137 -54q68 0 119.5 34.5t74.5 78t23 82.5v555q0 13 9 22t22 9h208q13 0 22 -9t9 -22v-942q0 -13 -9 -22t-22 -9h-200q-28 0 -31 31l-8 112q-56 -78 -132 -124t-167 -46q-172 0 -276.5 113 t-104.5 311zM283 1395q-15 35 24 35h185q23 0 34 -25l123 -258q15 -35 -24 -35h-185q-23 0 -34 25z" />
<glyph unicode="&#xfa;" horiz-adv-x="1124" d="M82 397v576q0 13 9 22t22 9h209q13 0 21.5 -8.5t8.5 -22.5v-527q0 -115 56 -169t137 -54q68 0 119.5 34.5t74.5 78t23 82.5v555q0 13 9 22t22 9h208q13 0 22 -9t9 -22v-942q0 -13 -9 -22t-22 -9h-200q-28 0 -31 31l-8 112q-56 -78 -132 -124t-167 -46q-172 0 -276.5 113 t-104.5 311zM446 1121q-7 9 0 26l123 258q11 25 35 25h184q18 0 25 -9t0 -26l-123 -258q-11 -25 -35 -25h-184q-18 0 -25 9z" />
<glyph unicode="&#xfb;" horiz-adv-x="1124" d="M82 397v576q0 13 9 22t22 9h209q13 0 21.5 -8.5t8.5 -22.5v-527q0 -115 56 -169t137 -54q68 0 119.5 34.5t74.5 78t23 82.5v555q0 13 9 22t22 9h208q13 0 22 -9t9 -22v-942q0 -13 -9 -22t-22 -9h-200q-28 0 -31 31l-8 112q-56 -78 -132 -124t-167 -46q-172 0 -276.5 113 t-104.5 311zM239 1166.5q-5 11.5 7 25.5l196 221q14 17 37 17h156q23 0 37 -17l196 -221q12 -14 7 -25.5t-25 -11.5h-133q-24 0 -37 16l-123 146l-125 -146q-13 -16 -37 -16h-131q-20 0 -25 11.5z" />
<glyph unicode="&#xfc;" horiz-adv-x="1124" d="M82 397v576q0 13 9 22t22 9h209q13 0 21.5 -8.5t8.5 -22.5v-527q0 -115 56 -169t137 -54q68 0 119.5 34.5t74.5 78t23 82.5v555q0 13 9 22t22 9h208q13 0 22 -9t9 -22v-942q0 -13 -9 -22t-22 -9h-200q-28 0 -31 31l-8 112q-56 -78 -132 -124t-167 -46q-172 0 -276.5 113 t-104.5 311zM199 1307q0 58 40 97.5t97 39.5q56 0 96.5 -39.5t40.5 -97.5t-40.5 -98t-96.5 -40q-57 0 -97 40t-40 98zM641 1307q0 58 40.5 97.5t96.5 39.5t96.5 -39.5t40.5 -97.5t-40.5 -98t-96.5 -40t-96.5 40t-40.5 98z" />
<glyph unicode="&#xfd;" horiz-adv-x="1130" d="M45 969q-12 35 25 35h211q27 0 36 -25l246 -664l244 664q9 25 37 25h215q36 0 24 -35l-530 -1334q-9 -24 -37 -24h-205q-39 0 -24 35l145 352zM453 1147l122 258q11 25 35 25h185q39 0 24 -35l-123 -258q-11 -25 -34 -25h-185q-39 0 -24 35z" />
<glyph unicode="&#xfe;" horiz-adv-x="1208" d="M92 31v1433q0 14 9 22.5t22 8.5h209q13 0 21.5 -8.5t8.5 -22.5v-569q124 131 291 131h4h5q138 0 249.5 -70t173.5 -190.5t62 -265.5t-62 -265.5t-173.5 -191t-249.5 -70.5h-5h-4q-163 0 -282 119v-450q0 -14 -8.5 -22.5t-22.5 -8.5h-209q-13 0 -22 8.5t-9 22.5v366 q-8 8 -8 23zM373 502q0 -114 72.5 -198t179.5 -85q110 1 182 82t72 201q0 119 -72 198t-182 80q-107 -1 -179.5 -82.5t-72.5 -195.5z" />
<glyph unicode="&#xff;" horiz-adv-x="1130" d="M45 969q-12 35 25 35h211q27 0 36 -25l246 -664l244 664q9 25 37 25h215q36 0 24 -35l-530 -1334q-9 -24 -37 -24h-205q-39 0 -24 35l145 352zM205 1307q0 58 40 97.5t97 39.5q56 0 96.5 -39.5t40.5 -97.5t-40.5 -98t-96.5 -40q-57 0 -97 40t-40 98zM647 1307 q0 58 40.5 97.5t96.5 39.5t97 -39.5t41 -97.5t-41 -98t-97 -40t-96.5 40t-40.5 98z" />
<glyph unicode="&#x152;" horiz-adv-x="2185" d="M72 711q0 152 58.5 289t157.5 235.5t235 156.5t286 58q255 0 457 -158v111q0 14 8.5 22.5t21.5 8.5h754q14 0 22.5 -9t8.5 -22v-186q0 -13 -8.5 -22t-22.5 -9h-504v-324h473q13 0 22 -9t9 -22v-186q0 -13 -9 -22t-22 -9h-473v-366h506q14 0 22.5 -9t8.5 -22v-186 q0 -13 -8.5 -22t-22.5 -9h-756q-13 0 -21.5 8.5t-8.5 22.5v100q-202 -158 -457 -158q-150 0 -286 58t-235 156.5t-157.5 235.5t-58.5 288zM352 711q0 -196 132.5 -331.5t324.5 -135.5t324.5 135.5t132.5 331.5q0 198 -132.5 333.5t-324.5 135.5t-324.5 -135.5t-132.5 -333.5 z" />
<glyph unicode="&#x153;" horiz-adv-x="1884" d="M61 500q0 145 69.5 266t189.5 190.5t262 69.5q113 0 213 -45t172 -125q71 80 168.5 125t210.5 45q141 0 251.5 -69.5t168 -183.5t57.5 -251q0 -65 -14.5 -93t-57.5 -28h-643q20 -100 94.5 -154t192.5 -54q114 0 213 69q26 17 45 -2l90 -88q21 -22 -2 -45 q-73 -73 -169.5 -113.5t-203.5 -40.5q-123 0 -225.5 45.5t-173.5 126.5q-73 -81 -173.5 -126.5t-213.5 -45.5q-142 0 -262 69.5t-189.5 191t-69.5 266.5zM322 500q0 -120 75 -198.5t185 -78.5q102 0 175.5 69.5t82.5 178.5v29v28q-9 109 -82.5 178.5t-175.5 69.5 q-110 0 -185 -78t-75 -198zM1104 578h479q-13 103 -77.5 161t-157.5 58q-94 0 -160.5 -57.5t-83.5 -161.5z" />
<glyph unicode="&#x178;" horiz-adv-x="1257" d="M68 1397q-19 37 20 37h231q25 0 37 -21l273 -479l272 479q12 21 37 21h229q40 0 21 -37l-420 -731v-635q0 -13 -9 -22t-22 -9h-219q-14 0 -22.5 9t-8.5 22v641zM270 1737q0 58 40.5 97.5t97.5 39.5q56 0 96.5 -39.5t40.5 -97.5t-40.5 -98t-96.5 -40q-57 0 -97.5 40 t-40.5 98zM713 1737q0 58 40.5 97.5t96.5 39.5t96.5 -39.5t40.5 -97.5t-40.5 -98t-96.5 -40t-96.5 40t-40.5 98z" />
<glyph unicode="&#x2c6;" horiz-adv-x="663" d="M13.5 1170.5q-5.5 11.5 6.5 25.5l197 221q14 17 37 17h156q22 0 36 -17l197 -221q12 -14 7 -25.5t-25 -11.5h-133q-23 0 -37 17l-123 145l-125 -145q-14 -17 -37 -17h-131q-20 0 -25.5 11.5z" />
<glyph unicode="&#x2dc;" horiz-adv-x="763" d="M10 1276q7 99 66 151t149 52q54 0 103.5 -22.5t81 -49.5t71.5 -49.5t76 -22.5q34 0 59 17t35 41q6 16 23 16h59q21 0 21 -20q-6 -102 -65 -154.5t-150 -52.5q-54 0 -103.5 22t-81 48.5t-71.5 48.5t-76 22q-35 0 -59.5 -16.5t-34.5 -40.5q-7 -17 -23 -17h-59q-9 0 -15 7.5 t-6 19.5z" />
<glyph unicode="&#x2000;" horiz-adv-x="972" />
<glyph unicode="&#x2001;" horiz-adv-x="1944" />
<glyph unicode="&#x2002;" horiz-adv-x="972" />
<glyph unicode="&#x2003;" horiz-adv-x="1944" />
<glyph unicode="&#x2004;" horiz-adv-x="648" />
<glyph unicode="&#x2005;" horiz-adv-x="486" />
<glyph unicode="&#x2006;" horiz-adv-x="324" />
<glyph unicode="&#x2007;" horiz-adv-x="324" />
<glyph unicode="&#x2008;" horiz-adv-x="243" />
<glyph unicode="&#x2009;" horiz-adv-x="388" />
<glyph unicode="&#x200a;" horiz-adv-x="108" />
<glyph unicode="&#x2010;" horiz-adv-x="798" d="M92 487v160q0 13 9 22t22 9h553q14 0 22.5 -9t8.5 -22v-160q0 -13 -8.5 -21.5t-22.5 -8.5h-553q-14 0 -22.5 8.5t-8.5 21.5z" />
<glyph unicode="&#x2011;" horiz-adv-x="798" d="M92 487v160q0 13 9 22t22 9h553q14 0 22.5 -9t8.5 -22v-160q0 -13 -8.5 -21.5t-22.5 -8.5h-553q-14 0 -22.5 8.5t-8.5 21.5z" />
<glyph unicode="&#x2012;" horiz-adv-x="798" d="M92 487v160q0 13 9 22t22 9h553q14 0 22.5 -9t8.5 -22v-160q0 -13 -8.5 -21.5t-22.5 -8.5h-553q-14 0 -22.5 8.5t-8.5 21.5z" />
<glyph unicode="&#x2013;" horiz-adv-x="1249" d="M102 487v160q0 13 9 22t22 9h983q14 0 22.5 -9t8.5 -22v-160q0 -13 -8.5 -21.5t-22.5 -8.5h-983q-14 0 -22.5 8.5t-8.5 21.5z" />
<glyph unicode="&#x2014;" horiz-adv-x="1372" d="M102 487v160q0 13 9 22t22 9h1106q13 0 22 -9t9 -22v-160q0 -13 -8.5 -21.5t-22.5 -8.5h-1106q-14 0 -22.5 8.5t-8.5 21.5z" />
<glyph unicode="&#x2018;" horiz-adv-x="421" d="M61 1137q0 92 39.5 175.5t87.5 137.5q10 10 23 10h27q10 0 14.5 -6.5t-0.5 -15.5q-41 -87 -41 -172q63 0 106 -43.5t43 -106.5q0 -62 -43 -104.5t-106 -42.5t-106.5 46.5t-43.5 121.5z" />
<glyph unicode="&#x2019;" horiz-adv-x="421" d="M61 1280q0 62 43.5 104.5t106.5 42.5t106 -46t43 -121q0 -92 -39.5 -176t-87.5 -138q-10 -10 -22 -10h-27q-10 0 -14.5 6.5t0.5 15.5q41 87 41 172q-63 0 -106.5 43.5t-43.5 106.5z" />
<glyph unicode="&#x201a;" horiz-adv-x="421" d="M61 123q0 62 43.5 104.5t106.5 42.5t106 -46.5t43 -121.5q0 -92 -39.5 -175.5t-87.5 -137.5q-10 -10 -22 -10h-27q-10 0 -14.5 6.5t0.5 15.5q41 87 41 172q-63 0 -106.5 43.5t-43.5 106.5z" />
<glyph unicode="&#x201c;" horiz-adv-x="788" d="M63 1135q0 92 39.5 175.5t87.5 137.5q10 10 23 10h27q10 0 14.5 -6.5t-0.5 -15.5q-41 -87 -41 -172q63 0 106 -43.5t43 -106.5q0 -62 -43 -104.5t-106 -42.5t-106.5 46.5t-43.5 121.5zM428 1135q0 92 39.5 175.5t87.5 137.5q10 10 23 10h26q10 0 14.5 -6.5t-0.5 -15.5 q-40 -85 -40 -172q63 0 106 -43.5t43 -106.5q0 -62 -43 -104.5t-106 -42.5t-106.5 46.5t-43.5 121.5z" />
<glyph unicode="&#x201d;" horiz-adv-x="788" d="M61 1280q0 62 43.5 104.5t106.5 42.5t106 -46t43 -121q0 -92 -39.5 -176t-87.5 -138q-10 -10 -22 -10h-27q-10 0 -14.5 6.5t0.5 15.5q41 87 41 172q-63 0 -106.5 43.5t-43.5 106.5zM426 1280q0 62 43 104.5t106 42.5t106.5 -46t43.5 -121q0 -92 -39.5 -176t-87.5 -138 q-10 -10 -23 -10h-26q-10 0 -14.5 6.5t0.5 15.5q40 85 40 172q-63 0 -106 43.5t-43 106.5z" />
<glyph unicode="&#x201e;" horiz-adv-x="798" d="M61 123q0 62 43.5 104.5t106.5 42.5t106 -46.5t43 -121.5q0 -92 -39.5 -175.5t-87.5 -137.5q-10 -10 -22 -10h-27q-10 0 -14.5 6.5t0.5 15.5q41 87 41 172q-63 0 -106.5 43.5t-43.5 106.5zM438 123q0 62 43.5 104.5t106.5 42.5t106 -46.5t43 -121.5q0 -92 -39.5 -175.5 t-87.5 -137.5q-10 -10 -22 -10h-27q-10 0 -14.5 6.5t0.5 15.5q41 87 41 172q-63 0 -106.5 43.5t-43.5 106.5z" />
<glyph unicode="&#x2022;" horiz-adv-x="628" d="M113 563q0 83 58.5 142t141.5 59q85 0 144 -59t59 -142t-59 -142t-144 -59q-83 0 -141.5 59t-58.5 142z" />
<glyph unicode="&#x2026;" horiz-adv-x="1452" d="M72 123q0 62 43 104.5t106 42.5q62 0 105 -43t43 -104q0 -63 -43 -106.5t-105 -43.5q-63 0 -106 43.5t-43 106.5zM578 123q0 62 43 104.5t106 42.5q61 0 104 -43t43 -104q0 -63 -42.5 -106.5t-104.5 -43.5q-63 0 -106 43.5t-43 106.5zM1083 123q0 62 43.5 104.5 t106.5 42.5q61 0 104 -43t43 -104q0 -63 -42.5 -106.5t-104.5 -43.5q-63 0 -106.5 43.5t-43.5 106.5z" />
<glyph unicode="&#x202f;" horiz-adv-x="388" />
<glyph unicode="&#x2039;" horiz-adv-x="417" d="M72 489v156q0 24 16 37l221 197q13 12 25 6.5t12 -25.5v-133q0 -24 -16 -37l-146 -123l146 -125q16 -13 16 -36v-132q0 -20 -12 -25t-25 7l-221 197q-16 13 -16 36z" />
<glyph unicode="&#x203a;" horiz-adv-x="417" d="M72 354v131q0 24 16 37l145 125l-145 123q-16 13 -16 37v133q0 20 12 25t25 -7l221 -196q16 -13 16 -37v-156q0 -24 -16 -37l-221 -196q-13 -12 -25 -7t-12 25z" />
<glyph unicode="&#x205f;" horiz-adv-x="486" />
<glyph unicode="&#x20ac;" horiz-adv-x="1454" d="M61 492v139q0 13 8.5 22t22.5 9h53q-2 16 -2 49v34h-51q-14 0 -22.5 8.5t-8.5 22.5v139q0 13 8.5 22t22.5 9h88q74 224 266 364t435 140q146 0 273.5 -54.5t225.5 -152.5q22 -21 0 -43l-135 -145q-19 -22 -43 -2q-139 123 -323 123q-124 0 -226.5 -62t-160.5 -168h215 q13 0 21.5 -8.5t8.5 -22.5v-139q0 -14 -8.5 -22.5t-21.5 -8.5h-273q-2 -12 -2 -34q0 -33 2 -49h273q13 0 21.5 -8.5t8.5 -22.5v-139q0 -14 -8.5 -22.5t-21.5 -8.5h-207q59 -98 159 -155.5t220 -57.5q184 0 323 123q24 20 43 -2l135 -146q22 -21 0 -43q-98 -98 -225.5 -152.5 t-273.5 -54.5q-239 0 -429 135.5t-266 352.5h-94q-14 0 -22.5 8.5t-8.5 22.5z" />
<glyph unicode="&#x2122;" horiz-adv-x="1130" d="M113 1364v59q0 11 10 11h334q10 0 10 -11v-59q0 -10 -10 -10h-119v-279q0 -10 -10 -10h-76q-10 0 -10 10v279h-119q-10 0 -10 10zM539 1075v348q0 11 10 11h78q9 0 12 -7l137 -245l139 245q3 7 13 7h80q10 0 10 -11v-348q0 -10 -10 -10h-72q-10 0 -10 10v199l-111 -203 q-3 -6 -12 -6h-51q-10 0 -13 6l-110 203v-199q0 -10 -11 -10h-69q-10 0 -10 10z" />
<glyph unicode="&#x25fc;" horiz-adv-x="1003" d="M0 0v1004h1004v-1004h-1004z" />
</font>
</defs>
</svg>
