<?xml version="1.0" standalone="no"?>
<!DOCTYPE svg PUBLIC "-//W3C//DTD SVG 1.1//EN" "http://www.w3.org/Graphics/SVG/1.1/DTD/svg11.dtd" >
<svg xmlns="http://www.w3.org/2000/svg">
<metadata></metadata>
<defs>
<font id="greycliff_cfextra_bold" horiz-adv-x="1210" >
<font-face units-per-em="2048" ascent="1638" descent="-410" />
<missing-glyph horiz-adv-x="532" />
<glyph unicode="&#xfb01;" horiz-adv-x="1292" d="M49 786v187q0 13 8.5 22t22.5 9h119v149q0 177 98.5 265.5t269.5 88.5q122 0 181 -34q20 -11 20 -37v-217q0 -18 -12 -24t-25 3q-54 33 -121 33q-66 0 -85 -28.5t-19 -90.5v-108h213q13 0 22 -9t9 -22v-187q0 -13 -8.5 -21.5t-22.5 -8.5h-213v-725q0 -13 -9 -22t-22 -9 h-246q-13 0 -21.5 8.5t-8.5 22.5v725h-119q-14 0 -22.5 8.5t-8.5 21.5zM881 1343q0 69 48.5 117.5t117.5 48.5q68 0 115.5 -48.5t47.5 -117.5q0 -67 -48 -115t-115 -48q-69 0 -117.5 47.5t-48.5 115.5zM893 31v942q0 13 8.5 22t22.5 9h245q13 0 22 -9t9 -22v-942 q0 -13 -9 -22t-22 -9h-245q-14 0 -22.5 9t-8.5 22z" />
<glyph unicode="&#xfb02;" horiz-adv-x="1304" d="M49 786v187q0 13 8.5 22t22.5 9h119v149q0 177 98.5 265.5t269.5 88.5q122 0 181 -34q20 -11 20 -37v-217q0 -18 -12 -24t-25 3q-54 33 -121 33q-66 0 -85 -28.5t-19 -90.5v-108h213q13 0 22 -9t9 -22v-187q0 -13 -8.5 -21.5t-22.5 -8.5h-213v-725q0 -13 -9 -22t-22 -9 h-246q-13 0 -21.5 8.5t-8.5 22.5v725h-119q-14 0 -22.5 8.5t-8.5 21.5zM909 31v1433q0 14 8.5 22.5t22.5 8.5h246q14 0 22.5 -8.5t8.5 -22.5v-1433q0 -13 -8.5 -22t-22.5 -9h-246q-14 0 -22.5 9t-8.5 22z" />
<glyph horiz-adv-x="0" />
<glyph horiz-adv-x="682" />
<glyph unicode=" "  horiz-adv-x="532" />
<glyph unicode="&#x09;" horiz-adv-x="532" />
<glyph unicode="&#xa0;" horiz-adv-x="532" />
<glyph unicode="!" horiz-adv-x="622" d="M145 139q0 68 48.5 116t117.5 48q67 0 115.5 -48.5t48.5 -115.5q0 -69 -48 -117.5t-116 -48.5q-69 0 -117.5 48.5t-48.5 117.5zM147 1257q-9 87 39.5 140t124.5 53t124.5 -53t39.5 -140l-78 -788q-3 -29 -30 -29h-109q-28 0 -31 29z" />
<glyph unicode="&#x22;" horiz-adv-x="743" d="M61 1403q-1 13 8 22t23 9h211q14 0 23 -9t8 -22l-27 -402q-3 -30 -31 -30h-159q-24 0 -31 30zM412 1403q-1 13 7.5 22t22.5 9h211q14 0 23 -9t8 -22l-27 -402q-3 -30 -30 -30h-160q-24 0 -31 30z" />
<glyph unicode="#" horiz-adv-x="1296" d="M113 463v162q0 13 8.5 21.5t21.5 8.5h131v287h-131q-13 0 -21.5 8.5t-8.5 22.5v162q0 13 8.5 21.5t21.5 8.5h131v238q0 13 9 22t22 9h221q14 0 22.5 -9t8.5 -22v-238h184v238q0 13 8.5 22t22.5 9h221q13 0 22 -9t9 -22v-238h131q29 0 29 -30v-162q0 -14 -8 -22.5 t-21 -8.5h-131v-287h131q29 0 29 -30v-162q0 -14 -8 -22.5t-21 -8.5h-131v-237q0 -13 -9 -22t-22 -9h-221q-14 0 -22.5 9t-8.5 22v237h-184v-237q0 -13 -8.5 -22t-22.5 -9h-221q-13 0 -22 9t-9 22v237h-131q-13 0 -21.5 8.5t-8.5 22.5zM557 655h184v287h-184v-287z" />
<glyph unicode="$" horiz-adv-x="1126" d="M68 199q-15 21 0 43l141 157q21 24 47 4q82 -68 154.5 -99.5t158.5 -31.5q78 0 132.5 38.5t54.5 103.5q0 45 -36.5 79.5t-95 60t-129 51t-141 60.5t-129 81t-95 120.5t-36.5 169.5q0 161 100 268t252 136v147q0 13 9 22t22 9h174q13 0 22 -9t9 -22v-151q173 -37 315 -176 q22 -19 4 -43l-133 -162q-18 -27 -43 -8q-80 56 -138 80t-126 24q-73 0 -114 -35.5t-41 -85.5q0 -45 36.5 -78.5t94.5 -56.5t128.5 -46.5t141.5 -57.5t129 -80t94.5 -123.5t36.5 -179.5q0 -88 -31.5 -162t-85.5 -125.5t-122 -85.5t-146 -49v-140q0 -13 -8.5 -21.5 t-22.5 -8.5h-174q-14 0 -22.5 8.5t-8.5 21.5v138q-116 23 -215.5 82.5t-162.5 132.5z" />
<glyph unicode="%" horiz-adv-x="1449" d="M82 1167q0 117 80.5 197t197.5 80t199 -80t82 -197t-82 -197.5t-199 -80.5t-197.5 80.5t-80.5 197.5zM201 117l878 1306l170 -106l-878 -1307zM281 1167q0 -35 23.5 -59.5t55.5 -24.5q34 0 59 24.5t25 59.5t-25 58.5t-59 23.5q-33 0 -56 -23.5t-23 -58.5zM809 266 q0 117 82 198t199 81q118 0 198 -81t80 -198t-80 -196.5t-198 -79.5q-117 0 -199 79.5t-82 196.5zM1008 266q0 -35 24 -58.5t58 -23.5q33 0 57 23.5t24 58.5t-24 59.5t-57 24.5q-34 0 -58 -24.5t-24 -59.5z" />
<glyph unicode="&#x26;" horiz-adv-x="1380" d="M70 403q0 66 20 124t58 105t80 83.5t98 72.5q-73 75 -113.5 147t-40.5 157q0 147 113.5 252.5t281.5 105.5q163 0 281.5 -106.5t118.5 -251.5q0 -81 -33.5 -151.5t-80.5 -117.5t-116 -94l234 -223l71 80q19 19 43 2l148 -142q24 -20 4 -43l-72 -84l162 -153q22 -22 0 -47 l-127 -127q-24 -24 -45 -2l-166 160q-205 -168 -432 -168q-92 0 -178.5 28t-155.5 79.5t-111 133t-42 180.5zM381 412q0 -58 52 -104t140 -46q110 0 220 76l-267 256q-70 -44 -107.5 -87t-37.5 -95zM446 1083q0 -68 97 -168q73 46 110 84.5t37 83.5q0 44 -35 77.5t-88 33.5 q-54 0 -87.5 -33t-33.5 -78z" />
<glyph unicode="'" horiz-adv-x="391" d="M61 1403q-1 13 8 22t23 9h211q14 0 23 -9t8 -22l-27 -402q-3 -30 -31 -30h-159q-24 0 -31 30z" />
<glyph unicode="(" horiz-adv-x="729" d="M102 655q0 487 220 850q12 21 36 21h242q18 0 23 -10t-5 -27q-198 -368 -198 -834q0 -491 203 -884q7 -17 0.5 -27t-23.5 -10h-242q-25 0 -36 20q-220 396 -220 901z" />
<glyph unicode=")" horiz-adv-x="729" d="M105.5 -256q-6.5 10 0.5 27q203 393 203 884q0 466 -198 834q-10 17 -5 27t23 10h242q25 0 37 -21q219 -361 219 -850q0 -506 -219 -901q-11 -20 -37 -20h-242q-17 0 -23.5 10z" />
<glyph unicode="*" horiz-adv-x="1048" d="M154 1126l51 213l221 -65l-8 231h209l-2 -231l219 65l51 -213l-201 -55l137 -182l-182 -113l-125 176l-125 -176l-182 113l137 182z" />
<glyph unicode="+" horiz-adv-x="970" d="M113 504v162q0 14 8.5 22t21.5 8h232v232q0 13 8.5 21.5t22.5 8.5h161q14 0 22.5 -8.5t8.5 -21.5v-232h229q14 0 22.5 -8.5t8.5 -21.5v-162q0 -14 -9 -22.5t-22 -8.5h-229v-231q0 -14 -9 -22.5t-22 -8.5h-161q-14 0 -22.5 8.5t-8.5 22.5v231h-232q-13 0 -21.5 8.5 t-8.5 22.5z" />
<glyph unicode="," horiz-adv-x="475" d="M72 139q0 68 48.5 116t117.5 48t117 -51.5t48 -132.5q0 -97 -43 -188t-94 -150q-12 -10 -26 -10h-29q-26 0 -16 26q43 88 43 176q-69 0 -117.5 48.5t-48.5 117.5z" />
<glyph unicode="-" horiz-adv-x="798" d="M92 471v186q0 13 9 22t22 9h553q14 0 22.5 -9t8.5 -22v-186q0 -13 -8.5 -22t-22.5 -9h-553q-13 0 -22 9t-9 22z" />
<glyph unicode="." horiz-adv-x="473" d="M72 139q0 68 48.5 116t117.5 48q67 0 115 -48t48 -116q0 -69 -47.5 -117.5t-115.5 -48.5q-69 0 -117.5 48.5t-48.5 117.5z" />
<glyph unicode="/" horiz-adv-x="1042" d="M25 -231l671 1732q9 25 37 25h260q37 0 25 -35l-672 -1733q-9 -24 -37 -24h-260q-36 0 -24 35z" />
<glyph unicode="0" horiz-adv-x="1294" d="M59 711q0 145 32.5 267.5t89 208.5t131.5 146t160 88.5t175 28.5q115 0 218.5 -46.5t187 -135t133 -233t49.5 -324.5q0 -145 -32.5 -267.5t-88.5 -208t-131 -145.5t-160 -88.5t-176 -28.5q-90 0 -175 28.5t-160.5 88.5t-131.5 145.5t-88.5 208t-32.5 267.5zM354 711 q0 -89 17.5 -168.5t52 -144t92 -102.5t131.5 -38q73 0 130.5 38t91.5 102.5t51.5 144t17.5 168.5t-17.5 168.5t-51.5 144.5t-91.5 103t-130.5 38q-74 0 -132 -38t-92 -103t-51.5 -144.5t-17.5 -168.5z" />
<glyph unicode="1" horiz-adv-x="686" d="M59 1217v186q0 13 8.5 22t22.5 9h475q13 0 22 -9t9 -22v-1372q0 -13 -9 -22t-22 -9h-246q-13 0 -21.5 8.5t-8.5 22.5v1155h-199q-14 0 -22.5 9t-8.5 22z" />
<glyph unicode="2" horiz-adv-x="1052" d="M70 31v217l209 213q45 46 107.5 108.5t94.5 94t73 75t60.5 70t39.5 59t27 60t7 57.5q0 79 -57.5 129.5t-136.5 50.5q-121 0 -218 -90q-25 -22 -45 -2l-149 144q-21 21 -2 43q75 87 182 138.5t240 51.5q198 0 340.5 -131.5t142.5 -321.5q0 -40 -9.5 -79.5t-21.5 -72.5 t-40.5 -75t-49.5 -70.5t-66 -78t-72.5 -78.5t-87.5 -89.5t-93 -95.5l-103 -110h512q14 0 22.5 -9t8.5 -22v-186q0 -13 -8.5 -22t-22.5 -9h-854q-13 0 -21.5 8.5t-8.5 22.5z" />
<glyph unicode="3" horiz-adv-x="1085" d="M80 152q-19 22 2 43l149 141q21 21 45 0q98 -82 220 -82q102 0 158.5 53t56.5 129q0 31 -11.5 59t-38 56t-78.5 45.5t-124 19.5q-31 0 -31 31v170q0 31 33 31q233 7 233 176q0 65 -54.5 105t-117.5 40q-119 0 -198 -79q-22 -22 -45 0l-148 141q-21 21 -2 43 q67 81 175 128.5t231 47.5q177 0 303.5 -112t126.5 -287q0 -176 -168 -297q100 -53 158.5 -138.5t58.5 -203.5q0 -188 -135 -313.5t-363 -125.5q-135 0 -249.5 48t-186.5 131z" />
<glyph unicode="4" horiz-adv-x="1163" d="M74 322v196q0 22 10 39l534 856q12 21 37 21h252q13 0 22 -9t9 -22v-864h123q13 0 22 -8.5t9 -22.5v-186q0 -14 -9 -22.5t-22 -8.5h-123v-260q0 -13 -9 -22t-22 -9h-245q-14 0 -22.5 9t-8.5 22v260h-527q-13 0 -21.5 8.5t-8.5 22.5zM383 539h248v417z" />
<glyph unicode="5" horiz-adv-x="1087" d="M78 199q-16 22 8 37l178 122q25 18 45 -2q73 -100 189 -100q98 0 160.5 69.5t62.5 163.5q0 88 -63.5 156t-157.5 68q-99 0 -166 -70q-18 -21 -41 -12l-193 59q-26 9 -20 37l180 680q7 27 33 27h618q13 0 22 -9t9 -22v-186q0 -13 -9 -22t-22 -9h-436l-61 -236q1 0 17.5 5 t48.5 11.5t65 6.5q134 0 243.5 -66t170.5 -177t61 -241q0 -234 -145.5 -374t-376.5 -140q-146 0 -257.5 66.5t-162.5 157.5z" />
<glyph unicode="6" horiz-adv-x="1062" d="M49 442q0 82 31 164t104 182l496 668q6 11 18.5 13t24.5 -7l168 -121q24 -18 6 -43l-303 -401q175 -25 291 -152.5t116 -302.5q0 -127 -63.5 -235t-173.5 -171t-240 -63q-129 0 -238.5 63t-173 171t-63.5 235zM344 442q0 -77 52.5 -130.5t127.5 -53.5q76 0 128.5 53.5 t52.5 130.5q0 79 -52 132t-129 53q-76 0 -128 -53t-52 -132z" />
<glyph unicode="7" horiz-adv-x="1007" d="M59 1217v186q0 13 8.5 22t22.5 9h850q14 0 21.5 -9t3.5 -22l-492 -1372q-10 -31 -35 -31h-241q-14 0 -22.5 9t-4.5 22l420 1155h-500q-14 0 -22.5 9t-8.5 22z" />
<glyph unicode="8" horiz-adv-x="1144" d="M70 440q0 128 63 226t168 149q-61 48 -99 117.5t-38 146.5q0 155 113 263t296 108t296.5 -108t113.5 -263q0 -77 -38.5 -146.5t-100.5 -117.5q105 -51 168 -149t63 -226q0 -105 -44.5 -195t-116 -148.5t-160.5 -91t-181 -32.5t-181.5 32.5t-161.5 91t-116 148.5t-44 195z M385 451q0 -85 55 -139t133 -54q76 0 131.5 54t55.5 139q0 84 -57 135t-130 51q-74 0 -131 -50.5t-57 -135.5zM434 1067q0 -59 39 -100t100 -41t99.5 41t40.5 100q0 56 -40.5 96.5t-99.5 40.5t-100 -40.5t-39 -96.5z" />
<glyph unicode="9" horiz-adv-x="1075" d="M74 981q0 127 63.5 235t173.5 171t240 63q129 0 238.5 -63t173 -171t63.5 -235q0 -82 -31 -164t-104 -182l-496 -668q-6 -11 -18.5 -13t-24.5 7l-168 121q-24 18 -6 43l303 401q-175 25 -291 152.5t-116 302.5zM371 981q0 -79 51.5 -131.5t128.5 -52.5q76 0 128 52.5 t52 131.5q0 77 -52.5 130.5t-127.5 53.5q-76 0 -128 -53.5t-52 -130.5z" />
<glyph unicode=":" horiz-adv-x="473" d="M72 139q0 68 48.5 116t117.5 48q67 0 115 -48t48 -116q0 -69 -47.5 -117.5t-115.5 -48.5q-69 0 -117.5 48.5t-48.5 117.5zM72 922q0 68 48.5 115.5t117.5 47.5q68 0 115.5 -47.5t47.5 -115.5q0 -69 -47.5 -117.5t-115.5 -48.5q-69 0 -117.5 48.5t-48.5 117.5z" />
<glyph unicode=";" horiz-adv-x="475" d="M72 139q0 68 48.5 116t117.5 48t117 -51.5t48 -132.5q0 -97 -43 -188t-94 -150q-12 -10 -26 -10h-29q-26 0 -16 26q43 88 43 176q-69 0 -117.5 48.5t-48.5 117.5zM74 864q0 68 48.5 116t117.5 48q67 0 115 -48t48 -116q0 -69 -47.5 -117.5t-115.5 -48.5 q-69 0 -117.5 48.5t-48.5 117.5z" />
<glyph unicode="&#x3c;" horiz-adv-x="997" d="M102 436v148q0 19 23 32l754 369q15 8 25.5 1.5t10.5 -23.5v-197q0 -26 -22 -35l-510 -221l510 -221q22 -9 22 -35v-197q0 -17 -10.5 -23.5t-25.5 1.5l-754 368q-23 13 -23 33z" />
<glyph unicode="=" horiz-adv-x="1011" d="M113 332v162q0 14 8.5 22t21.5 8h725q14 0 22.5 -8.5t8.5 -21.5v-162q0 -14 -8.5 -22.5t-22.5 -8.5h-725q-13 0 -21.5 8.5t-8.5 22.5zM113 676v162q0 14 8.5 22t21.5 8h725q14 0 22.5 -8.5t8.5 -21.5v-162q0 -14 -8.5 -22.5t-22.5 -8.5h-725q-13 0 -21.5 8.5t-8.5 22.5z " />
<glyph unicode="&#x3e;" horiz-adv-x="1038" d="M123 57v197q0 26 22 35l510 221l-510 221q-22 9 -22 35v197q0 17 11 23.5t26 -1.5l753 -369q23 -13 23 -32v-148q0 -20 -23 -33l-753 -368q-15 -8 -26 -1.5t-11 23.5z" />
<glyph unicode="?" horiz-adv-x="1077" d="M63 1233q80 98 202 157.5t272 59.5q120 0 226.5 -47.5t174.5 -139t68 -206.5q0 -139 -77.5 -232t-271.5 -192l-16 -162q-3 -31 -31 -31h-190q-28 0 -31 31l-20 287q-3 25 26 35q166 52 225.5 102.5t59.5 114.5q0 61 -52.5 96t-115.5 35q-75 0 -137 -31t-125 -86 q-38 -33 -64 0l-120 147q-26 33 -3 62zM352 139q0 68 48.5 116t117.5 48q68 0 116 -48.5t48 -115.5q0 -69 -48 -117.5t-116 -48.5q-69 0 -117.5 48.5t-48.5 117.5z" />
<glyph unicode="@" horiz-adv-x="1609" d="M70 707q0 136 41 256t113 208t167.5 151.5t206.5 95.5t227 32q143 0 273 -50t228 -139t156 -221t58 -286q0 -193 -103 -305.5t-263 -112.5q-120 0 -189 63q-73 -51 -176 -51q-155 0 -256.5 104.5t-101.5 258.5q0 152 101.5 256t256.5 104q123 0 205 -72l24 27h123 l-35 -364q-6 -54 9.5 -81.5t58.5 -27.5q102 0 102 203q0 134 -65 242t-172.5 166.5t-233.5 58.5q-103 0 -196.5 -37t-163.5 -102.5t-111 -163.5t-41 -213q0 -144 69.5 -259t183.5 -176t247 -61q134 0 250 70l192 -127q-75 -75 -191 -122.5t-239 -47.5q-146 0 -281.5 51 t-241 142.5t-169 229.5t-63.5 300zM657 711q0 -66 43 -111t109 -45q65 0 107 44.5t42 111.5q0 66 -41.5 109.5t-107.5 43.5t-109 -43.5t-43 -109.5z" />
<glyph unicode="A" horiz-adv-x="1386" d="M43 35l496 1374q9 25 34 25h236q30 0 39 -25l495 -1374q3 -7 3 -13q0 -7 -4 -12q-6 -10 -23 -10h-266q-27 0 -35 25l-74 227h-502l-73 -227q-8 -25 -35 -25h-266q-17 0 -24 10q-4 5 -4 12q0 6 3 13zM532 520h324l-162 496z" />
<glyph unicode="B" horiz-adv-x="1228" d="M111 31v1372q0 14 8.5 22.5t21.5 8.5h502q203 0 316.5 -105t113.5 -266q0 -107 -50 -186.5t-124 -110.5q114 -30 197.5 -124.5t83.5 -227.5q0 -414 -535 -414h-504q-13 0 -21.5 8.5t-8.5 22.5zM428 281h229q95 0 150 43.5t55 128.5q0 163 -205 163h-229v-335zM428 879 h186q75 0 118.5 35.5t43.5 107.5q0 131 -162 131h-186v-274z" />
<glyph unicode="C" horiz-adv-x="1386" d="M70 711q0 153 58.5 290t157.5 235.5t236 156t289 57.5q148 0 279.5 -55t226.5 -154q10 -10 9.5 -21t-9.5 -22l-158 -172q-19 -22 -43 -2q-135 115 -307 115q-174 0 -293 -123t-119 -305q0 -181 119 -303.5t293 -122.5q173 0 307 114q24 20 43 -2l158 -170 q10 -12 10 -22.5t-10 -20.5q-95 -100 -226 -155.5t-280 -55.5q-152 0 -289 58t-236 156t-157.5 235t-58.5 289z" />
<glyph unicode="D" horiz-adv-x="1380" d="M111 31v1372q0 14 8.5 22.5t21.5 8.5h428q180 0 324.5 -56t237.5 -154t142.5 -227.5t49.5 -279.5t-49.5 -279.5t-142.5 -227.5t-237.5 -154t-324.5 -56h-428q-13 0 -21.5 8.5t-8.5 22.5zM428 281h141q213 0 321.5 112t108.5 324t-108.5 324t-321.5 112h-141v-872z" />
<glyph unicode="E" horiz-adv-x="1044" d="M111 31v1372q0 14 8.5 22.5t21.5 8.5h768q13 0 22 -9t9 -22v-219q0 -14 -9 -22.5t-22 -8.5h-481v-281h453q13 0 21.5 -8t8.5 -22v-219q0 -14 -8.5 -22.5t-21.5 -8.5h-453v-311h483q13 0 22 -8.5t9 -22.5v-219q0 -13 -9 -22t-22 -9h-770q-13 0 -21.5 8.5t-8.5 22.5z" />
<glyph unicode="F" horiz-adv-x="1024" d="M111 31v1372q0 14 8.5 22.5t21.5 8.5h750q13 0 22 -9t9 -22v-219q0 -14 -9 -22.5t-22 -8.5h-463v-281h436q14 0 22.5 -8.5t8.5 -21.5v-219q0 -13 -8.5 -22t-22.5 -9h-436v-561q0 -13 -9 -22t-22 -9h-256q-13 0 -21.5 8.5t-8.5 22.5z" />
<glyph unicode="G" horiz-adv-x="1521" d="M70 717q0 150 58.5 286t157.5 234t236 155.5t289 57.5q148 0 279.5 -55t226.5 -154q19 -21 0 -43l-158 -172q-19 -22 -43 -2q-135 115 -307 115q-173 0 -292.5 -122t-119.5 -300q0 -185 117.5 -308.5t300.5 -123.5q154 0 241.5 77.5t92.5 190.5h-324q-13 0 -21.5 8.5 t-8.5 22.5v204q0 14 8.5 22.5t21.5 8.5h607q13 0 21.5 -8.5t8.5 -22.5v-139q0 -139 -44 -261.5t-125 -215t-204 -146t-272 -53.5q-151 0 -289 58.5t-238.5 157.5t-160 237.5t-59.5 290.5z" />
<glyph unicode="H" horiz-adv-x="1355" d="M111 31v1372q0 14 8.5 22.5t21.5 8.5h256q13 0 22 -9t9 -22v-559h500v559q0 14 8.5 22.5t21.5 8.5h256q14 0 22.5 -9t8.5 -22v-1372q0 -13 -8.5 -22t-22.5 -9h-256q-13 0 -21.5 8.5t-8.5 22.5v532h-500v-532q0 -13 -9 -22t-22 -9h-256q-13 0 -21.5 8.5t-8.5 22.5z" />
<glyph unicode="I" horiz-adv-x="538" d="M111 31v1372q0 14 8.5 22.5t21.5 8.5h256q13 0 22 -9t9 -22v-1372q0 -13 -9 -22t-22 -9h-256q-13 0 -21.5 8.5t-8.5 22.5z" />
<glyph unicode="J" horiz-adv-x="1081" d="M72 133q-8 9 -8 19.5t8 23.5l131 182q15 22 45 2q1 -1 13.5 -9t16 -10t16.5 -9.5t20 -10.5t20.5 -9t24.5 -9t25.5 -6t30 -4.5t31.5 -1.5q207 0 207 264v848q0 13 8.5 22t22.5 9h256q14 0 22.5 -9t8.5 -22v-858q0 -146 -37 -255t-106 -176t-161.5 -99.5t-209.5 -32.5 q-129 0 -228.5 42.5t-156.5 108.5z" />
<glyph unicode="K" horiz-adv-x="1339" d="M111 31v1372q0 14 8.5 22.5t21.5 8.5h256q13 0 22 -9t9 -22v-533l449 547q14 17 36 17h320q19 0 23 -12t-7 -25l-501 -580l544 -780q8 -10 8 -19q0 -4 -2 -7q-5 -11 -24 -11h-303q-24 0 -37 18l-397 555l-109 -124v-418q0 -13 -9 -22t-22 -9h-256q-13 0 -21.5 8.5 t-8.5 22.5z" />
<glyph unicode="L" horiz-adv-x="970" d="M111 31v1372q0 14 8.5 22.5t21.5 8.5h256q13 0 22 -9t9 -22v-1122h442q14 0 22.5 -8.5t8.5 -22.5v-219q0 -13 -8.5 -22t-22.5 -9h-729q-13 0 -21.5 8.5t-8.5 22.5z" />
<glyph unicode="M" horiz-adv-x="1734" d="M111 31v1372q0 14 8.5 22.5t21.5 8.5h289q28 0 37 -21l401 -1044l400 1044q9 21 37 21h288q13 0 22 -9t9 -22v-1372q0 -13 -9 -22t-22 -9h-256q-13 0 -21.5 8.5t-8.5 22.5v717l-287 -723q-9 -25 -37 -25h-231q-28 0 -37 25l-287 723v-717q0 -13 -9 -22t-22 -9h-256 q-13 0 -21.5 8.5t-8.5 22.5z" />
<glyph unicode="N" horiz-adv-x="1400" d="M111 31v1372q0 14 8.5 22.5t21.5 8.5h289q25 0 37 -21l506 -905v895q0 13 8.5 22t22.5 9h256q13 0 21.5 -8.5t8.5 -22.5v-1372q0 -14 -8.5 -22.5t-21.5 -8.5h-291q-26 0 -37 20l-504 904v-893q0 -13 -9 -22t-22 -9h-256q-13 0 -21.5 8.5t-8.5 22.5z" />
<glyph unicode="O" horiz-adv-x="1615" d="M70 711q0 152 58.5 289t157.5 235.5t235 156.5t286 58t287 -58t236 -156.5t157.5 -235.5t58.5 -289q0 -151 -58.5 -288t-157.5 -235.5t-236 -156.5t-287 -58t-286 58t-235 156.5t-157.5 235.5t-58.5 288zM389 711q0 -180 121.5 -304t296.5 -124q177 0 298.5 124 t121.5 304q0 183 -121.5 307.5t-298.5 124.5q-175 0 -296.5 -125t-121.5 -307z" />
<glyph unicode="P" horiz-adv-x="1159" d="M111 31v1372q0 14 8.5 22.5t21.5 8.5h437q253 0 392.5 -130t139.5 -346q0 -214 -140 -344.5t-392 -130.5h-150v-452q0 -13 -9 -22t-22 -9h-256q-13 0 -21.5 8.5t-8.5 22.5zM428 764h143q46 0 85 9.5t74.5 30t56 60.5t20.5 94t-20.5 94t-55.5 61t-74.5 30.5t-85.5 9.5 h-143v-389z" />
<glyph unicode="Q" horiz-adv-x="1615" d="M70 711q0 152 58.5 289t157.5 235.5t235 156.5t286 58t287 -58t236 -156.5t157.5 -235.5t58.5 -289q0 -227 -125 -410l113 -113q22 -22 0 -43l-174 -174q-11 -11 -21.5 -11t-21.5 11l-115 117q-179 -115 -395 -115q-150 0 -286 58t-235 156.5t-157.5 235.5t-58.5 288z M389 711q0 -180 121.5 -304t296.5 -124q93 0 168 34l-154 154q-21 21 -2 43l176 172q23 20 43 0l152 -154q37 81 37 179q0 183 -121.5 307.5t-298.5 124.5q-175 0 -296.5 -125t-121.5 -307z" />
<glyph unicode="R" horiz-adv-x="1214" d="M111 31v1372q0 14 8.5 22.5t21.5 8.5h437q253 0 392.5 -130t139.5 -346q0 -155 -75 -268.5t-216 -165.5l320 -487q6 -11 6 -19q0 -5 -2 -8q-6 -10 -25 -10h-272q-26 0 -37 20l-297 463h-84v-452q0 -13 -9 -22t-22 -9h-256q-13 0 -21.5 8.5t-8.5 22.5zM428 764h143 q46 0 85 9.5t74.5 30t56 60.5t20.5 94t-20.5 94t-55.5 61t-74.5 30.5t-85.5 9.5h-143v-389z" />
<glyph unicode="S" horiz-adv-x="1126" d="M68 199q-8 10 -8 21t8 22l141 157q21 24 47 4q82 -68 154.5 -99.5t158.5 -31.5q78 0 132.5 38.5t54.5 103.5q0 45 -36.5 79.5t-95 60t-129 51t-141 60.5t-129 81t-95 120.5t-36.5 169.5t38 174.5t102 131t146 80t171 28.5q253 0 446 -190q22 -19 4 -43l-133 -162 q-18 -27 -43 -8q-80 56 -138 80t-126 24q-73 0 -114 -35.5t-41 -85.5q0 -45 36.5 -78.5t94.5 -56.5t128.5 -46.5t141.5 -57.5t129 -80t94.5 -123.5t36.5 -179.5q0 -104 -44 -189t-117 -137.5t-162 -80.5t-183 -28q-149 0 -282 66.5t-211 159.5z" />
<glyph unicode="T" horiz-adv-x="1128" d="M70 1184v219q0 14 8.5 22.5t21.5 8.5h928q14 0 22.5 -9t8.5 -22v-219q0 -14 -8.5 -22.5t-22.5 -8.5h-305v-1122q0 -13 -8.5 -22t-22.5 -9h-256q-13 0 -21.5 8.5t-8.5 22.5v1122h-306q-13 0 -21.5 8.5t-8.5 22.5z" />
<glyph unicode="U" horiz-adv-x="1304" d="M100 557v846q0 13 9 22t22 9h256q13 0 22 -9t9 -22v-846q0 -131 59.5 -200.5t175.5 -69.5q115 0 174.5 69.5t59.5 200.5v846q0 13 8.5 22t22.5 9h256q13 0 21.5 -8.5t8.5 -22.5v-846q0 -276 -152.5 -430t-398.5 -154q-248 0 -400.5 154t-152.5 430z" />
<glyph unicode="V" horiz-adv-x="1423" d="M61 1399q-3 7 -3 13q0 7 4 12q7 10 24 10h266q27 0 35 -25l326 -991l323 991q8 25 35 25h266q17 0 24 -10q4 -5 4 -12q0 -6 -3 -13l-496 -1374q-9 -25 -39 -25h-235q-26 0 -35 25z" />
<glyph unicode="W" horiz-adv-x="2252" d="M61 1399q-3 7 -3 13q0 7 4 12q7 10 24 10h266q27 0 35 -25l272 -987l310 987q3 14 16 21q8 4 16 4h246q11 0 19 -4q8 -5 14 -21l309 -987l275 987q6 25 34 25h269q17 0 23 -10q3 -5 3 -12q0 -6 -2 -13l-434 -1374q-9 -25 -39 -25h-250q-28 0 -34 25l-310 931l-311 -931 q-9 -25 -33 -25h-250q-13 0 -24 7t-14 18z" />
<glyph unicode="X" horiz-adv-x="1302" d="M66 37l417 696l-397 664q-19 37 20 37h271q25 0 37 -21l237 -397l238 397q12 21 37 21h270q40 0 21 -37l-398 -664l418 -696q6 -12 6 -20q0 -17 -26 -17h-271q-26 0 -37 20l-258 433l-258 -433q-11 -20 -37 -20h-270q-26 0 -26 17q0 8 6 20z" />
<glyph unicode="Y" horiz-adv-x="1286" d="M66 1397q-6 12 -6 20q0 17 26 17h270q25 0 37 -21l250 -450l250 450q12 21 37 21h270q27 0 27 -17q0 -8 -6 -20l-418 -738v-628q0 -13 -8.5 -22t-22.5 -9h-258q-14 0 -22.5 9t-8.5 22v635z" />
<glyph unicode="Z" horiz-adv-x="1183" d="M80 31v229q0 19 12 37l649 856h-610q-13 0 -22 8.5t-9 22.5v219q0 13 9 22t22 9h924q13 0 21.5 -8.5t8.5 -22.5v-229q0 -19 -12 -37l-651 -856h653q13 0 22 -8.5t9 -22.5v-219q0 -13 -9 -22t-22 -9h-964q-13 0 -22 9t-9 22z" />
<glyph unicode="[" horiz-adv-x="681" d="M102 -236v1731q0 13 9 22t22 9h416q13 0 22 -9t9 -22v-186q0 -13 -9 -22t-22 -9h-127v-1296h127q13 0 22 -9t9 -22v-187q0 -13 -8.5 -21.5t-22.5 -8.5h-416q-14 0 -22.5 8.5t-8.5 21.5z" />
<glyph unicode="\" horiz-adv-x="1042" d="M25 1491q-12 35 24 35h260q28 0 37 -25l672 -1732q12 -35 -25 -35h-260q-28 0 -37 24z" />
<glyph unicode="]" horiz-adv-x="681" d="M102 -49q0 13 9 22t22 9h127v1296h-127q-13 0 -22 9t-9 22v186q0 13 9 22t22 9h416q13 0 22 -9t9 -22v-1731q0 -13 -8.5 -21.5t-22.5 -8.5h-416q-14 0 -22.5 8.5t-8.5 21.5v187z" />
<glyph unicode="^" horiz-adv-x="1163" d="M105 631.5q-7 10.5 1 25.5l369 754q13 23 33 23h147q20 0 33 -23l369 -754q8 -15 1 -25.5t-24 -10.5h-196q-26 0 -35 22l-221 510l-222 -510q-9 -22 -34 -22h-197q-17 0 -24 10.5z" />
<glyph unicode="_" horiz-adv-x="1228" d="M102 -31q0 13 9 22t22 9h963q13 0 21.5 -8.5t8.5 -22.5v-186q0 -14 -8.5 -22.5t-21.5 -8.5h-963q-13 0 -22 9t-9 22v186z" />
<glyph unicode="`" horiz-adv-x="479" d="M61 1456q-7 17 0 26t25 9h221q24 0 35 -25l123 -258q15 -34 -25 -34h-221q-24 0 -35 24z" />
<glyph unicode="a" d="M59 500q0 145 62 265.5t173.5 190.5t248.5 70q166 0 286 -137l7 84q3 31 30 31h224q13 0 21.5 -8.5t8.5 -22.5v-942q0 -14 -8.5 -22.5t-21.5 -8.5h-224q-27 0 -30 31l-7 73q-118 -131 -286 -131q-137 0 -248.5 70.5t-173.5 191t-62 265.5zM354 502q0 -106 65 -177 t163 -71q95 0 160 73.5t65 174.5t-65 173.5t-160 72.5q-98 0 -163 -70.5t-65 -175.5z" />
<glyph unicode="b" d="M90 31v1433q0 14 9 22.5t22 8.5h246q13 0 21.5 -8.5t8.5 -22.5v-557q116 119 271 119q137 0 248 -70t173 -190.5t62 -265.5q0 -222 -138 -374.5t-345 -152.5q-169 0 -287 131l-6 -73q-3 -31 -31 -31h-223q-13 0 -22 9t-9 22zM403 502q0 -101 65.5 -174.5t160.5 -73.5 q98 0 162.5 71t64.5 177q0 105 -64.5 175.5t-162.5 70.5q-96 0 -161 -72.5t-65 -173.5z" />
<glyph unicode="c" horiz-adv-x="1024" d="M59 500q0 145 67.5 266t186 190.5t260.5 69.5q115 0 215.5 -47t172.5 -131q8 -10 8 -20q0 -12 -11 -23l-147 -143q-20 -20 -45 2q-86 77 -184 77q-99 0 -163.5 -69t-64.5 -172t64.5 -172.5t163.5 -69.5t190 78q24 21 45 0l148 -141q11 -11 11 -22q0 -10 -9 -21 q-72 -84 -174.5 -131.5t-219.5 -47.5q-142 0 -260.5 70t-186 191t-67.5 266z" />
<glyph unicode="d" d="M59 500q0 145 62 265.5t173.5 190.5t248.5 70q154 0 270 -119v557q0 14 8.5 22.5t22.5 8.5h246q13 0 21.5 -8.5t8.5 -22.5v-1433q0 -14 -8.5 -22.5t-21.5 -8.5h-224q-27 0 -30 31l-7 73q-118 -131 -286 -131q-137 0 -248.5 70.5t-173.5 191t-62 265.5zM354 502 q0 -106 65 -177t163 -71q95 0 160 73.5t65 174.5t-65 173.5t-160 72.5q-98 0 -163 -70.5t-65 -175.5z" />
<glyph unicode="e" horiz-adv-x="1105" d="M59 500q0 146 66 266.5t183 190t261 69.5q142 0 252 -69.5t168 -185t58 -253.5q0 -68 -14.5 -97.5t-59.5 -29.5h-608q22 -85 87.5 -128.5t170.5 -43.5q98 0 194 60q24 16 45 -5l107 -102q19 -22 -4 -45q-73 -73 -169.5 -113.5t-203.5 -40.5q-233 0 -383 151.5t-150 375.5 zM360 586h414q-13 89 -68.5 135.5t-134.5 46.5q-80 0 -137 -46.5t-74 -135.5z" />
<glyph unicode="f" horiz-adv-x="890" d="M49 786v187q0 13 8.5 22t22.5 9h119v149q0 177 100.5 265.5t271.5 88.5q121 0 209.5 -53t145.5 -123q7 -7 7 -14q0 -8 -9 -17l-123 -118q-13 -13 -29 -4q-87 53 -158 53q-66 0 -87 -29t-21 -90v-108h203q13 0 21.5 -8.5t8.5 -22.5v-187q0 -14 -8.5 -22t-21.5 -8h-203 v-725q0 -13 -9 -22t-22 -9h-246q-13 0 -21.5 8.5t-8.5 22.5v725h-119q-14 0 -22.5 8.5t-8.5 21.5z" />
<glyph unicode="g" d="M59 510q0 105 37 200t100.5 164.5t154 110.5t192.5 41q166 0 286 -133l7 80q3 31 30 31h224q13 0 21.5 -8.5t8.5 -22.5v-965q0 -93 -34 -166.5t-87.5 -119t-126 -75.5t-143 -41.5t-143.5 -11.5q-129 0 -247 36t-200 96q-21 15 -8 41l80 143q18 25 41 12q133 -78 309 -78 q45 0 89 8.5t88.5 28.5t72 59.5t27.5 94.5v94q-118 -135 -295 -135q-102 0 -192.5 41t-154 110.5t-100.5 164.5t-37 200zM354 512q0 -99 65.5 -168.5t162.5 -69.5q95 0 160 71.5t65 166.5q0 94 -65 165t-160 71q-97 0 -162.5 -69t-65.5 -167z" />
<glyph unicode="h" horiz-adv-x="1161" d="M90 31v1433q0 14 9 22.5t22 8.5h246q13 0 21.5 -8.5t8.5 -22.5v-618q50 83 128.5 131.5t181.5 48.5q156 0 260 -118t104 -314v-563q0 -13 -8.5 -22t-22.5 -9h-245q-13 0 -22 9t-9 22v501q0 111 -50 160t-122 49q-48 0 -87.5 -21.5t-61.5 -52.5t-34 -60t-12 -50v-526 q0 -14 -8.5 -22.5t-21.5 -8.5h-246q-13 0 -22 9t-9 22z" />
<glyph unicode="i" horiz-adv-x="495" d="M82 1343q0 69 48.5 117.5t117.5 48.5q68 0 116 -48.5t48 -117.5q0 -67 -48 -115t-116 -48q-69 0 -117.5 47.5t-48.5 115.5zM94 31v942q0 13 9 22t22 9h246q13 0 21.5 -8.5t8.5 -22.5v-942q0 -14 -8.5 -22.5t-21.5 -8.5h-246q-13 0 -22 9t-9 22z" />
<glyph unicode="j" horiz-adv-x="636" d="M12 -139q-1 4 -1 7q0 5 3 8q4 7 13 7q39 2 74.5 14t67.5 34.5t51.5 62t19.5 90.5v889q0 14 8.5 22.5t21.5 8.5h246q14 0 22.5 -9t8.5 -22v-950q0 -205 -117 -314t-315 -115q-22 0 -25 17zM225 1343q0 69 48 117.5t116 48.5q69 0 117.5 -48.5t48.5 -117.5 q0 -68 -48.5 -115.5t-117.5 -47.5q-68 0 -116 48t-48 115z" />
<glyph unicode="k" horiz-adv-x="1155" d="M90 31v1433q0 14 9 22.5t22 8.5h246q13 0 21.5 -8.5t8.5 -22.5v-833l328 356q14 17 35 17h278q20 0 25.5 -12t-8.5 -25l-350 -377l411 -553q7 -10 7 -18q0 -4 -2 -8q-5 -11 -23 -11h-264q-24 0 -37 18l-279 371l-121 -131v-227q0 -14 -8.5 -22.5t-21.5 -8.5h-246 q-13 0 -22 9t-9 22z" />
<glyph unicode="l" horiz-adv-x="487" d="M90 31v1433q0 14 9 22.5t22 8.5h246q13 0 21.5 -8.5t8.5 -22.5v-1433q0 -14 -8.5 -22.5t-21.5 -8.5h-246q-13 0 -22 9t-9 22z" />
<glyph unicode="m" horiz-adv-x="1835" d="M90 31v942q0 13 9 22t22 9h237q28 0 31 -31l8 -127q50 83 128.5 131.5t181.5 48.5q97 0 177.5 -47.5t127.5 -134.5q57 84 145.5 133t202.5 49q170 0 277.5 -117t107.5 -315v-563q0 -13 -8.5 -22t-22.5 -9h-246q-13 0 -21.5 8.5t-8.5 22.5v501q0 111 -50 160t-122 49 q-88 0 -141.5 -57t-53.5 -113v-540q0 -13 -8.5 -22t-22.5 -9h-245q-13 0 -22 9t-9 22v501q0 111 -50 160t-122 49q-48 0 -87.5 -21.5t-61.5 -52.5t-34 -60t-12 -50v-526q0 -14 -8.5 -22.5t-21.5 -8.5h-246q-13 0 -22 9t-9 22z" />
<glyph unicode="n" horiz-adv-x="1161" d="M90 31v942q0 13 9 22t22 9h237q28 0 31 -31l8 -127q50 83 128.5 131.5t181.5 48.5q156 0 260 -118t104 -314v-563q0 -13 -8.5 -22t-22.5 -9h-245q-13 0 -22 9t-9 22v501q0 111 -50 160t-122 49q-48 0 -87.5 -21.5t-61.5 -52.5t-34 -60t-12 -50v-526q0 -14 -8.5 -22.5 t-21.5 -8.5h-246q-13 0 -22 9t-9 22z" />
<glyph unicode="o" horiz-adv-x="1165" d="M59 500q0 145 70 266t190 190.5t263 69.5t263.5 -69.5t190.5 -190.5t70 -266t-70 -266.5t-190.5 -191t-263.5 -69.5q-142 0 -262.5 69.5t-190.5 191t-70 266.5zM354 500q0 -104 66.5 -173t161.5 -69q96 0 161.5 68.5t65.5 173.5t-65.5 173t-161.5 68q-95 0 -161.5 -68.5 t-66.5 -172.5z" />
<glyph unicode="p" d="M90 -358v1331q0 13 9 22t22 9h223q28 0 31 -31l6 -84q120 137 287 137q137 0 248 -70t173 -190.5t62 -265.5q0 -222 -138 -374.5t-345 -152.5q-158 0 -271 113v-444q0 -14 -8.5 -22.5t-21.5 -8.5h-246q-13 0 -22 8.5t-9 22.5zM403 502q0 -101 65.5 -174.5t160.5 -73.5 q98 0 162.5 71t64.5 177q0 105 -64.5 175.5t-162.5 70.5q-96 0 -161 -72.5t-65 -173.5z" />
<glyph unicode="q" d="M59 500q0 145 62 265.5t173.5 190.5t248.5 70q166 0 286 -137l7 84q3 31 30 31h224q13 0 21.5 -8.5t8.5 -22.5v-1331q0 -14 -8.5 -22.5t-21.5 -8.5h-246q-14 0 -22.5 8.5t-8.5 22.5v444q-113 -113 -270 -113q-137 0 -248.5 70.5t-173.5 191t-62 265.5zM354 502 q0 -106 65 -177t163 -71q95 0 160 73.5t65 174.5t-65 173.5t-160 72.5q-98 0 -163 -70.5t-65 -175.5z" />
<glyph unicode="r" horiz-adv-x="802" d="M90 31v942q0 13 9 22t22 9h235q28 0 31 -31l8 -117q88 170 258 170q85 0 140 -51q14 -12 14 -28q0 -8 -4 -17l-68 -176q-10 -33 -51 -23q-57 17 -84 17q-93 0 -148 -61.5t-55 -156.5v-499q0 -14 -8.5 -22.5t-21.5 -8.5h-246q-13 0 -22 9t-9 22z" />
<glyph unicode="s" horiz-adv-x="886" d="M57 141q-8 9 -7.5 19t7.5 22l93 131q13 18 45 0q136 -84 239 -84q105 0 105 66q0 27 -25.5 47.5t-66.5 35.5t-90 30.5t-98.5 39.5t-90.5 56t-66.5 85t-25.5 122q0 97 51.5 170.5t131 109t171.5 35.5q104 0 197 -39.5t155 -112.5q17 -20 -2 -43l-92 -120 q-11 -11 -19.5 -9.5t-25.5 11.5q-66 39 -102.5 54t-79.5 15t-66.5 -20.5t-23.5 -48.5t26 -48t67 -33t90.5 -27t99.5 -37t91 -55.5t67 -89.5t26 -132q0 -74 -35.5 -135.5t-93 -100.5t-127 -60.5t-140.5 -21.5q-120 0 -222.5 49t-162.5 119z" />
<glyph unicode="t" horiz-adv-x="753" d="M49 786v187q0 13 8.5 22t22.5 9h143v276q0 14 8.5 22.5t22.5 8.5h246q13 0 21.5 -8.5t8.5 -22.5v-276h144q14 0 22.5 -9t8.5 -22v-187q0 -13 -8.5 -21.5t-22.5 -8.5h-144v-725q0 -14 -8.5 -22.5t-21.5 -8.5h-246q-14 0 -22.5 9t-8.5 22v725h-143q-14 0 -22.5 8.5 t-8.5 21.5z" />
<glyph unicode="u" horiz-adv-x="1150" d="M80 406v567q0 13 9 22t22 9h245q14 0 22.5 -9t8.5 -22v-506q0 -58 16 -100.5t43 -64.5t56 -32t61 -10q90 0 140.5 56t50.5 122v535q0 14 8.5 22.5t21.5 8.5h246q14 0 22.5 -9t8.5 -22v-942q0 -13 -8.5 -22t-22.5 -9h-237q-28 0 -31 31l-8 108q-54 -76 -129 -121t-162 -45 q-170 0 -276.5 117.5t-106.5 315.5z" />
<glyph unicode="v" horiz-adv-x="1155" d="M43 969q-3 9 -3 15q0 20 28 20h247q28 0 37 -25l226 -619l225 619q9 25 37 25h247q28 0 28 -20q0 -6 -3 -15l-377 -944q-9 -25 -37 -25h-241q-28 0 -37 25z" />
<glyph unicode="w" horiz-adv-x="1845" d="M43 969q-3 9 -3 15q0 20 28 20h241q28 0 37 -25l209 -619l217 619q7 17 21 20q10 5 16 5h227q7 0 17 -5q13 -3 20 -20l219 -619l207 619q9 25 37 25h242q27 0 27 -20q0 -7 -3 -15l-348 -944q-9 -25 -37 -25h-237q-28 0 -37 25l-221 581l-222 -581q-9 -25 -36 -25h-236 q-28 0 -37 25z" />
<glyph unicode="x" horiz-adv-x="1153" d="M65 11q-2 4 -2 8q0 8 7 18l329 477l-313 453q-11 15 -5 26t25 11h279q22 0 37 -21l156 -238l153 238q15 21 37 21h279q19 0 25 -11t-5 -26l-313 -453l329 -477q7 -10 7 -18q0 -4 -2 -8q-6 -11 -25 -11h-279q-22 0 -36 20l-170 265l-172 -265q-14 -20 -37 -20h-279 q-19 0 -25 11z" />
<glyph unicode="y" horiz-adv-x="1159" d="M43 969q-3 9 -3 15q0 20 28 20h247q28 0 37 -25l226 -619l225 619q9 25 37 25h252q27 0 27 -20q0 -6 -3 -15l-530 -1334q-9 -24 -37 -24h-240q-18 0 -25 9t1 26l145 352z" />
<glyph unicode="z" horiz-adv-x="958" d="M49 31v196q0 25 14 39l476 490h-459q-14 0 -22.5 8.5t-8.5 21.5v187q0 13 8.5 22t22.5 9h799q13 0 21.5 -8.5t8.5 -22.5v-195q0 -25 -14 -39l-477 -489h461q13 0 21.5 -8.5t8.5 -22.5v-188q0 -14 -8.5 -22.5t-21.5 -8.5h-799q-14 0 -22.5 9t-8.5 22z" />
<glyph unicode="{" horiz-adv-x="753" d="M109 647l69 111q10 18 10 39v514q0 62 20.5 106.5t54 67t67.5 32t71 9.5h220q13 0 21.5 -8.5t8.5 -22.5v-186q0 -14 -8.5 -22.5t-21.5 -8.5h-41q-33 0 -52.5 -16.5t-19.5 -47.5v-428q0 -19 -14 -36l-76 -101q-20 -20 0 -43l76 -98q14 -21 14 -37v-424q0 -32 19.5 -48.5 t52.5 -16.5h41q13 0 21.5 -8.5t8.5 -22.5v-187q0 -14 -8.5 -22t-21.5 -8h-220q-38 0 -72 9.5t-67.5 32t-53.5 67t-20 106.5v512q0 24 -10 39l-67 106q-13 22 -2 41z" />
<glyph unicode="|" horiz-adv-x="538" d="M111 -358v1966q0 14 8.5 22t21.5 8h256q14 0 22.5 -8.5t8.5 -21.5v-1966q0 -14 -9 -22.5t-22 -8.5h-256q-13 0 -21.5 8.5t-8.5 22.5z" />
<glyph unicode="}" horiz-adv-x="696" d="M45 -49q0 13 8.5 22t22.5 9h41q33 0 52 16.5t19 48.5v424q0 14 15 37l76 98q20 23 0 43l-76 101q-15 18 -15 36v428q0 31 -19 47.5t-52 16.5h-41q-14 0 -22.5 9t-8.5 22v186q0 13 8.5 22t22.5 9h219q37 0 71 -9.5t67.5 -32t54 -67t20.5 -106.5v-514q0 -21 10 -39l70 -111 q11 -19 -2 -41l-68 -106q-10 -15 -10 -39v-512q0 -62 -20 -106.5t-53.5 -67t-67.5 -32t-72 -9.5h-219q-14 0 -22.5 8.5t-8.5 21.5v187z" />
<glyph unicode="~" horiz-adv-x="1062" d="M102 518q15 120 81 180t169 60q51 0 97.5 -16.5t81.5 -40t67.5 -47t67.5 -40t69 -16.5q36 0 64.5 18t38.5 43q13 19 24 19h76q23 0 23 -23q4 -120 -67 -182.5t-183 -62.5q-61 0 -118.5 25t-93.5 54.5t-81.5 54.5t-85.5 25q-37 0 -67 -18.5t-40 -42.5q-6 -19 -24 -19h-76 q-11 0 -17.5 8.5t-5.5 20.5z" />
<glyph unicode="&#xa1;" horiz-adv-x="520" d="M145 926q0 69 48.5 117.5t117.5 48.5q68 0 116 -48.5t48 -117.5q0 -68 -48.5 -116t-115.5 -48q-69 0 -117.5 48t-48.5 116zM147 -193l80 789q3 29 31 29h109q27 0 30 -29l78 -789q9 -86 -39.5 -139t-124.5 -53t-124.5 53t-39.5 139z" />
<glyph unicode="&#xa2;" horiz-adv-x="1024" d="M59 643q0 191 118.5 333.5t301.5 174.5v252q0 13 8.5 22t22.5 9h139q13 0 22 -9t9 -22v-254q171 -38 281 -164q18 -22 -3 -43l-147 -139q-20 -20 -45 2q-43 37 -86 55v-436q46 20 92 59q24 21 45 0l148 -139q21 -22 2 -41q-112 -128 -287 -166v-188q0 -13 -9 -22t-22 -9 h-139q-14 0 -22.5 9t-8.5 22v186q-183 32 -301.5 174.5t-118.5 333.5zM354 643q0 -71 33.5 -128t91.5 -87v430q-58 -30 -91.5 -87t-33.5 -128z" />
<glyph unicode="&#xa3;" horiz-adv-x="1187" d="M102 559v219q0 14 9 22.5t22 8.5h84q-49 96 -49 221q0 120 63.5 217.5t166.5 150t223 52.5q72 0 136.5 -16t120 -47.5t100.5 -66t95 -83.5q25 -23 -2 -59l-110 -148q-17 -28 -64 4q-77 62 -129 83.5t-117 21.5q-70 0 -113.5 -39.5t-43.5 -112.5q0 -36 11.5 -70.5t23 -53 t36.5 -54.5h424q13 0 22 -8.5t9 -22.5v-219q0 -13 -9 -22t-22 -9h-338q-11 -129 -125 -247h502q14 0 22.5 -8.5t8.5 -22.5v-219q0 -13 -8.5 -22t-22.5 -9h-887q-13 0 -21.5 8.5t-8.5 22.5v250q44 21 74.5 40t64.5 48t55 69t27 90h-199q-13 0 -22 9t-9 22z" />
<glyph unicode="&#xa4;" horiz-adv-x="1224" d="M113 672l90 90q-53 95 -53 213q0 117 55 221l-92 92l159 158l86 -86q113 74 250 74q139 0 254 -78l90 90l160 -158l-98 -98q53 -95 53 -215q0 -109 -49 -209l94 -94l-160 -158l-84 84q-119 -82 -260 -82q-138 0 -256 78l-80 -80zM358 975q0 -38 14.5 -79t42.5 -80.5 t78.5 -65t114.5 -25.5q65 0 116 25.5t80 65t43.5 80.5t14.5 79q0 29 -8.5 61.5t-28.5 66.5t-48.5 61t-72.5 44t-96 17q-64 0 -114.5 -25.5t-78.5 -65.5t-42.5 -81t-14.5 -78z" />
<glyph unicode="&#xa5;" horiz-adv-x="1286" d="M66 1397q-19 37 20 37h270q25 0 37 -21l250 -450l250 450q12 21 37 21h270q40 0 21 -37l-414 -731h158q13 0 21.5 -8.5t8.5 -22.5v-162q0 -14 -8.5 -22.5t-21.5 -8.5h-162v-82h162q13 0 21.5 -8t8.5 -22v-162q0 -14 -8.5 -22.5t-21.5 -8.5h-162v-106q0 -13 -8.5 -22 t-22.5 -9h-258q-14 0 -22.5 9t-8.5 22v106h-161q-14 0 -22.5 8.5t-8.5 22.5v162q0 13 8.5 21.5t22.5 8.5h161v82h-161q-14 0 -22.5 9t-8.5 22v162q0 13 8.5 22t22.5 9h161z" />
<glyph unicode="&#xa6;" horiz-adv-x="538" d="M111 215q0 14 8.5 22.5t21.5 8.5h256q13 0 22 -9t9 -22v-573q0 -14 -9 -22.5t-22 -8.5h-256q-13 0 -21.5 8.5t-8.5 22.5v573zM111 1034v574q0 14 8.5 22t21.5 8h256q14 0 22.5 -8.5t8.5 -21.5v-574q0 -13 -8.5 -21.5t-22.5 -8.5h-256q-13 0 -21.5 8t-8.5 22z" />
<glyph unicode="&#xa7;" horiz-adv-x="1417" d="M72 76q-24 29 0 57l110 152q19 32 64 2q102 -71 184.5 -105.5t175.5 -34.5q91 0 145 34.5t54 97.5q0 38 -24 66.5t-64.5 48.5t-93.5 37t-111.5 35t-116.5 39.5t-111 54t-93.5 74t-64.5 104.5t-24 141q0 129 61.5 224t168.5 148q10 122 79 211.5t173 132.5t227 43 q144 0 262.5 -55.5t226.5 -157.5q21 -21 -2 -59l-110 -147q-8 -11 -18 -13t-20.5 2.5t-25.5 14.5q-96 58 -162.5 84t-142.5 26q-82 0 -123 -35t-41 -84t39 -82.5t101 -55t136.5 -42t149.5 -51.5t137 -74.5t101 -120.5t39 -180q0 -125 -61.5 -218t-168.5 -148 q-6 -77 -38.5 -143.5t-83.5 -113.5t-116.5 -80t-138.5 -49t-149 -16q-175 0 -313 68t-217 168zM428 883q0 -50 41 -84.5t110 -57t144 -43.5t158 -57.5t137 -85.5q14 25 14 55q0 49 -41 83.5t-109.5 57.5t-143.5 45t-157.5 59t-136.5 85q-16 -29 -16 -57z" />
<glyph unicode="&#xa8;" horiz-adv-x="788" d="M10 1292q0 64 45 108t107 44t106.5 -44t44.5 -108q0 -65 -44.5 -109t-106.5 -44t-107 44t-45 109zM475 1292q0 64 45 108t107 44t106.5 -44t44.5 -108q0 -65 -44.5 -109t-106.5 -44t-107 44t-45 109z" />
<glyph unicode="&#xa9;" horiz-adv-x="1320" d="M70 864q0 159 79 294t215 213.5t295 78.5q160 0 296 -78.5t216 -213.5t80 -294t-80 -294t-216 -213t-296 -78q-119 0 -228 46t-188 124.5t-126 187t-47 227.5zM254 864q0 -172 117.5 -292.5t287.5 -120.5t289 120.5t119 292.5t-119 293t-289 121t-287.5 -121t-117.5 -293 zM395 864q0 117 82.5 198t196.5 81q92 0 166 -60q19 -16 0 -43l-58 -61q-14 -16 -41 -2q-28 14 -63 14q-52 0 -88.5 -37t-36.5 -90t36.5 -90t88.5 -37q18 0 63 15q28 13 41 -2l58 -62q18 -25 -4 -43q-65 -59 -162 -59q-114 0 -196.5 81t-82.5 197z" />
<glyph unicode="&#xaa;" horiz-adv-x="856" d="M59 1071q0 155 109 264t264 109q88 0 156 -49l16 39h193v-736h-193l-16 50q-69 -50 -156 -50q-155 0 -264 109t-109 264zM274 1071q0 -67 45 -112.5t113 -45.5t114 45.5t46 112.5q0 68 -46.5 115t-113.5 47t-112.5 -47t-45.5 -115z" />
<glyph unicode="&#xab;" horiz-adv-x="776" d="M72 471v176q0 24 16 37l225 203q13 12 25 5.5t12 -26.5v-153q0 -24 -16 -37l-137 -117l137 -117q16 -13 16 -36v-154q0 -20 -12 -25.5t-25 6.5l-225 201q-16 13 -16 37zM426 471v176q0 24 16 37l226 203q14 12 25.5 5.5t11.5 -26.5v-153q0 -23 -17 -37l-137 -117 l137 -117q17 -14 17 -36v-154q0 -20 -11.5 -25.5t-25.5 6.5l-226 201q-16 13 -16 37z" />
<glyph unicode="&#xac;" horiz-adv-x="1095" d="M102 426v188q0 14 9 22.5t22 8.5h830q13 0 21.5 -8.5t8.5 -22.5v-331q0 -14 -8.5 -22.5t-21.5 -8.5h-240q-13 0 -22 9t-9 22v112h-559q-13 0 -22 8.5t-9 22.5z" />
<glyph unicode="&#xad;" horiz-adv-x="798" d="M92 471v186q0 13 9 22t22 9h553q14 0 22.5 -9t8.5 -22v-186q0 -13 -8.5 -22t-22.5 -9h-553q-13 0 -22 9t-9 22z" />
<glyph unicode="&#xae;" horiz-adv-x="1320" d="M70 864q0 159 79 294t215 213.5t295 78.5q160 0 296 -78.5t216 -213.5t80 -294t-80 -294t-216 -213t-296 -78q-119 0 -228 46t-188 124.5t-126 187t-47 227.5zM254 864q0 -172 117.5 -292.5t287.5 -120.5t289 120.5t119 292.5t-119 293t-289 121t-287.5 -121t-117.5 -293 zM424 625v479q0 14 16 14h277q101 0 163 -42.5t62 -137.5q0 -141 -137 -172l137 -137q6 -7 4 -13t-10 -6h-137q-15 0 -21 6l-135 140h-68v-131q0 -15 -14 -15h-121q-16 0 -16 15zM575 879h144q29 0 47 15t18 44q0 28 -18 43.5t-47 15.5h-144v-118z" />
<glyph unicode="&#xaf;" horiz-adv-x="716" d="M10 1227v176q0 13 9 22t22 9h635q14 0 22.5 -9t8.5 -22v-176q0 -13 -8.5 -22t-22.5 -9h-635q-13 0 -22 9t-9 22z" />
<glyph unicode="&#xb0;" horiz-adv-x="813" d="M102 1174q0 123 90.5 211t215.5 88t214 -88t89 -211q0 -126 -89 -215t-214 -89t-215.5 89.5t-90.5 214.5zM291 1174q0 -44 29 -82.5t88 -38.5q58 0 87 38.5t29 82.5q0 40 -29 78t-87 38q-59 0 -88 -38t-29 -78z" />
<glyph unicode="&#xb1;" horiz-adv-x="1011" d="M113 31v162q0 13 8.5 21.5t21.5 8.5h725q14 0 22.5 -8.5t8.5 -21.5v-162q0 -13 -8.5 -22t-22.5 -9h-725q-13 0 -21.5 8.5t-8.5 22.5zM133 584v161q0 13 8.5 22t22.5 9h231v232q0 13 8.5 21.5t22.5 8.5h162q14 0 22 -8t8 -22v-232h230q14 0 22.5 -9t8.5 -22v-161 q0 -14 -8.5 -22.5t-22.5 -8.5h-230v-231q0 -14 -8.5 -22.5t-21.5 -8.5h-162q-14 0 -22.5 8.5t-8.5 22.5v231h-231q-14 0 -22.5 8.5t-8.5 22.5z" />
<glyph unicode="&#xb2;" horiz-adv-x="489" d="M70 1247v29q0 72 50.5 119t121.5 47q70 0 121 -46.5t51 -107.5q0 -54 -29.5 -96t-110.5 -125l-96 -100h242v-66h-344v66l139 141q58 60 75 79t31.5 46t14.5 55q0 38 -28.5 64t-65.5 26q-39 0 -68 -26.5t-29 -75.5v-29h-75z" />
<glyph unicode="&#xb3;" horiz-adv-x="518" d="M72 1079h78q-10 -47 23.5 -84t84.5 -37q46 0 78.5 28t32.5 71q0 57 -41 79.5t-111 10.5v65q129 6 129 88q0 31 -26 53.5t-62 22.5q-44 0 -71 -31t-23 -85h-78q-7 76 44 128t128 52q65 0 114.5 -42.5t49.5 -97.5q0 -64 -62 -108q38 -16 62 -50.5t24 -84.5 q0 -69 -56 -116.5t-132 -47.5q-85 0 -138.5 55.5t-47.5 130.5z" />
<glyph unicode="&#xb4;" horiz-adv-x="432" d="M14 1208l123 258q11 25 35 25h221q18 0 25 -9t0 -26l-123 -258q-11 -24 -35 -24h-221q-40 0 -25 34z" />
<glyph unicode="&#xb5;" horiz-adv-x="1150" d="M80 -358v1331q0 13 9 22t22 9h245q14 0 22.5 -9t8.5 -22v-506q0 -58 16 -100.5t43 -64.5t56 -32t61 -10q90 0 140.5 56t50.5 122v535q0 14 8.5 22.5t21.5 8.5h246q14 0 22.5 -9t8.5 -22v-942q0 -13 -8.5 -22t-22.5 -9h-237q-28 0 -31 31l-8 108q-54 -76 -129 -121 t-162 -45q-32 0 -76 7v-338q0 -14 -8.5 -22.5t-22.5 -8.5h-245q-13 0 -22 8.5t-9 22.5z" />
<glyph unicode="&#xb6;" horiz-adv-x="1683" d="M70 958q0 216 139.5 346t392.5 130h436q14 0 22.5 -9t8.5 -22v-1372q0 -13 -8.5 -22t-22.5 -9h-256q-13 0 -21.5 8.5t-8.5 22.5v452h-150q-252 0 -392 130.5t-140 344.5zM373 958q0 -55 20.5 -94.5t55.5 -60t74 -30t85 -9.5h144v389h-144q-46 0 -85 -9.5t-74 -30.5 t-55.5 -60.5t-20.5 -94.5zM1255 31v1372q0 13 8.5 22t22.5 9h256q14 0 22.5 -9t8.5 -22v-1372q0 -13 -8.5 -22t-22.5 -9h-256q-14 0 -22.5 9t-8.5 22z" />
<glyph unicode="&#xb7;" horiz-adv-x="520" d="M72 573q0 68 48.5 116t117.5 48q67 0 115 -48t48 -116q0 -69 -47.5 -117t-115.5 -48q-69 0 -117.5 48t-48.5 117z" />
<glyph unicode="&#xb8;" horiz-adv-x="411" d="M10 -96q0 17 10 24l78 72h193l-76 -66q76 -7 131 -52t55 -120q0 -67 -32.5 -115t-84.5 -70t-119 -30.5t-136 4.5q-19 3 -19 23v107q0 20 23 20q82 -9 125 4.5t43 44.5q0 16 -21.5 28t-58.5 14t-86 -13q-11 -5 -18 -0.5t-7 14.5v111z" />
<glyph unicode="&#xb9;" horiz-adv-x="280" d="M59 1362v74h131v-535h-75v461h-56z" />
<glyph unicode="&#xba;" horiz-adv-x="864" d="M59 1071q0 155 109 264t264 109t264 -109t109 -264t-109 -264t-264 -109t-264 109t-109 264zM274 1071q0 -67 45 -112.5t113 -45.5t114 45.5t46 112.5q0 68 -46.5 115t-113.5 47t-112.5 -47t-45.5 -115z" />
<glyph unicode="&#xbb;" horiz-adv-x="776" d="M72 252v154q0 23 16 36l137 117l-137 117q-16 13 -16 37v153q0 20 12 26.5t25 -5.5l225 -203q16 -13 16 -37v-176q0 -24 -16 -37l-225 -201q-13 -12 -25 -6.5t-12 25.5zM426 252v154q0 23 16 36l138 117l-138 117q-16 13 -16 37v153q0 20 12 26.5t25 -5.5l225 -203 q17 -14 17 -37v-176q0 -23 -17 -37l-225 -201q-13 -12 -25 -6.5t-12 25.5z" />
<glyph unicode="&#xbc;" horiz-adv-x="1185" d="M68 1362v74h131v-535h-76v461h-55zM82 0l893 1434h86l-881 -1434h-98zM723 156l270 379h76v-316h55v-63h-55v-156h-76v156h-270zM850 219h143v205z" />
<glyph unicode="&#xbd;" horiz-adv-x="1134" d="M68 1362v74h131v-535h-76v461h-55zM82 0l893 1434h86l-881 -1434h-98zM723 346v29q0 72 50.5 119t121.5 47q70 0 121 -46.5t51 -107.5q0 -54 -29.5 -96.5t-109.5 -124.5l-97 -100h242v-66h-344v66l139 141q58 60 75 79t31.5 46t14.5 55q0 38 -28.5 64t-65.5 26 q-39 0 -67.5 -26.5t-28.5 -75.5v-29h-76z" />
<glyph unicode="&#xbe;" horiz-adv-x="1222" d="M61 1079h78q-10 -47 24 -84t85 -37q45 0 77.5 28t32.5 71q0 57 -40.5 79.5t-110.5 10.5v65q129 6 129 88q0 31 -26 53.5t-62 22.5q-44 0 -71 -31t-23 -85h-78q-7 76 44 128t128 52q65 0 114.5 -42.5t49.5 -97.5q0 -64 -62 -108q38 -16 62 -50.5t24 -84.5 q0 -69 -56 -116.5t-132 -47.5q-85 0 -139 55.5t-48 130.5zM139 0l893 1434h86l-880 -1434h-99zM760 156l270 379h76v-316h55v-63h-55v-156h-76v156h-270zM887 219h143v205z" />
<glyph unicode="&#xbf;" horiz-adv-x="1077" d="M72 8q0 140 77 232.5t271 191.5l16 162q3 31 31 31h190q28 0 31 -31l21 -287q3 -25 -27 -35q-166 -52 -225.5 -102.5t-59.5 -114.5q0 -61 52.5 -96t115.5 -35q75 0 137 31t125 86q38 33 64 0l121 -147q26 -32 2 -62q-80 -98 -201.5 -157.5t-271.5 -59.5 q-120 0 -226.5 47.5t-174.5 139t-68 206.5zM395 926q0 69 48 117.5t116 48.5q69 0 117.5 -48.5t48.5 -117.5q0 -68 -48.5 -116t-117.5 -48q-67 0 -115.5 48t-48.5 116z" />
<glyph unicode="&#xc0;" horiz-adv-x="1386" d="M43 35l496 1374q9 25 34 25h236q30 0 39 -25l495 -1374q6 -15 -0.5 -25t-23.5 -10h-266q-27 0 -35 25l-74 227h-502l-73 -227q-8 -25 -35 -25h-266q-17 0 -24 10t-1 25zM410 1825q-15 35 24 35h221q24 0 35 -25l123 -258q7 -17 0 -26t-25 -9h-221q-24 0 -35 25zM532 520 h324l-162 496z" />
<glyph unicode="&#xc1;" horiz-adv-x="1386" d="M43 35l496 1374q9 25 34 25h236q30 0 39 -25l495 -1374q6 -15 -0.5 -25t-23.5 -10h-266q-27 0 -35 25l-74 227h-502l-73 -227q-8 -25 -35 -25h-266q-17 0 -24 10t-1 25zM532 520h324l-162 496zM578 1577l122 258q11 25 35 25h221q18 0 25 -9t0 -26l-123 -258 q-11 -25 -35 -25h-221q-39 0 -24 35z" />
<glyph unicode="&#xc2;" horiz-adv-x="1386" d="M43 35l496 1374q9 25 34 25h236q30 0 39 -25l495 -1374q6 -15 -0.5 -25t-23.5 -10h-266q-27 0 -35 25l-74 227h-502l-73 -227q-8 -25 -35 -25h-266q-17 0 -24 10t-1 25zM372 1592.5q-5 11.5 7 25.5l201 225q14 17 36 17h177q22 0 36 -17l203 -225q12 -14 6 -25.5 t-26 -11.5h-154q-24 0 -37 16l-116 138l-117 -138q-13 -16 -37 -16h-154q-20 0 -25 11.5zM532 520h324l-162 496z" />
<glyph unicode="&#xc3;" horiz-adv-x="1386" d="M43 35l496 1374q9 25 34 25h236q30 0 39 -25l495 -1374q6 -15 -0.5 -25t-23.5 -10h-266q-27 0 -35 25l-74 227h-502l-73 -227q-8 -25 -35 -25h-266q-17 0 -24 10t-1 25zM313 1690q7 106 69.5 161.5t158.5 55.5q57 0 109.5 -23t85 -50t74 -50t77.5 -23q35 0 60.5 16.5 t35.5 39.5q6 16 23 16h69q9 0 15 -6t6 -15q-6 -111 -69 -168t-163 -57q-55 0 -107 23t-84.5 50t-74 50t-78.5 23q-34 0 -59 -16.5t-35 -39.5q-6 -16 -23 -16h-69q-9 0 -15 8.5t-6 20.5zM532 520h324l-162 496z" />
<glyph unicode="&#xc4;" horiz-adv-x="1386" d="M43 35l496 1374q9 25 34 25h236q30 0 39 -25l495 -1374q6 -15 -0.5 -25t-23.5 -10h-266q-27 0 -35 25l-74 227h-502l-73 -227q-8 -25 -35 -25h-266q-17 0 -24 10t-1 25zM319 1722q0 64 45 108t107 44t107 -44t45 -108q0 -65 -45 -109t-107 -44t-107 44t-45 109zM532 520 h324l-162 496zM784 1722q0 64 45 108t107 44t106.5 -44t44.5 -108q0 -65 -44.5 -109t-106.5 -44t-107 44t-45 109z" />
<glyph unicode="&#xc5;" horiz-adv-x="1386" d="M43 35l496 1374q9 25 34 25h236q30 0 39 -25l495 -1374q6 -15 -0.5 -25t-23.5 -10h-266q-27 0 -35 25l-74 227h-502l-73 -227q-8 -25 -35 -25h-266q-17 0 -24 10t-1 25zM483 1739q0 90 65.5 153.5t158.5 63.5q87 0 151 -64t64 -153q0 -87 -64 -151t-151 -64 q-93 0 -158.5 63.5t-65.5 151.5zM532 520h324l-162 496zM655 1741q0 -19 14 -33t33 -14q20 0 35 14t15 33q0 20 -14.5 33.5t-35.5 13.5q-19 0 -33 -13.5t-14 -33.5z" />
<glyph unicode="&#xc6;" horiz-adv-x="1736" d="M43 35l578 1374q9 25 34 25h947q13 0 21.5 -8.5t8.5 -22.5v-219q0 -14 -8.5 -22.5t-21.5 -8.5h-482v-281h453q14 0 22.5 -8.5t8.5 -21.5v-219q0 -13 -9 -22t-22 -9h-453v-311h484q13 0 21.5 -8.5t8.5 -22.5v-219q0 -14 -8.5 -22.5t-21.5 -8.5h-770q-14 0 -22.5 9t-8.5 22 v248h-334l-98 -254q-11 -25 -35 -25h-268q-17 0 -24 10t-1 25zM573 547h230v596z" />
<glyph unicode="&#xc7;" horiz-adv-x="1386" d="M70 711q0 153 58.5 290t157.5 235.5t236 156t289 57.5q148 0 279.5 -55t226.5 -154q19 -21 0 -43l-158 -172q-19 -22 -43 -2q-135 115 -307 115q-174 0 -293 -123t-119 -305q0 -181 119 -303.5t293 -122.5q173 0 307 114q24 20 43 -2l158 -170q20 -23 0 -43 q-86 -90 -200.5 -144.5t-246.5 -64.5l-47 -41q76 -7 131.5 -52t55.5 -120q0 -67 -32.5 -115t-85 -70t-119.5 -30.5t-136 4.5q-19 3 -19 23v107q0 20 23 20q82 -9 125 4.5t43 44.5q0 16 -21.5 28t-58.5 14t-86 -13q-11 -5 -18 -0.5t-7 14.5v111q0 17 11 24l59 56 q-175 28 -315.5 129.5t-221.5 258.5t-81 339z" />
<glyph unicode="&#xc8;" horiz-adv-x="1044" d="M111 31v1372q0 14 8.5 22.5t21.5 8.5h768q13 0 22 -9t9 -22v-219q0 -14 -9 -22.5t-22 -8.5h-481v-281h453q13 0 21.5 -8t8.5 -22v-219q0 -14 -8.5 -22.5t-21.5 -8.5h-453v-311h483q13 0 22 -8.5t9 -22.5v-219q0 -13 -9 -22t-22 -9h-770q-13 0 -21.5 8.5t-8.5 22.5z M240 1825q-15 35 24 35h221q24 0 35 -25l123 -258q7 -17 0 -26t-25 -9h-221q-24 0 -35 25z" />
<glyph unicode="&#xc9;" horiz-adv-x="1044" d="M111 31v1372q0 14 8.5 22.5t21.5 8.5h768q13 0 22 -9t9 -22v-219q0 -14 -9 -22.5t-22 -8.5h-481v-281h453q13 0 21.5 -8t8.5 -22v-219q0 -14 -8.5 -22.5t-21.5 -8.5h-453v-311h483q13 0 22 -8.5t9 -22.5v-219q0 -13 -9 -22t-22 -9h-770q-13 0 -21.5 8.5t-8.5 22.5z M408 1577l122 258q11 25 35 25h221q18 0 25 -9t0 -26l-123 -258q-11 -25 -35 -25h-221q-39 0 -24 35z" />
<glyph unicode="&#xca;" horiz-adv-x="1044" d="M111 31v1372q0 14 8.5 22.5t21.5 8.5h768q13 0 22 -9t9 -22v-219q0 -14 -9 -22.5t-22 -8.5h-481v-281h453q13 0 21.5 -8t8.5 -22v-219q0 -14 -8.5 -22.5t-21.5 -8.5h-453v-311h483q13 0 22 -8.5t9 -22.5v-219q0 -13 -9 -22t-22 -9h-770q-13 0 -21.5 8.5t-8.5 22.5z M202 1592.5q-5 11.5 7 25.5l201 225q14 17 36 17h177q22 0 36 -17l203 -225q12 -14 6 -25.5t-26 -11.5h-154q-24 0 -37 16l-116 138l-117 -138q-13 -16 -37 -16h-154q-20 0 -25 11.5z" />
<glyph unicode="&#xcb;" horiz-adv-x="1044" d="M111 31v1372q0 14 8.5 22.5t21.5 8.5h768q13 0 22 -9t9 -22v-219q0 -14 -9 -22.5t-22 -8.5h-481v-281h453q13 0 21.5 -8t8.5 -22v-219q0 -14 -8.5 -22.5t-21.5 -8.5h-453v-311h483q13 0 22 -8.5t9 -22.5v-219q0 -13 -9 -22t-22 -9h-770q-13 0 -21.5 8.5t-8.5 22.5z M150 1722q0 64 44.5 108t106.5 44t107 -44t45 -108q0 -65 -45 -109t-107 -44t-106.5 44t-44.5 109zM614 1722q0 64 45 108t107 44t107 -44t45 -108q0 -65 -45 -109t-107 -44t-107 44t-45 109z" />
<glyph unicode="&#xcc;" horiz-adv-x="538" d="M-25 1825q-7 17 0 26t25 9h221q24 0 35 -25l123 -258q7 -17 0 -26t-25 -9h-221q-24 0 -35 25zM111 31v1372q0 14 8.5 22.5t21.5 8.5h256q13 0 22 -9t9 -22v-1372q0 -13 -9 -22t-22 -9h-256q-13 0 -21.5 8.5t-8.5 22.5z" />
<glyph unicode="&#xcd;" horiz-adv-x="538" d="M111 31v1372q0 14 8.5 22.5t21.5 8.5h256q13 0 22 -9t9 -22v-1372q0 -13 -9 -22t-22 -9h-256q-13 0 -21.5 8.5t-8.5 22.5zM143 1551q-7 9 0 26l123 258q11 25 35 25h221q18 0 25 -9t0 -26l-123 -258q-11 -25 -35 -25h-221q-18 0 -25 9z" />
<glyph unicode="&#xce;" horiz-adv-x="538" d="M-62 1592.5q-5 11.5 7 25.5l200 225q14 17 37 17h176q23 0 37 -17l203 -225q12 -14 6 -25.5t-26 -11.5h-154q-24 0 -37 16l-117 138l-116 -138q-13 -16 -37 -16h-154q-20 0 -25 11.5zM111 31v1372q0 14 8.5 22.5t21.5 8.5h256q13 0 22 -9t9 -22v-1372q0 -13 -9 -22 t-22 -9h-256q-13 0 -21.5 8.5t-8.5 22.5z" />
<glyph unicode="&#xcf;" horiz-adv-x="538" d="M-115 1722q0 64 45 108t107 44t106.5 -44t44.5 -108q0 -65 -44.5 -109t-106.5 -44t-107 44t-45 109zM111 31v1372q0 14 8.5 22.5t21.5 8.5h256q13 0 22 -9t9 -22v-1372q0 -13 -9 -22t-22 -9h-256q-13 0 -21.5 8.5t-8.5 22.5zM350 1722q0 64 45 108t107 44t106.5 -44 t44.5 -108q0 -65 -44.5 -109t-106.5 -44t-107 44t-45 109z" />
<glyph unicode="&#xd0;" horiz-adv-x="1396" d="M31 614v177q0 13 8.5 21.5t21.5 8.5h66v582q0 13 8.5 22t22.5 9h428q180 0 324.5 -56t237.5 -154t142 -227.5t49 -279.5t-49 -279.5t-142 -227.5t-237.5 -154t-324.5 -56h-428q-14 0 -22.5 9t-8.5 22v553h-66q-13 0 -21.5 8t-8.5 22zM444 281h142q213 0 321.5 112 t108.5 324t-108.5 324t-321.5 112h-142v-332h252q14 0 22.5 -8.5t8.5 -21.5v-177q0 -13 -8.5 -21.5t-22.5 -8.5h-252v-303z" />
<glyph unicode="&#xd1;" horiz-adv-x="1400" d="M111 31v1372q0 14 8.5 22.5t21.5 8.5h289q25 0 37 -21l506 -905v895q0 13 8.5 22t22.5 9h256q13 0 21.5 -8.5t8.5 -22.5v-1372q0 -14 -8.5 -22.5t-21.5 -8.5h-291q-26 0 -37 20l-504 904v-893q0 -13 -9 -22t-22 -9h-256q-13 0 -21.5 8.5t-8.5 22.5zM309 1690 q7 106 69.5 161.5t158.5 55.5q57 0 109.5 -23t85 -50t74 -50t77.5 -23q35 0 60.5 16.5t35.5 39.5q6 16 22 16h70q9 0 15 -6t6 -15q-6 -111 -69 -168t-163 -57q-55 0 -107 23t-84.5 50t-74 50t-78.5 23q-34 0 -59 -16.5t-35 -39.5q-6 -16 -23 -16h-69q-9 0 -15 8.5t-6 20.5z " />
<glyph unicode="&#xd2;" horiz-adv-x="1615" d="M70 711q0 152 58.5 289t157.5 235.5t235 156.5t286 58t287 -58t236 -156.5t157.5 -235.5t58.5 -289q0 -151 -58.5 -288t-157.5 -235.5t-236 -156.5t-287 -58t-286 58t-235 156.5t-157.5 235.5t-58.5 288zM389 711q0 -180 121.5 -304t296.5 -124q177 0 298.5 124 t121.5 304q0 183 -121.5 307.5t-298.5 124.5q-175 0 -296.5 -125t-121.5 -307zM512 1825q-7 17 0 26t25 9h221q24 0 35 -25l122 -258q15 -35 -24 -35h-221q-24 0 -35 25z" />
<glyph unicode="&#xd3;" horiz-adv-x="1615" d="M70 711q0 152 58.5 289t157.5 235.5t235 156.5t286 58t287 -58t236 -156.5t157.5 -235.5t58.5 -289q0 -151 -58.5 -288t-157.5 -235.5t-236 -156.5t-287 -58t-286 58t-235 156.5t-157.5 235.5t-58.5 288zM389 711q0 -180 121.5 -304t296.5 -124q177 0 298.5 124 t121.5 304q0 183 -121.5 307.5t-298.5 124.5q-175 0 -296.5 -125t-121.5 -307zM680 1551q-7 9 0 26l123 258q11 25 35 25h221q39 0 24 -35l-122 -258q-11 -25 -35 -25h-221q-18 0 -25 9z" />
<glyph unicode="&#xd4;" horiz-adv-x="1615" d="M70 711q0 152 58.5 289t157.5 235.5t235 156.5t286 58t287 -58t236 -156.5t157.5 -235.5t58.5 -289q0 -151 -58.5 -288t-157.5 -235.5t-236 -156.5t-287 -58t-286 58t-235 156.5t-157.5 235.5t-58.5 288zM389 711q0 -180 121.5 -304t296.5 -124q177 0 298.5 124 t121.5 304q0 183 -121.5 307.5t-298.5 124.5q-175 0 -296.5 -125t-121.5 -307zM474.5 1592.5q-5.5 11.5 6.5 25.5l201 225q14 17 37 17h176q23 0 37 -17l203 -225q12 -14 5.5 -25.5t-26.5 -11.5h-153q-24 0 -37 16l-117 138l-117 -138q-13 -16 -37 -16h-153 q-20 0 -25.5 11.5z" />
<glyph unicode="&#xd5;" horiz-adv-x="1615" d="M70 711q0 152 58.5 289t157.5 235.5t235 156.5t286 58t287 -58t236 -156.5t157.5 -235.5t58.5 -289q0 -151 -58.5 -288t-157.5 -235.5t-236 -156.5t-287 -58t-286 58t-235 156.5t-157.5 235.5t-58.5 288zM389 711q0 -180 121.5 -304t296.5 -124q177 0 298.5 124 t121.5 304q0 183 -121.5 307.5t-298.5 124.5q-175 0 -296.5 -125t-121.5 -307zM416 1690q7 107 69 162t158 55q57 0 109.5 -23t85 -50t74 -50t77.5 -23q35 0 60.5 16.5t35.5 39.5q6 16 23 16h70q20 0 20 -21q-6 -111 -68.5 -168t-162.5 -57q-55 0 -107 23t-84.5 50t-74 50 t-78.5 23q-34 0 -59.5 -16.5t-35.5 -39.5q-6 -16 -22 -16h-70q-9 0 -14.5 8.5t-5.5 20.5z" />
<glyph unicode="&#xd6;" horiz-adv-x="1615" d="M70 711q0 152 58.5 289t157.5 235.5t235 156.5t286 58t287 -58t236 -156.5t157.5 -235.5t58.5 -289q0 -151 -58.5 -288t-157.5 -235.5t-236 -156.5t-287 -58t-286 58t-235 156.5t-157.5 235.5t-58.5 288zM389 711q0 -180 121.5 -304t296.5 -124q177 0 298.5 124 t121.5 304q0 183 -121.5 307.5t-298.5 124.5q-175 0 -296.5 -125t-121.5 -307zM422 1722q0 64 44.5 108t106.5 44t107 -44t45 -108q0 -65 -45 -109t-107 -44t-106.5 44t-44.5 109zM887 1722q0 64 44.5 108t106.5 44t107 -44t45 -108q0 -65 -45 -109t-107 -44t-106.5 44 t-44.5 109z" />
<glyph unicode="&#xd7;" horiz-adv-x="886" d="M112 400.5q0 12.5 11 21.5l164 164l-164 164q-11 9 -11 21.5t11 21.5l115 114q9 9 21.5 9t21.5 -9l163 -164l164 164q20 20 43 0l115 -114q9 -9 9 -21.5t-9 -21.5l-164 -164l162 -162q20 -23 0 -43l-115 -115q-9 -10 -21.5 -10t-21.5 10l-162 162l-163 -164 q-9 -9 -21.5 -9t-21.5 9l-115 115q-11 9 -11 21.5z" />
<glyph unicode="&#xd8;" horiz-adv-x="1615" d="M70 711q0 152 58.5 289t157.5 235.5t235 156.5t286 58q87 0 184 -23l35 76q10 23 35 23h239q17 0 23.5 -10t-0.5 -27l-84 -178q142 -102 224.5 -259.5t82.5 -340.5q0 -151 -58.5 -288t-157.5 -235.5t-236 -156.5t-287 -58q-87 0 -184 23l-35 -76q-9 -22 -35 -22h-238 q-17 0 -23 9.5t1 26.5l84 179q-142 102 -224.5 258.5t-82.5 339.5zM389 711q0 -182 123 -305l344 735q-16 2 -49 2q-175 0 -296.5 -125t-121.5 -307zM760 285q14 -2 47 -2q177 0 298.5 124t121.5 304q0 183 -123 309z" />
<glyph unicode="&#xd9;" horiz-adv-x="1304" d="M100 557v846q0 13 9 22t22 9h256q13 0 22 -9t9 -22v-846q0 -131 59.5 -200.5t175.5 -69.5q115 0 174.5 69.5t59.5 200.5v846q0 13 8.5 22t22.5 9h256q13 0 21.5 -8.5t8.5 -22.5v-846q0 -276 -152.5 -430t-398.5 -154q-248 0 -400.5 154t-152.5 430zM358 1825q-7 17 0 26 t25 9h221q24 0 35 -25l123 -258q7 -17 0 -26t-25 -9h-221q-24 0 -35 25z" />
<glyph unicode="&#xda;" horiz-adv-x="1304" d="M100 557v846q0 13 9 22t22 9h256q13 0 22 -9t9 -22v-846q0 -131 59.5 -200.5t175.5 -69.5q115 0 174.5 69.5t59.5 200.5v846q0 13 8.5 22t22.5 9h256q13 0 21.5 -8.5t8.5 -22.5v-846q0 -276 -152.5 -430t-398.5 -154q-248 0 -400.5 154t-152.5 430zM526 1551q-7 9 0 26 l123 258q11 25 35 25h221q18 0 25 -9t0 -26l-123 -258q-11 -25 -35 -25h-221q-18 0 -25 9z" />
<glyph unicode="&#xdb;" horiz-adv-x="1304" d="M100 557v846q0 13 9 22t22 9h256q13 0 22 -9t9 -22v-846q0 -131 59.5 -200.5t175.5 -69.5q115 0 174.5 69.5t59.5 200.5v846q0 13 8.5 22t22.5 9h256q13 0 21.5 -8.5t8.5 -22.5v-846q0 -276 -152.5 -430t-398.5 -154q-248 0 -400.5 154t-152.5 430zM321 1592.5 q-5 11.5 7 25.5l200 225q14 17 37 17h176q23 0 37 -17l203 -225q12 -14 6 -25.5t-26 -11.5h-154q-24 0 -37 16l-117 138l-116 -138q-13 -16 -37 -16h-154q-20 0 -25 11.5z" />
<glyph unicode="&#xdc;" horiz-adv-x="1304" d="M100 557v846q0 13 9 22t22 9h256q13 0 22 -9t9 -22v-846q0 -131 59.5 -200.5t175.5 -69.5q115 0 174.5 69.5t59.5 200.5v846q0 13 8.5 22t22.5 9h256q13 0 21.5 -8.5t8.5 -22.5v-846q0 -276 -152.5 -430t-398.5 -154q-248 0 -400.5 154t-152.5 430zM268 1722q0 64 45 108 t107 44t106.5 -44t44.5 -108q0 -65 -44.5 -109t-106.5 -44t-107 44t-45 109zM733 1722q0 64 45 108t107 44t106.5 -44t44.5 -108q0 -65 -44.5 -109t-106.5 -44t-107 44t-45 109z" />
<glyph unicode="&#xdd;" horiz-adv-x="1286" d="M66 1397q-19 37 20 37h270q25 0 37 -21l250 -450l250 450q12 21 37 21h270q40 0 21 -37l-418 -738v-628q0 -13 -8.5 -22t-22.5 -9h-258q-14 0 -22.5 9t-8.5 22v635zM516 1551q-7 9 0 26l123 258q11 25 35 25h221q18 0 25 -9t0 -26l-123 -258q-11 -25 -35 -25h-221 q-18 0 -25 9z" />
<glyph unicode="&#xde;" horiz-adv-x="1179" d="M111 31v1372q0 14 8.5 22.5t21.5 8.5h256q13 0 22 -9t9 -22v-211h168q258 0 396 -123t138 -352t-138 -352t-396 -123h-168v-211q0 -13 -9 -22t-22 -9h-256q-13 0 -21.5 8.5t-8.5 22.5zM428 522h145q126 0 190 42t64 153t-63.5 152.5t-190.5 41.5h-145v-389z" />
<glyph unicode="&#xdf;" horiz-adv-x="1261" d="M111 31v960q0 111 41.5 197.5t113.5 139t163.5 79.5t197.5 27q138 0 251 -42.5t184 -132t71 -212.5q0 -138 -77 -222.5t-167 -87.5q62 -6 118.5 -29t103.5 -62.5t75 -101t28 -136.5q0 -219 -141 -313.5t-440 -94.5h-84q-13 0 -22 9t-9 22v174q0 13 9 22t22 9h84 q145 0 215 41.5t70 142.5q0 50 -20 83t-63.5 50.5t-98 24t-136.5 6.5h-51q-14 0 -22.5 8.5t-8.5 21.5v174q0 14 9 22.5t22 8.5h51q69 0 117.5 15t73.5 43t35 59t10 70q0 71 -57.5 110t-151.5 39q-103 0 -156 -36.5t-53 -127.5v-960q0 -13 -9 -22t-22 -9h-246 q-13 0 -21.5 8.5t-8.5 22.5z" />
<glyph unicode="&#xe0;" d="M59 500q0 145 62 265.5t173.5 190.5t248.5 70q166 0 286 -137l7 84q3 31 30 31h224q13 0 21.5 -8.5t8.5 -22.5v-942q0 -14 -8.5 -22.5t-21.5 -8.5h-224q-27 0 -30 31l-7 73q-118 -131 -286 -131q-137 0 -248.5 70.5t-173.5 191t-62 265.5zM291 1395q-15 35 24 35h222 q23 0 34 -25l123 -258q15 -35 -24 -35h-221q-24 0 -35 25zM354 502q0 -106 65 -177t163 -71q95 0 160 73.5t65 174.5t-65 173.5t-160 72.5q-98 0 -163 -70.5t-65 -175.5z" />
<glyph unicode="&#xe1;" d="M59 500q0 145 62 265.5t173.5 190.5t248.5 70q166 0 286 -137l7 84q3 31 30 31h224q13 0 21.5 -8.5t8.5 -22.5v-942q0 -14 -8.5 -22.5t-21.5 -8.5h-224q-27 0 -30 31l-7 73q-118 -131 -286 -131q-137 0 -248.5 70.5t-173.5 191t-62 265.5zM354 502q0 -106 65 -177 t163 -71q95 0 160 73.5t65 174.5t-65 173.5t-160 72.5q-98 0 -163 -70.5t-65 -175.5zM459 1147l123 258q11 25 34 25h222q39 0 24 -35l-123 -258q-11 -25 -34 -25h-222q-39 0 -24 35z" />
<glyph unicode="&#xe2;" d="M59 500q0 145 62 265.5t173.5 190.5t248.5 70q166 0 286 -137l7 84q3 31 30 31h224q13 0 21.5 -8.5t8.5 -22.5v-942q0 -14 -8.5 -22.5t-21.5 -8.5h-224q-27 0 -30 31l-7 73q-118 -131 -286 -131q-137 0 -248.5 70.5t-173.5 191t-62 265.5zM253.5 1162.5 q-5.5 11.5 6.5 25.5l201 225q14 17 37 17h176q23 0 37 -17l202 -225q12 -14 6 -25.5t-26 -11.5h-154q-24 0 -37 16l-116 138l-117 -138q-13 -16 -37 -16h-153q-20 0 -25.5 11.5zM354 502q0 -106 65 -177t163 -71q95 0 160 73.5t65 174.5t-65 173.5t-160 72.5 q-98 0 -163 -70.5t-65 -175.5z" />
<glyph unicode="&#xe3;" d="M59 500q0 145 62 265.5t173.5 190.5t248.5 70q166 0 286 -137l7 84q3 31 30 31h224q13 0 21.5 -8.5t8.5 -22.5v-942q0 -14 -8.5 -22.5t-21.5 -8.5h-224q-27 0 -30 31l-7 73q-118 -131 -286 -131q-137 0 -248.5 70.5t-173.5 191t-62 265.5zM195 1260q7 107 69 162t158 55 q57 0 109.5 -23t85 -50t74 -50t77.5 -23q35 0 60.5 16t35.5 39q7 17 23 17h69q9 0 15 -6t6 -15q-6 -111 -69 -168t-163 -57q-55 0 -107 23t-84.5 50t-74 50t-78.5 23q-34 0 -59 -16.5t-35 -39.5q-6 -16 -22 -16h-70q-9 0 -14.5 8.5t-5.5 20.5zM354 502q0 -106 65 -177 t163 -71q95 0 160 73.5t65 174.5t-65 173.5t-160 72.5q-98 0 -163 -70.5t-65 -175.5z" />
<glyph unicode="&#xe4;" d="M59 500q0 145 62 265.5t173.5 190.5t248.5 70q166 0 286 -137l7 84q3 31 30 31h224q13 0 21.5 -8.5t8.5 -22.5v-942q0 -14 -8.5 -22.5t-21.5 -8.5h-224q-27 0 -30 31l-7 73q-118 -131 -286 -131q-137 0 -248.5 70.5t-173.5 191t-62 265.5zM201 1292q0 64 44.5 108 t106.5 44t107 -44t45 -108q0 -65 -45 -109t-107 -44t-106.5 44t-44.5 109zM354 502q0 -106 65 -177t163 -71q95 0 160 73.5t65 174.5t-65 173.5t-160 72.5q-98 0 -163 -70.5t-65 -175.5zM666 1292q0 64 44.5 108t106.5 44t107 -44t45 -108q0 -65 -45 -109t-107 -44 t-106.5 44t-44.5 109z" />
<glyph unicode="&#xe5;" d="M59 500q0 145 62 265.5t173.5 190.5t248.5 70q166 0 286 -137l7 84q3 31 30 31h224q13 0 21.5 -8.5t8.5 -22.5v-942q0 -14 -8.5 -22.5t-21.5 -8.5h-224q-27 0 -30 31l-7 73q-118 -131 -286 -131q-137 0 -248.5 70.5t-173.5 191t-62 265.5zM354 502q0 -106 65 -177 t163 -71q95 0 160 73.5t65 174.5t-65 173.5t-160 72.5q-98 0 -163 -70.5t-65 -175.5zM365 1309q0 90 65 153.5t158 63.5q87 0 151 -64t64 -153q0 -87 -64 -151t-151 -64q-93 0 -158 63.5t-65 151.5zM537 1311q0 -19 14 -33t33 -14q20 0 34.5 14t14.5 33q0 20 -14.5 33.5 t-34.5 13.5q-19 0 -33 -13.5t-14 -33.5z" />
<glyph unicode="&#xe6;" horiz-adv-x="1863" d="M59 500q0 145 62 265.5t173.5 190.5t248.5 70q166 0 286 -137l7 84q3 31 30 31h224q21 0 28 -21q93 43 209 43q106 0 196.5 -40.5t151.5 -110t95 -162t34 -195.5q0 -69 -14 -98t-59 -29h-609q22 -85 87.5 -128.5t170.5 -43.5q99 0 195 60q24 16 45 -5l106 -102 q19 -22 -4 -45q-73 -73 -169 -113.5t-203 -40.5q-126 0 -232 47q-7 -20 -28 -20h-224q-27 0 -30 31l-7 73q-118 -131 -286 -131q-137 0 -248.5 70.5t-173.5 191t-62 265.5zM354 502q0 -106 65 -177t163 -71q95 0 160 73.5t65 174.5t-65 173.5t-160 72.5q-98 0 -163 -70.5 t-65 -175.5zM1120 586h412q-13 89 -68.5 135.5t-134.5 46.5q-76 0 -132.5 -43t-76.5 -125v-14z" />
<glyph unicode="&#xe7;" horiz-adv-x="1140" d="M59 500q0 145 67.5 266t186 190.5t260.5 69.5q115 0 215.5 -47t172.5 -131q18 -22 -3 -43l-147 -143q-20 -20 -45 2q-86 77 -184 77q-99 0 -163.5 -69t-64.5 -172t64.5 -172.5t163.5 -69.5t190 78q24 21 45 0l148 -141q21 -21 2 -43q-67 -76 -158 -123t-195 -54l-47 -41 q76 -7 131.5 -52t55.5 -120q0 -67 -32.5 -115t-85 -70t-119.5 -30.5t-136 4.5q-19 3 -19 23v107q0 20 23 20q82 -9 125 4.5t43 44.5q0 16 -21.5 28t-58.5 14t-86 -13q-11 -5 -18 -0.5t-7 14.5v111q0 17 11 24l67 62q-168 45 -274.5 185.5t-106.5 324.5z" />
<glyph unicode="&#xe8;" horiz-adv-x="1105" d="M59 500q0 146 66 266.5t183 190t261 69.5q142 0 252 -69.5t168 -185t58 -253.5q0 -68 -14.5 -97.5t-59.5 -29.5h-608q22 -85 87.5 -128.5t170.5 -43.5q98 0 194 60q24 16 45 -5l107 -102q19 -22 -4 -45q-73 -73 -169.5 -113.5t-203.5 -40.5q-233 0 -383 151.5t-150 375.5 zM260 1395q-7 17 0 26t25 9h221q24 0 35 -25l123 -258q7 -17 0 -26t-25 -9h-221q-24 0 -35 25zM360 586h414q-13 89 -68.5 135.5t-134.5 46.5q-80 0 -137 -46.5t-74 -135.5z" />
<glyph unicode="&#xe9;" horiz-adv-x="1105" d="M59 500q0 146 66 266.5t183 190t261 69.5q142 0 252 -69.5t168 -185t58 -253.5q0 -68 -14.5 -97.5t-59.5 -29.5h-608q22 -85 87.5 -128.5t170.5 -43.5q98 0 194 60q24 16 45 -5l107 -102q19 -22 -4 -45q-73 -73 -169.5 -113.5t-203.5 -40.5q-233 0 -383 151.5t-150 375.5 zM360 586h414q-13 89 -68.5 135.5t-134.5 46.5q-80 0 -137 -46.5t-74 -135.5zM428 1121q-7 9 0 26l123 258q11 25 35 25h221q39 0 24 -35l-122 -258q-11 -25 -35 -25h-221q-18 0 -25 9z" />
<glyph unicode="&#xea;" horiz-adv-x="1105" d="M59 500q0 146 66 266.5t183 190t261 69.5q142 0 252 -69.5t168 -185t58 -253.5q0 -68 -14.5 -97.5t-59.5 -29.5h-608q22 -85 87.5 -128.5t170.5 -43.5q98 0 194 60q24 16 45 -5l107 -102q19 -22 -4 -45q-73 -73 -169.5 -113.5t-203.5 -40.5q-233 0 -383 151.5t-150 375.5 zM222.5 1162.5q-5.5 11.5 6.5 25.5l201 225q14 17 37 17h176q23 0 37 -17l203 -225q12 -14 5.5 -25.5t-26.5 -11.5h-153q-24 0 -37 16l-117 138l-117 -138q-13 -16 -37 -16h-153q-20 0 -25.5 11.5zM360 586h414q-13 89 -68.5 135.5t-134.5 46.5q-80 0 -137 -46.5t-74 -135.5 z" />
<glyph unicode="&#xeb;" horiz-adv-x="1105" d="M59 500q0 146 66 266.5t183 190t261 69.5q142 0 252 -69.5t168 -185t58 -253.5q0 -68 -14.5 -97.5t-59.5 -29.5h-608q22 -85 87.5 -128.5t170.5 -43.5q98 0 194 60q24 16 45 -5l107 -102q19 -22 -4 -45q-73 -73 -169.5 -113.5t-203.5 -40.5q-233 0 -383 151.5t-150 375.5 zM170 1292q0 64 45 108t107 44t106.5 -44t44.5 -108q0 -65 -44.5 -109t-106.5 -44t-107 44t-45 109zM360 586h414q-13 89 -68.5 135.5t-134.5 46.5q-80 0 -137 -46.5t-74 -135.5zM635 1292q0 64 44.5 108t106.5 44t107 -44t45 -108q0 -65 -45 -109t-107 -44t-106.5 44 t-44.5 109z" />
<glyph unicode="&#xec;" horiz-adv-x="487" d="M-51 1395q-15 35 24 35h222q23 0 34 -25l123 -258q15 -35 -24 -35h-222q-23 0 -34 25zM90 31v942q0 13 9 22t22 9h246q13 0 21.5 -8.5t8.5 -22.5v-942q0 -14 -8.5 -22.5t-21.5 -8.5h-246q-13 0 -22 9t-9 22z" />
<glyph unicode="&#xed;" horiz-adv-x="487" d="M90 31v942q0 13 9 22t22 9h246q13 0 21.5 -8.5t8.5 -22.5v-942q0 -14 -8.5 -22.5t-21.5 -8.5h-246q-13 0 -22 9t-9 22zM117 1147l123 258q11 25 34 25h222q39 0 24 -35l-123 -258q-11 -25 -35 -25h-221q-39 0 -24 35z" />
<glyph unicode="&#xee;" horiz-adv-x="487" d="M-88.5 1162.5q-5.5 11.5 6.5 25.5l201 225q14 17 37 17h176q23 0 37 -17l202 -225q12 -14 6 -25.5t-26 -11.5h-154q-24 0 -37 16l-116 138l-117 -138q-13 -16 -37 -16h-153q-20 0 -25.5 11.5zM90 31v942q0 13 9 22t22 9h246q13 0 21.5 -8.5t8.5 -22.5v-942 q0 -14 -8.5 -22.5t-21.5 -8.5h-246q-13 0 -22 9t-9 22z" />
<glyph unicode="&#xef;" horiz-adv-x="487" d="M-141 1292q0 64 44.5 108t106.5 44t107 -44t45 -108q0 -65 -45 -109t-107 -44t-106.5 44t-44.5 109zM90 31v942q0 13 9 22t22 9h246q13 0 21.5 -8.5t8.5 -22.5v-942q0 -14 -8.5 -22.5t-21.5 -8.5h-246q-13 0 -22 9t-9 22zM324 1292q0 64 44.5 108t106.5 44t107 -44 t45 -108q0 -65 -45 -109t-107 -44t-106.5 44t-44.5 109z" />
<glyph unicode="&#xf0;" horiz-adv-x="1177" d="M59 500q0 145 62 265.5t173.5 190.5t248.5 70q154 0 270 -119v183l-143 -17q-33 -3 -33 29v155q0 30 29 33l147 17v157q0 14 8.5 22.5t22.5 8.5h246q13 0 21.5 -8.5t8.5 -22.5v-121l15 3q32 3 32 -29v-156q0 -30 -28 -33l-19 -2v-1095q0 -14 -8.5 -22.5t-21.5 -8.5h-224 q-27 0 -30 31l-7 73q-118 -131 -286 -131q-137 0 -248.5 70.5t-173.5 191t-62 265.5zM354 502q0 -106 65 -177t163 -71q95 0 160 73.5t65 174.5t-65 173.5t-160 72.5q-98 0 -163 -70.5t-65 -175.5z" />
<glyph unicode="&#xf1;" horiz-adv-x="1161" d="M90 31v942q0 13 9 22t22 9h237q28 0 31 -31l8 -127q50 83 128.5 131.5t181.5 48.5q156 0 260 -118t104 -314v-563q0 -13 -8.5 -22t-22.5 -9h-245q-13 0 -22 9t-9 22v501q0 111 -50 160t-122 49q-48 0 -87.5 -21.5t-61.5 -52.5t-34 -60t-12 -50v-526q0 -14 -8.5 -22.5 t-21.5 -8.5h-246q-13 0 -22 9t-9 22zM188 1260q7 106 69.5 161.5t158.5 55.5q57 0 109.5 -23t85 -50t74 -50t77.5 -23q35 0 60.5 16t35.5 39q7 17 23 17h69q9 0 15 -6t6 -15q-6 -111 -69 -168t-163 -57q-55 0 -107 23t-84.5 50t-74 50t-78.5 23q-34 0 -59 -16.5t-35 -39.5 q-6 -16 -22 -16h-70q-9 0 -15 8.5t-6 20.5z" />
<glyph unicode="&#xf2;" horiz-adv-x="1165" d="M59 500q0 145 70 266t190 190.5t263 69.5t263.5 -69.5t190.5 -190.5t70 -266t-70 -266.5t-190.5 -191t-263.5 -69.5q-142 0 -262.5 69.5t-190.5 191t-70 266.5zM287 1395q-15 35 24 35h221q24 0 35 -25l123 -258q15 -35 -24 -35h-222q-23 0 -34 25zM354 500 q0 -104 66.5 -173t161.5 -69q96 0 161.5 68.5t65.5 173.5t-65.5 173t-161.5 68q-95 0 -161.5 -68.5t-66.5 -172.5z" />
<glyph unicode="&#xf3;" horiz-adv-x="1165" d="M59 500q0 145 70 266t190 190.5t263 69.5t263.5 -69.5t190.5 -190.5t70 -266t-70 -266.5t-190.5 -191t-263.5 -69.5q-142 0 -262.5 69.5t-190.5 191t-70 266.5zM354 500q0 -104 66.5 -173t161.5 -69q96 0 161.5 68.5t65.5 173.5t-65.5 173t-161.5 68q-95 0 -161.5 -68.5 t-66.5 -172.5zM455 1147l123 258q11 25 34 25h222q39 0 24 -35l-123 -258q-11 -25 -35 -25h-221q-39 0 -24 35z" />
<glyph unicode="&#xf4;" horiz-adv-x="1165" d="M59 500q0 145 70 266t190 190.5t263 69.5t263.5 -69.5t190.5 -190.5t70 -266t-70 -266.5t-190.5 -191t-263.5 -69.5q-142 0 -262.5 69.5t-190.5 191t-70 266.5zM249 1162.5q-5 11.5 7 25.5l201 225q14 17 37 17h176q23 0 37 -17l202 -225q12 -14 6 -25.5t-26 -11.5h-154 q-24 0 -37 16l-116 138l-117 -138q-13 -16 -37 -16h-154q-20 0 -25 11.5zM354 500q0 -104 66.5 -173t161.5 -69q96 0 161.5 68.5t65.5 173.5t-65.5 173t-161.5 68q-95 0 -161.5 -68.5t-66.5 -172.5z" />
<glyph unicode="&#xf5;" horiz-adv-x="1165" d="M59 500q0 145 70 266t190 190.5t263 69.5t263.5 -69.5t190.5 -190.5t70 -266t-70 -266.5t-190.5 -191t-263.5 -69.5q-142 0 -262.5 69.5t-190.5 191t-70 266.5zM190 1260q7 106 69.5 161.5t158.5 55.5q57 0 109.5 -23t85 -50t74 -50t77.5 -23q35 0 60.5 16t35.5 39 q7 17 23 17h69q9 0 15 -6t6 -15q-6 -111 -69 -168t-163 -57q-55 0 -107 23t-84.5 50t-74 50t-78.5 23q-34 0 -59 -16.5t-35 -39.5q-6 -16 -22 -16h-70q-9 0 -15 8.5t-6 20.5zM354 500q0 -104 66.5 -173t161.5 -69q96 0 161.5 68.5t65.5 173.5t-65.5 173t-161.5 68 q-95 0 -161.5 -68.5t-66.5 -172.5z" />
<glyph unicode="&#xf6;" horiz-adv-x="1165" d="M59 500q0 145 70 266t190 190.5t263 69.5t263.5 -69.5t190.5 -190.5t70 -266t-70 -266.5t-190.5 -191t-263.5 -69.5q-142 0 -262.5 69.5t-190.5 191t-70 266.5zM197 1292q0 64 44.5 108t106.5 44t107 -44t45 -108q0 -65 -45 -109t-107 -44t-106.5 44t-44.5 109zM354 500 q0 -104 66.5 -173t161.5 -69q96 0 161.5 68.5t65.5 173.5t-65.5 173t-161.5 68q-95 0 -161.5 -68.5t-66.5 -172.5zM662 1292q0 64 44.5 108t106.5 44t107 -44t45 -108q0 -65 -45 -109t-107 -44t-106.5 44t-44.5 109z" />
<glyph unicode="&#xf7;" horiz-adv-x="1011" d="M113 504v162q0 14 8.5 22t21.5 8h725q14 0 22.5 -8.5t8.5 -21.5v-162q0 -14 -8.5 -22.5t-22.5 -8.5h-725q-13 0 -21.5 8.5t-8.5 22.5zM342 221q0 68 48.5 116t117.5 48q68 0 116 -48.5t48 -115.5q0 -69 -48 -117.5t-116 -48.5q-69 0 -117.5 48.5t-48.5 117.5zM342 918 q0 68 48.5 115.5t117.5 47.5q68 0 116 -48t48 -115q0 -69 -48 -117.5t-116 -48.5q-69 0 -117.5 48.5t-48.5 117.5z" />
<glyph unicode="&#xf8;" horiz-adv-x="1165" d="M59 500q0 145 70 266t190 190.5t263 69.5q49 0 104 -10l47 104q9 23 35 23h188q17 0 23.5 -10t-0.5 -27l-82 -184q97 -72 153 -183t56 -239q0 -145 -70 -266.5t-190.5 -191t-263.5 -69.5q-40 0 -101 11l-47 -105q-8 -22 -35 -22h-190q-17 0 -23.5 10t0.5 27l82 184 q-97 72 -153 183t-56 239zM354 500q0 -79 39 -140l170 381q-89 -8 -149 -75t-60 -166zM602 258q89 9 148 76.5t59 165.5q0 79 -39 137z" />
<glyph unicode="&#xf9;" horiz-adv-x="1150" d="M80 406v567q0 13 9 22t22 9h245q14 0 22.5 -9t8.5 -22v-506q0 -58 16 -100.5t43 -64.5t56 -32t61 -10q90 0 140.5 56t50.5 122v535q0 14 8.5 22.5t21.5 8.5h246q14 0 22.5 -9t8.5 -22v-942q0 -13 -8.5 -22t-22.5 -9h-237q-28 0 -31 31l-8 108q-54 -76 -129 -121t-162 -45 q-170 0 -276.5 117.5t-106.5 315.5zM274 1395q-7 17 0 26t25 9h221q24 0 35 -25l123 -258q7 -17 0 -26t-25 -9h-221q-24 0 -35 25z" />
<glyph unicode="&#xfa;" horiz-adv-x="1150" d="M80 406v567q0 13 9 22t22 9h245q14 0 22.5 -9t8.5 -22v-506q0 -58 16 -100.5t43 -64.5t56 -32t61 -10q90 0 140.5 56t50.5 122v535q0 14 8.5 22.5t21.5 8.5h246q14 0 22.5 -9t8.5 -22v-942q0 -13 -8.5 -22t-22.5 -9h-237q-28 0 -31 31l-8 108q-54 -76 -129 -121t-162 -45 q-170 0 -276.5 117.5t-106.5 315.5zM442 1121q-7 9 0 26l123 258q11 25 35 25h221q18 0 25 -9t0 -26l-123 -258q-11 -25 -35 -25h-221q-18 0 -25 9z" />
<glyph unicode="&#xfb;" horiz-adv-x="1150" d="M80 406v567q0 13 9 22t22 9h245q14 0 22.5 -9t8.5 -22v-506q0 -58 16 -100.5t43 -64.5t56 -32t61 -10q90 0 140.5 56t50.5 122v535q0 14 8.5 22.5t21.5 8.5h246q14 0 22.5 -9t8.5 -22v-942q0 -13 -8.5 -22t-22.5 -9h-237q-28 0 -31 31l-8 108q-54 -76 -129 -121t-162 -45 q-170 0 -276.5 117.5t-106.5 315.5zM237 1162.5q-5 11.5 7 25.5l200 225q14 17 37 17h176q23 0 37 -17l203 -225q12 -14 6 -25.5t-26 -11.5h-154q-24 0 -37 16l-117 138l-116 -138q-13 -16 -37 -16h-154q-20 0 -25 11.5z" />
<glyph unicode="&#xfc;" horiz-adv-x="1150" d="M80 406v567q0 13 9 22t22 9h245q14 0 22.5 -9t8.5 -22v-506q0 -58 16 -100.5t43 -64.5t56 -32t61 -10q90 0 140.5 56t50.5 122v535q0 14 8.5 22.5t21.5 8.5h246q14 0 22.5 -9t8.5 -22v-942q0 -13 -8.5 -22t-22.5 -9h-237q-28 0 -31 31l-8 108q-54 -76 -129 -121t-162 -45 q-170 0 -276.5 117.5t-106.5 315.5zM184 1292q0 64 45 108t107 44t106.5 -44t44.5 -108q0 -65 -44.5 -109t-106.5 -44t-107 44t-45 109zM649 1292q0 64 45 108t107 44t106.5 -44t44.5 -108q0 -65 -44.5 -109t-106.5 -44t-107 44t-45 109z" />
<glyph unicode="&#xfd;" horiz-adv-x="1159" d="M43 969q-12 35 25 35h247q28 0 37 -25l226 -619l225 619q9 25 37 25h252q36 0 24 -35l-530 -1334q-9 -24 -37 -24h-240q-18 0 -25 9t1 26l145 352zM451 1147l122 258q11 25 35 25h221q18 0 25 -9t0 -26l-123 -258q-11 -25 -35 -25h-221q-39 0 -24 35z" />
<glyph unicode="&#xfe;" horiz-adv-x="1216" d="M90 31v1433q0 14 9 22.5t22 8.5h246q13 0 21.5 -8.5t8.5 -22.5v-557q116 119 271 119h4h2q137 0 248 -70t173 -190.5t62 -265.5q0 -222 -138 -374.5t-345 -152.5h-2h-4q-150 0 -265 107v-438q0 -14 -8.5 -22.5t-21.5 -8.5h-246q-13 0 -22 8.5t-9 22.5v368q-6 9 -6 21z M410 502q0 -100 64 -173.5t159 -74.5q96 1 159.5 72t63.5 176q0 103 -63.5 174t-159.5 72q-95 -1 -159 -73.5t-64 -172.5z" />
<glyph unicode="&#xff;" horiz-adv-x="1159" d="M43 969q-12 35 25 35h247q28 0 37 -25l226 -619l225 619q9 25 37 25h252q36 0 24 -35l-530 -1334q-9 -24 -37 -24h-240q-18 0 -25 9t1 26l145 352zM193 1292q0 64 44.5 108t106.5 44t107 -44t45 -108q0 -65 -45 -109t-107 -44t-106.5 44t-44.5 109zM657 1292q0 64 45 108 t107 44t107 -44t45 -108q0 -65 -45 -109t-107 -44t-107 44t-45 109z" />
<glyph unicode="&#x152;" horiz-adv-x="2160" d="M70 711q0 152 58.5 289t157.5 235.5t235 156.5t286 58q233 0 420 -129v82q0 14 8.5 22.5t21.5 8.5h768q13 0 22 -9t9 -22v-219q0 -14 -9 -22.5t-22 -8.5h-481v-281h453q14 0 22.5 -8.5t8.5 -21.5v-219q0 -13 -9 -22t-22 -9h-453v-311h484q13 0 21.5 -8.5t8.5 -22.5v-219 q0 -14 -8.5 -22.5t-21.5 -8.5h-771q-13 0 -21.5 8.5t-8.5 22.5v71q-187 -129 -420 -129q-150 0 -286 58t-235 156.5t-157.5 235.5t-58.5 288zM389 711q0 -180 121.5 -304t296.5 -124q177 0 298.5 124t121.5 304q0 183 -121.5 307.5t-298.5 124.5q-175 0 -296.5 -125 t-121.5 -307z" />
<glyph unicode="&#x153;" horiz-adv-x="1857" d="M59 500q0 145 70 266t190 190.5t263 69.5q107 0 203.5 -41t168.5 -113q151 154 367 154q106 0 196.5 -40.5t151.5 -110t95 -162t34 -195.5q0 -68 -14.5 -97.5t-59.5 -29.5h-608q22 -85 87.5 -128.5t170.5 -43.5q99 0 195 60q24 16 45 -5l106 -102q19 -22 -4 -45 q-73 -73 -169.5 -113.5t-203.5 -40.5q-234 0 -387 156q-156 -156 -374 -156q-142 0 -262.5 69.5t-190.5 191t-70 266.5zM354 500q0 -104 66.5 -173t161.5 -69q96 0 161.5 68.5t65.5 173.5t-65.5 173t-161.5 68q-95 0 -161.5 -68.5t-66.5 -172.5zM1112 586h414 q-13 89 -68.5 135.5t-134.5 46.5q-80 0 -137 -46.5t-74 -135.5z" />
<glyph unicode="&#x178;" horiz-adv-x="1286" d="M66 1397q-19 37 20 37h270q25 0 37 -21l250 -450l250 450q12 21 37 21h270q40 0 21 -37l-418 -738v-628q0 -13 -8.5 -22t-22.5 -9h-258q-14 0 -22.5 9t-8.5 22v635zM258 1722q0 64 45 108t107 44t106.5 -44t44.5 -108q0 -65 -44.5 -109t-106.5 -44t-107 44t-45 109z M723 1722q0 64 44.5 108t106.5 44t107 -44t45 -108q0 -65 -45 -109t-107 -44t-106.5 44t-44.5 109z" />
<glyph unicode="&#x2c6;" horiz-adv-x="694" d="M13.5 1166.5q-5.5 11.5 6.5 25.5l201 225q14 17 37 17h176q23 0 37 -17l203 -225q12 -14 5.5 -25.5t-26.5 -11.5h-153q-24 0 -37 16l-117 138l-117 -138q-13 -16 -36 -16h-154q-20 0 -25.5 11.5z" />
<glyph unicode="&#x2dc;" horiz-adv-x="802" d="M10 1264q7 106 69.5 161.5t158.5 55.5q57 0 109.5 -23t85 -50t74 -50t77.5 -23q35 0 60.5 16.5t35.5 39.5q6 16 22 16h70q9 0 15 -6t6 -15q-6 -111 -69 -168t-163 -57q-55 0 -107 23t-84.5 50t-74 50t-78.5 23q-34 0 -59 -16.5t-35 -39.5q-6 -16 -23 -16h-69 q-9 0 -15 8.5t-6 20.5z" />
<glyph unicode="&#x2000;" horiz-adv-x="978" />
<glyph unicode="&#x2001;" horiz-adv-x="1956" />
<glyph unicode="&#x2002;" horiz-adv-x="978" />
<glyph unicode="&#x2003;" horiz-adv-x="1956" />
<glyph unicode="&#x2004;" horiz-adv-x="652" />
<glyph unicode="&#x2005;" horiz-adv-x="489" />
<glyph unicode="&#x2006;" horiz-adv-x="326" />
<glyph unicode="&#x2007;" horiz-adv-x="326" />
<glyph unicode="&#x2008;" horiz-adv-x="244" />
<glyph unicode="&#x2009;" horiz-adv-x="391" />
<glyph unicode="&#x200a;" horiz-adv-x="108" />
<glyph unicode="&#x2010;" horiz-adv-x="798" d="M92 471v186q0 13 9 22t22 9h553q14 0 22.5 -9t8.5 -22v-186q0 -13 -8.5 -22t-22.5 -9h-553q-13 0 -22 9t-9 22z" />
<glyph unicode="&#x2011;" horiz-adv-x="798" d="M92 471v186q0 13 9 22t22 9h553q14 0 22.5 -9t8.5 -22v-186q0 -13 -8.5 -22t-22.5 -9h-553q-13 0 -22 9t-9 22z" />
<glyph unicode="&#x2012;" horiz-adv-x="798" d="M92 471v186q0 13 9 22t22 9h553q14 0 22.5 -9t8.5 -22v-186q0 -13 -8.5 -22t-22.5 -9h-553q-13 0 -22 9t-9 22z" />
<glyph unicode="&#x2013;" horiz-adv-x="1249" d="M102 471v186q0 13 9 22t22 9h983q14 0 22.5 -9t8.5 -22v-186q0 -13 -8.5 -22t-22.5 -9h-983q-13 0 -22 9t-9 22z" />
<glyph unicode="&#x2014;" horiz-adv-x="1372" d="M102 471v186q0 13 9 22t22 9h1106q13 0 22 -9t9 -22v-186q0 -13 -9 -22t-22 -9h-1106q-13 0 -22 9t-9 22z" />
<glyph unicode="&#x2018;" horiz-adv-x="454" d="M61 1112q0 97 43.5 188t94.5 150q13 10 26 10h29q26 0 16 -26q-43 -88 -43 -177q69 0 117.5 -48t48.5 -117q0 -68 -48.5 -116t-117.5 -48t-117.5 51.5t-48.5 132.5z" />
<glyph unicode="&#x2019;" horiz-adv-x="454" d="M61 1264q0 68 48.5 115.5t117.5 47.5t117.5 -51.5t48.5 -132.5q0 -97 -43 -188t-94 -150q-13 -10 -27 -10h-28q-12 0 -16.5 7.5t-0.5 19.5q43 88 43 176q-69 0 -117.5 48.5t-48.5 117.5z" />
<glyph unicode="&#x201a;" horiz-adv-x="454" d="M61 139q0 68 48.5 116t117.5 48t117.5 -51.5t48.5 -132.5q0 -97 -43 -188t-94 -150q-12 -10 -27 -10h-28q-12 0 -16.5 7t-0.5 19q43 88 43 176q-69 0 -117.5 48.5t-48.5 117.5z" />
<glyph unicode="&#x201c;" horiz-adv-x="851" d="M61 1112q0 97 43.5 188t94.5 150q13 10 26 10h29q26 0 16 -26q-43 -88 -43 -177q69 0 117.5 -48t48.5 -117q0 -68 -48.5 -116t-117.5 -48t-117.5 51.5t-48.5 132.5zM459 1112q0 97 43 188t94 150q12 10 27 10h28q12 0 16.5 -7t0.5 -19q-43 -88 -43 -177q69 0 117.5 -48 t48.5 -117q0 -68 -48.5 -116t-117.5 -48t-117.5 51.5t-48.5 132.5z" />
<glyph unicode="&#x201d;" horiz-adv-x="851" d="M61 1264q0 68 48.5 115.5t117.5 47.5t117.5 -51.5t48.5 -132.5q0 -97 -43 -188t-94 -150q-13 -10 -27 -10h-28q-12 0 -16.5 7.5t-0.5 19.5q43 88 43 176q-69 0 -117.5 48.5t-48.5 117.5zM459 1264q0 68 48.5 115.5t117.5 47.5t117.5 -51.5t48.5 -132.5q0 -97 -43.5 -188 t-94.5 -150q-13 -10 -26 -10h-29q-26 0 -16 27q43 88 43 176q-69 0 -117.5 48.5t-48.5 117.5z" />
<glyph unicode="&#x201e;" horiz-adv-x="874" d="M61 139q0 68 48.5 116t117.5 48t117.5 -51.5t48.5 -132.5q0 -97 -43 -188t-94 -150q-12 -10 -27 -10h-28q-12 0 -16.5 7t-0.5 19q43 88 43 176q-69 0 -117.5 48.5t-48.5 117.5zM481 139q0 68 48.5 116t117.5 48t117.5 -51.5t48.5 -132.5q0 -97 -43 -188t-94 -150 q-12 -10 -27 -10h-28q-12 0 -16.5 7t-0.5 19q43 88 43 176q-69 0 -117.5 48.5t-48.5 117.5z" />
<glyph unicode="&#x2022;" horiz-adv-x="667" d="M113 563q0 91 65 156t156 65t156 -65t65 -156t-65 -156t-156 -65t-156 65t-65 156z" />
<glyph unicode="&#x2026;" horiz-adv-x="1484" d="M72 139q0 68 48.5 116t117.5 48q67 0 115 -48t48 -116q0 -69 -47.5 -117.5t-115.5 -48.5q-69 0 -117.5 48.5t-48.5 117.5zM578 139q0 68 48 116t117 48q67 0 115.5 -48.5t48.5 -115.5q0 -69 -48 -117.5t-116 -48.5q-69 0 -117 48.5t-48 117.5zM1083 139q0 68 48.5 116 t117.5 48q67 0 115.5 -48.5t48.5 -115.5q0 -69 -48 -117.5t-116 -48.5q-69 0 -117.5 48.5t-48.5 117.5z" />
<glyph unicode="&#x202f;" horiz-adv-x="391" />
<glyph unicode="&#x2039;" horiz-adv-x="421" d="M72 469v176q0 24 16 37l225 203q13 12 25 5.5t12 -26.5v-153q0 -24 -16 -37l-137 -117l137 -117q16 -13 16 -37v-153q0 -20 -12 -25.5t-25 6.5l-225 201q-16 13 -16 37z" />
<glyph unicode="&#x203a;" horiz-adv-x="421" d="M72 354v154q0 24 16 37l137 117l-137 116q-16 13 -16 37v154q0 20 12 26t25 -6l225 -203q16 -13 16 -36v-177q0 -23 -16 -36l-225 -201q-13 -12 -25 -7t-12 25z" />
<glyph unicode="&#x205f;" horiz-adv-x="489" />
<glyph unicode="&#x20ac;" horiz-adv-x="1458" d="M61 469v162q0 13 8.5 22t22.5 9h51q-2 16 -2 49v34h-49q-14 0 -22.5 8.5t-8.5 22.5v162q0 14 8.5 22.5t22.5 8.5h94q79 215 268.5 348t428.5 133q148 0 279.5 -55t226.5 -154q19 -21 0 -43l-158 -172q-19 -22 -43 -2q-135 115 -307 115q-101 0 -188.5 -45.5 t-143.5 -124.5h186q13 0 22 -8.5t9 -22.5v-162q0 -14 -9 -22.5t-22 -8.5h-264q-2 -12 -2 -34q0 -33 2 -49h264q13 0 22 -9t9 -22v-162q0 -13 -9 -22t-22 -9h-174q56 -72 139.5 -112.5t180.5 -40.5q173 0 307 114q24 20 43 -2l158 -170q20 -23 0 -43q-95 -100 -226 -155.5 t-280 -55.5q-233 0 -420 128.5t-270 336.5h-101q-14 0 -22.5 9t-8.5 22z" />
<glyph unicode="&#x2122;" horiz-adv-x="1146" d="M113 1358v65q0 11 10 11h336q10 0 10 -11v-65q0 -10 -10 -10h-117v-273q0 -10 -10 -10h-82q-10 0 -10 10v273h-117q-10 0 -10 10zM541 1075v348q0 11 10 11h84q9 0 12 -7l139 -233l140 233q4 7 12 7h86q10 0 10 -11v-348q0 -10 -10 -10h-78q-10 0 -10 10v187l-111 -191 q-3 -6 -12 -6h-53q-9 0 -12 6l-109 191v-187q0 -10 -10 -10h-78q-10 0 -10 10z" />
<glyph unicode="&#x25fc;" horiz-adv-x="1003" d="M0 0v1004h1004v-1004h-1004z" />
</font>
</defs>
</svg>
